<svg width="570" height="176" viewBox="0 0 570 176" fill="none" xmlns="http://www.w3.org/2000/svg">
<rect y="11" width="570" height="165" rx="10.6667" fill="#EAB28A"/>
<g clip-path="url(#clip0)">
<path d="M501.78 96.8287C516.76 88.064 526.197 75.3215 526.197 61.1222C526.197 34.7123 493.534 13.2976 453.266 13.2976C412.976 13.2976 380.336 34.7123 380.336 61.1222C380.336 82.93 402.577 101.315 432.995 107.074C428.345 110.681 425.688 114.844 425.688 119.307C425.688 132.813 450.106 143.774 480.249 143.774C510.392 143.774 534.81 132.813 534.81 119.307C534.787 109.247 521.181 100.575 501.78 96.8287Z" fill="#F8E8D5"/>
<path d="M515.363 5.87427H483.501V51.6869H515.363V5.87427Z" fill="#B7E4E6"/>
<path d="M510.049 7.70093H488.793V9.25037H510.049V7.70093Z" fill="#595959"/>
<path d="M486.296 25.6929L489.365 26.9648L489.892 21.0908L486.296 25.6929Z" fill="#226467"/>
<path d="M508.033 37.4873C506.544 33.7178 500.543 32.1914 500.543 32.1914C500.543 32.1914 503.452 30.5033 502.123 28.445C500.795 26.3868 497.771 26.5487 496.649 25.7624C495.527 24.953 495.16 22.2241 495.16 22.2241L495.343 21.2529C495.343 21.2529 497.771 21.2991 498.184 20.1891C498.459 19.4028 497.863 18.2465 497.496 17.6452L497.29 16.6045C497.29 16.6045 498.161 15.402 497.542 15.5176C496.924 15.6332 495.87 14.1994 493.488 13.02C491.129 11.8174 489.067 12.835 487.876 13.8988C486.685 14.9626 487.876 16.882 487.876 16.882C487.876 16.882 489.754 20.9291 491.06 23.3111C492.366 25.693 496.443 37.2098 494.794 39.3143C493.144 41.4187 491.427 48.2871 491.427 48.2871L506.613 48.1946C506.59 48.1484 509.522 41.2568 508.033 37.4873Z" fill="#226467"/>
<path d="M507.529 40.6325C507.529 44.3095 504.941 46.784 502.834 46.784C500.726 46.784 496.947 40.0312 496.947 36.3542C496.947 33.1165 499.879 33.3478 502.009 33.4403C502.192 33.4403 502.399 33.4403 502.559 33.4634C504.391 33.579 507.529 36.9554 507.529 40.6325Z" fill="#EA9483"/>
<path d="M507.46 39.638C507.46 39.7536 507.483 39.8924 507.483 40.008C507.483 43.6851 504.895 46.1595 502.788 46.1595C500.818 46.1595 497.451 40.3549 496.97 36.5623C497.107 40.2855 500.772 46.7608 502.834 46.7608C504.941 46.7608 507.529 44.2863 507.529 40.6093C507.529 40.2855 507.506 39.9618 507.46 39.638Z" fill="#9E1A00"/>
<path d="M502.605 33.4636H502.582C502.399 33.4404 502.215 33.4636 502.032 33.4404C502.032 33.4404 502.009 33.4404 501.986 33.4404C503.154 34.2961 504.62 35.5912 504.62 35.9149C504.62 36.1693 503.498 36.6781 502.215 36.9787L502.307 37.3487C503.109 37.1406 505.01 36.6087 505.01 35.9149C504.964 35.3368 503.406 34.0648 502.605 33.4636Z" fill="#B02286"/>
<path d="M505.972 40.8176C505.216 40.0082 503.36 38.6901 502.238 39.2451C502.925 38.6901 503.979 39.6151 504.597 39.1294C505.124 38.7132 502.055 38.2507 501.047 38.1119C501.574 38.1582 502.65 38.135 502.971 37.2562C503.246 36.47 502.444 35.4987 501.803 35.1518C501.688 35.0824 501.551 35.013 501.391 34.9899C501.024 34.8743 500.589 34.828 500.154 34.8511H500.177L501.047 34.7124L501.734 34.5042C501.734 34.5042 501.482 33.9955 500.749 34.0649C499.993 34.1342 498.344 35.1055 498.275 35.198C498.161 35.3137 498.161 35.4987 498.161 35.6605C498.161 38.2507 498.619 40.1932 500.085 42.3671C500.543 43.0609 501.07 43.7547 501.757 44.194C502.719 44.7953 504.758 44.8184 505.353 43.5928C505.605 43.084 506.728 41.6271 505.972 40.8176Z" fill="#9E4800"/>
<path d="M514.401 49.675H484.441V6.56812H514.401V49.675ZM484.807 49.3049H514.034V6.96126H484.807V49.3049Z" fill="#595959"/>
<path d="M512.935 25.7627H502.879V26.9884H512.935V25.7627Z" fill="#919090"/>
<path d="M512.935 10.2451H496.557V11.4708H512.935V10.2451Z" fill="#919090"/>
<path d="M508.606 12.2334H496.557V13.4591H508.606V12.2334Z" fill="#919090"/>
<path d="M513.553 30.0408H505.926V31.2665H513.553V30.0408Z" fill="#919090"/>
<path d="M412.93 0H351.292V136.49H412.93V0Z" fill="#269285"/>
<path d="M362.355 136.49H352.964V145.694H356.331L362.355 136.49Z" fill="#175951"/>
<path d="M411.533 136.49H402.165L407.158 146.179L411.533 145.694V136.49Z" fill="#175951"/>
<path d="M382.26 10.1985H358.667V84.1323H382.26V10.1985Z" fill="#C8FFFF"/>
<path d="M408.326 10.1985H384.734V84.1323H408.326V10.1985Z" fill="#C8FFFF"/>
<path d="M382.237 34.8972H358.644V36.6779H382.237V34.8972Z" fill="#91FFFF"/>
<path d="M408.303 34.8972H384.711V36.6779H408.303V34.8972Z" fill="#91FFFF"/>
<path d="M382.237 55.8489H358.644V57.6296H382.237V55.8489Z" fill="#91FFFF"/>
<path d="M408.303 55.8489H384.711V57.6296H408.303V55.8489Z" fill="#91FFFF"/>
<path d="M360.11 89.6829C361.164 89.6829 383.336 89.6829 383.336 89.6829V132.466H358.644L382.1 131.726V90.4692L360.11 89.6829Z" fill="#6DBFBF"/>
<path d="M407.158 89.6829H385.879V132.466H408.326L386.978 131.633L387.551 90.4692L407.158 89.6829Z" fill="#6DBFBF"/>
<path d="M376.327 105.802H373.372V108.785H376.327V105.802Z" fill="#6DBFBF"/>
<path d="M393.827 105.802H390.872V108.785H393.827V105.802Z" fill="#6DBFBF"/>
<path d="M384.069 0H383.313V88.4801H384.069V0Z" fill="#6DBFBF"/>
<path d="M540.569 149.107C540.588 145.748 496.372 142.778 441.812 142.473C387.251 142.168 343.006 144.644 342.987 148.003C342.969 151.362 387.184 154.332 441.745 154.637C496.306 154.942 540.551 152.466 540.569 149.107Z" fill="#D79C5F"/>
<path d="M422.001 143.867C422.001 145.509 423.054 146.827 424.36 146.827C425.665 146.827 426.719 145.509 426.719 143.867C426.719 142.225 425.665 140.907 424.36 140.907C423.054 140.907 422.001 142.225 422.001 143.867Z" fill="#381A3F"/>
<path d="M423.34 141.509H447.619V140.191H423.34V141.509Z" fill="#381A3F"/>
<path d="M424.36 146.179C425.299 146.179 426.078 145.138 426.078 143.867C426.078 142.595 425.299 141.554 424.36 141.554C423.421 141.554 422.642 142.595 422.642 143.867C422.642 145.138 423.398 146.179 424.36 146.179Z" fill="#573A5E"/>
<path d="M445.295 143.173C445.295 144.815 446.349 146.133 447.655 146.133C448.96 146.133 450.014 144.815 450.014 143.173C450.014 141.531 448.96 140.213 447.655 140.213C446.349 140.213 445.295 141.554 445.295 143.173Z" fill="#381A3F"/>
<path d="M447.655 144.63C448.594 144.63 449.373 143.612 449.373 142.387C449.373 141.138 448.594 140.143 447.655 140.143C446.715 140.143 445.937 141.161 445.937 142.387C445.937 143.635 446.715 144.63 447.655 144.63Z" fill="#573A5E"/>
<path d="M466.071 141.508C466.185 142.017 464.651 142.618 465.91 143.404C466.346 143.659 466.918 143.265 468.522 143.982C469.598 144.468 471.522 146.526 472.599 146.757C474.66 147.197 476.264 146.364 476.264 146.364C475.233 145.74 474.385 145.902 473.286 145.231C472.186 144.56 470.652 138.895 467.239 136.397C467.033 136.235 466.781 136.004 466.483 135.657C465.246 136.305 464.009 136.952 462.772 137.368C464.719 139.727 466.048 141.369 466.071 141.508Z" fill="#E8A573"/>
<path d="M467.262 141.184C466.849 140.93 466.231 141.022 465.635 141.045C465.658 141.577 464.238 142.595 465.475 143.358C466.735 144.121 468.201 148.006 468.201 148.006L469.117 147.821C469.117 147.821 466.597 143.358 467.834 143.797C469.071 144.237 471.316 148.052 471.316 148.052L476.263 146.387L475.828 145.855C474.82 145.231 473.973 145.393 472.896 144.745C470.606 145.624 469.071 141.947 467.262 141.184Z" fill="#3C0849"/>
<path d="M468.659 131.726C467.445 131.795 467.376 131.911 466.139 132.05C466.483 134.501 466.643 136.49 466.345 137.022C466.116 137.438 465.842 137.854 465.612 138.247C464.902 139.357 464.261 140.329 464.513 140.814C464.65 141.115 466.208 140.791 466.781 142.202C467.491 143.936 467.72 147.313 467.72 147.313L472.484 148.284C472.484 148.284 473.217 147.96 472.141 146.873C471.064 145.786 470.171 145.44 469.827 144.283C469.483 143.104 469.232 138.733 469.232 134.894C469.186 134.478 468.613 132.35 468.659 131.726Z" fill="#ECB58C"/>
<path d="M472.759 147.821C472.713 147.613 472.026 146.064 470.377 145.069L469.232 145.856C467.903 144.214 467.926 141.601 467.101 139.936C466.918 139.38 466.3 138.664 465.59 138.247C464.88 139.357 464.238 140.329 464.49 140.814C464.811 141.462 464.788 147.266 464.788 147.266H465.59C465.59 147.266 465.109 142.479 465.91 142.202C466.712 141.924 467.308 147.914 467.308 147.914L472.736 148.562C472.736 148.538 472.988 148.423 472.759 147.821Z" fill="#141735"/>
<path d="M424.039 112.554L423.283 108.438L418.152 105.778L421.038 82.0046C421.038 82.0046 412.907 85.1729 412.632 89.0581C412.22 94.9321 415.793 107.929 415.793 107.929L424.039 112.554Z" fill="#2B374D"/>
<path d="M429.307 81.4962L423.879 81.5656C417.923 81.6349 413.594 87.3008 415.037 93.1286L418.152 105.802H438.172L438.63 91.1166C438.813 85.7976 434.575 81.4268 429.307 81.4962Z" fill="#4C4C73"/>
<path d="M434.693 141.518H437.006V107.8H434.693V141.518Z" fill="#381A3F"/>
<path d="M418.152 105.802L423.031 108.438L457 108.554L438.95 105.2L418.152 105.802Z" fill="#002B32"/>
<path d="M456.359 111.582L424.039 112.554L423.031 108.437L457.55 107.466L456.359 111.582Z" fill="#2B374D"/>
<path d="M499.413 149.623H501.887V84.1302H499.413V149.623Z" fill="#013C66"/>
<path d="M476.397 149.623H478.871V83.6215H476.397V149.623Z" fill="#013C66"/>
<path d="M477.571 149.623H480.045V83.6215H477.571V149.623Z" fill="#54A3C8"/>
<path d="M501.023 149.637H503.497V83.3576H501.023V149.637Z" fill="#54A3C8"/>
<path d="M390.893 149.624H393.229V85.5422H390.893V149.624Z" fill="#013C66"/>
<path d="M405.976 149.624H408.313V85.9122H405.976V149.624Z" fill="#013C66"/>
<path d="M435.125 36.4929C435.125 36.4929 436.98 36.9323 437.851 38.2042C438.721 39.4762 439.683 44.5408 438.057 47.5934C436.431 50.646 433.751 51.3861 434.804 52.4498C435.858 53.5136 436.797 52.4498 436.797 52.4498C436.797 52.4498 436.934 54.5774 435.354 54.3462C435.354 54.3462 435.56 55.5256 436.156 55.5256C436.156 55.5256 436.27 56.5431 435.125 56.2194C433.98 55.8956 433.247 56.6819 433.751 57.1907C434.255 57.6994 428.185 59.8733 428.185 55.7337C428.185 51.5942 436.224 42.3207 436.751 40.91C437.278 39.4993 436.018 38.0192 436.018 38.0192L435.125 36.4929Z" fill="#141735"/>
<path d="M419.687 49.0039C420.603 46.9457 420.122 45.9744 422.619 42.8524C425.115 39.7535 424.085 38.8284 425.642 37.2559C427.2 35.6833 432.789 35.267 434.049 35.8452C435.285 36.4233 436.041 38.7128 436.041 38.7128L430.269 55.8723H423.008L419.687 49.0039Z" fill="#141735"/>
<path d="M432.605 55.364C432.605 55.364 437.759 58.9023 439.683 61.0993C441.08 62.695 446.715 68.2683 449.807 73.2867C450.952 75.1599 446.257 77.3569 446.257 77.3569L436.018 67.6902L432.605 55.364Z" fill="#6E778F"/>
<path d="M438.607 95.1402C435.285 93.082 435.491 85.8898 435.491 85.8898C434.346 80.6633 437.507 68.5685 436.224 64.5677C434.942 60.5669 432.812 55.3404 432.812 55.3404L418.564 54.8547C418.564 54.8547 419.664 63.9895 418.221 65.3771C418.221 65.3771 422.367 85.5198 422.367 88.5956C422.367 90.4919 421.13 95.9034 419.916 99.1641C427.704 99.8811 431.804 99.1179 438.607 95.1402Z" fill="#487065"/>
<path d="M464.719 104.877C463.115 100.506 444.035 95.9268 438.377 94.7011C437.415 94.493 435.652 94.5623 434.735 94.8861C433.75 95.233 432.88 95.8805 432.239 96.7362L430.567 98.9794L456.496 107.42C456.496 107.42 460.55 126.129 465.772 137.415H470.216C468.658 130.385 465.749 107.721 464.719 104.877Z" fill="#0F1F42"/>
<path d="M452.716 101.061L432.537 96.4127L430.544 96.112C427.658 95.6957 424.703 96.2739 422.183 97.754L420.443 98.7715C420.443 98.7715 418.793 104.183 421.634 106.357C422.756 107.213 446.715 108.554 446.715 108.554C446.715 108.554 458.488 133.067 462.818 138.409C464.329 138.224 466.322 136.953 467.811 136.86C468.063 130.894 454.159 101.477 452.716 101.061Z" fill="#603E6B"/>
<path d="M464.696 104.853L455.03 104.252L455.831 107.559C455.831 107.559 460.55 126.175 465.772 137.461H470.216C468.681 130.407 465.772 107.744 464.719 104.899C464.719 104.876 464.696 104.853 464.696 104.853Z" fill="#0F1F42"/>
<path d="M429.192 55.248L431.781 64.9841L431.872 83.0917C431.872 83.0917 432.72 91.8796 434.713 94.9322C436.705 97.9849 456.335 102.772 456.335 102.772L466.94 125.69L476.24 123.955C476.24 123.955 466.299 106.125 463.825 102.749C461.352 99.3955 437.576 95.8341 437.576 92.5965C437.576 89.3589 438.011 68.638 436.889 64.8916C435.766 61.1452 432.789 55.3637 432.789 55.3637L429.192 55.248Z" fill="#939EBF"/>
<path d="M418.221 54.7395C418.221 54.7395 419.916 64.013 418.221 65.7244L421.313 89.6829C421.313 89.6829 418.038 104.854 418.954 105.802C419.893 106.75 445.936 110.011 445.936 110.011L443.852 129.645L458.992 128.188C458.992 128.188 454.64 110.404 451.296 105.177C447.952 99.9508 434.713 97.0138 434.713 94.8862C434.713 92.7587 431.758 64.9381 431.758 64.9381L423.649 54.8089L418.221 54.7395Z" fill="#B3C7FF"/>
<path d="M431.803 69.9562C431.803 70.2106 431.597 70.3956 431.368 70.3956C431.116 70.3956 430.933 70.1875 430.933 69.9562C430.933 69.7019 431.139 69.5168 431.368 69.5168C431.62 69.5168 431.803 69.7019 431.803 69.9562Z" fill="#939EBF"/>
<path d="M431.529 67.3203C431.529 67.5746 431.323 67.7597 431.094 67.7597C430.842 67.7597 430.658 67.5515 430.658 67.3203C430.658 67.0659 430.864 66.8809 431.094 66.8809C431.345 66.8809 431.529 67.089 431.529 67.3203Z" fill="#939EBF"/>
<path d="M432.262 72.4538C432.262 72.7082 432.056 72.8932 431.827 72.8932C431.575 72.8932 431.392 72.6851 431.392 72.4538C431.392 72.1994 431.598 72.0144 431.827 72.0144C432.056 72.0144 432.262 72.2225 432.262 72.4538Z" fill="#939EBF"/>
<path d="M429.765 72.2689C429.765 72.477 429.559 72.662 429.33 72.662C429.078 72.662 428.895 72.477 428.895 72.2689C428.895 72.0607 429.101 71.8757 429.33 71.8757C429.559 71.8989 429.765 72.0607 429.765 72.2689Z" fill="#8B7FBF"/>
<path d="M429.903 72.1302C428.849 69.0314 426.581 63.4117 423.42 64.1749C422.894 62.8798 420.97 57.8846 421.336 54.832L420.58 54.7395C420.191 58.0003 422.161 63.088 422.71 64.4524C420.282 65.9094 421.748 71.8065 422.642 74.3966C422.802 74.8822 423.512 74.6278 423.352 74.1422C422.573 71.899 421.038 65.8862 423.329 64.9843C426.009 63.9436 428.254 69.6095 429.193 72.3615C429.261 72.5696 429.468 72.6621 429.674 72.5928C429.857 72.5465 429.971 72.3152 429.903 72.1302Z" fill="#464459"/>
<path d="M422.367 63.5503L423.077 63.3191L424.222 64.8916L422.665 65.516L422.367 63.5503Z" fill="#8B7FBF"/>
<path d="M423.673 73.888C423.673 74.1655 423.512 74.3736 423.306 74.3736C423.1 74.3736 422.94 74.1655 422.94 73.888C422.94 73.6105 423.1 73.4023 423.306 73.4023C423.489 73.4023 423.673 73.6336 423.673 73.888Z" fill="#8B7FBF"/>
<path d="M434.3 65.3541C434.071 65.3541 433.865 65.1691 433.842 64.9147C433.407 60.4051 430.681 55.6643 430.636 55.6181C430.498 55.3868 430.567 55.0862 430.796 54.9474C431.025 54.8087 431.3 54.878 431.437 55.1093C431.552 55.3174 434.3 60.1045 434.758 64.8222C434.781 65.0997 434.598 65.331 434.346 65.3541C434.323 65.3541 434.3 65.3541 434.3 65.3541Z" fill="#464459"/>
<path d="M436.087 65.7241C436.087 66.4642 435.491 67.0654 434.758 67.0654C434.025 67.0654 433.43 66.4642 433.43 65.7241C433.43 64.9841 434.025 64.3828 434.758 64.3828C435.491 64.3828 436.087 64.9841 436.087 65.7241Z" fill="#464459"/>
<path d="M436.476 66.1173C436.476 67.0654 435.697 67.8517 434.758 67.8517C433.819 67.8517 433.04 67.0654 433.04 66.1173C433.04 65.1691 433.819 64.3828 434.758 64.3828C435.697 64.3828 436.476 65.1691 436.476 66.1173Z" fill="#464459"/>
<path d="M437.003 66.1173C437.003 67.0654 436.225 67.8517 435.285 67.8517C434.346 67.8517 433.568 67.0654 433.568 66.1173C433.568 65.1691 434.346 64.3828 435.285 64.3828C436.247 64.3828 437.003 65.1691 437.003 66.1173Z" fill="#827EA6"/>
<path d="M429.055 54.8782L431.781 64.9611L432.354 59.2721H431.208L431.712 54.8782H429.055Z" fill="#DCE4FF"/>
<path d="M426.077 76.755C424.978 76.3619 421.267 77.7032 421.015 77.7032L420.191 77.9576C419.87 77.9113 419.045 77.7957 418.038 77.6107C417.809 78.7207 417.877 79.8539 417.946 80.964C419.481 80.8483 420.557 80.6864 420.649 80.6864C422.092 80.6864 424.314 81.8196 424.314 81.8196C424.314 81.8196 425.344 82.0509 425.871 82.0509C426.398 82.0509 426.856 80.9871 426.856 80.9871C427.681 80.9871 427.314 79.8308 427.314 79.8308C427.314 79.8308 428.918 81.6809 429.742 81.6809C430.59 81.6809 427.177 77.1482 426.077 76.755Z" fill="#ECB58C"/>
<path d="M418.221 76.6857C416.159 76.3157 413.182 76.5932 412.54 75.7375C411.509 74.3499 418.61 65.2383 418.61 65.2383C419.847 64.1745 418.541 54.8547 418.541 54.8547C412.54 56.3348 403.882 77.9807 407.135 80.4321C409.311 82.074 414.877 82.6291 417.923 82.3747C417.877 81.2646 417.992 77.7957 418.221 76.6857Z" fill="#D0DCFF"/>
<path d="M418.221 76.686C415.541 76.3622 412.311 76.9403 412.219 75.3909C412.174 73.1708 417.167 66.6724 418.427 65.0536C419.389 64.0361 418.702 56.6126 418.564 54.8782C418.908 56.682 420.145 64.2904 418.816 65.4699L418.862 65.4236C418.014 66.5337 411.738 74.7896 412.815 75.7147C413.502 76.3622 416.296 76.2466 418.221 76.686Z" fill="#ECF1FF"/>
<path d="M432.353 50.9237C432.353 50.9237 431.139 51.6637 430.269 52.9588C430.04 53.3057 429.834 53.6988 429.673 54.1151C429.238 55.3176 429.124 56.7052 429.124 57.6302C429.124 58.3472 428.597 58.9484 427.91 59.0178C427.2 59.0872 426.306 59.0178 425.619 58.324C424.794 57.4915 423.626 56.1271 423.649 54.8089C423.672 53.9301 430.177 46.8535 430.177 46.8535L432.353 50.9237Z" fill="#ECB58C"/>
<path d="M423.649 54.8089L421.816 54.7858L419.847 54.7395L424.817 60.2435L424.038 60.9373L431.872 65.8862L431.78 64.9612L423.649 54.8089Z" fill="#DCE4FF"/>
<path d="M432.353 50.9237L430.2 46.8535C430.2 46.8535 429.444 47.6861 428.436 48.8192C428.688 50.3455 429.215 51.9412 430.291 52.9819C431.139 51.6637 432.353 50.9237 432.353 50.9237Z" fill="#E8A573"/>
<path d="M436.018 38.0427C436.018 38.0427 437.141 38.9215 437.393 40.5172C437.645 42.1128 436.591 43.8935 436.591 45.258C436.591 46.5993 434.117 53.0052 431.025 51.502C427.933 49.9988 428.185 45.1192 428.185 44.0092C428.185 42.9223 429.674 39.1296 431.506 38.2508C433.361 37.3489 436.018 38.0427 436.018 38.0427Z" fill="#ECB58C"/>
<path d="M436.522 45.6973C436.568 45.5123 436.568 45.3504 436.568 45.2348C436.568 43.8935 437.622 42.0896 437.37 40.4939C437.118 38.8982 435.996 38.0195 435.996 38.0195C435.996 38.0195 434.598 37.6726 433.132 37.8113C433.293 39.962 434.965 44.0785 436.522 45.6973Z" fill="#E8A573"/>
<path d="M436.224 38.18C436.247 38.0875 435.652 36.0061 433.178 35.613C430.246 35.1273 426.764 37.3474 425.711 40.3307C424.657 43.314 423.695 46.7366 420.786 47.5923C417.877 48.4479 417.35 52.7725 418.267 55.4782C419.183 58.184 421.954 57.4902 421.954 57.4902C421.954 57.4902 420.259 56.3108 420.694 55.8482C420.694 55.8482 422 58.0683 423.466 57.5596C424.932 57.0508 425.528 56.2414 425.528 56.2414C425.528 56.2414 423.558 55.4089 425.23 53.975C426.398 52.9806 427.543 52.5412 428.918 50.853C430.223 49.2573 428.414 44.979 429.559 41.9033C429.696 42.0189 429.925 42.1345 430.292 42.1808C431.849 42.3427 430.864 40.5388 432.353 38.8275C434.873 37.3937 436.064 38.2031 436.224 38.18Z" fill="#141735"/>
<path d="M425.619 37.2562C425.619 37.2562 423.787 44.749 425.619 46.5991C427.452 48.4491 429.215 47.0616 429.215 46.1828C429.215 45.3271 428.734 41.9276 429.536 41.9276C430.338 41.9276 430.956 42.2976 431.368 40.9795C431.758 39.6844 432.582 37.9268 434.14 37.9268C435.698 37.9268 436.224 38.1812 436.224 38.1812C436.224 38.1812 435.881 35.9842 433.178 35.6142C430.475 35.2442 427.497 34.6892 425.619 37.2562Z" fill="#141735"/>
<path d="M431.918 46.5064C431.689 46.9458 430.956 46.992 430.292 46.6451C429.628 46.2983 429.261 45.6507 429.49 45.2113C429.719 44.7719 430.452 44.7257 431.116 45.0726C431.804 45.4426 432.147 46.067 431.918 46.5064Z" fill="#E8A573"/>
<path d="M434.117 45.0032C434.003 45.8126 433.934 46.807 433.911 47.6395C433.636 47.7089 433.27 47.732 432.972 47.6164C433.43 47.917 434.003 47.7552 434.025 47.7552C434.094 47.0614 434.186 46.1595 434.117 45.0032Z" fill="#141735"/>
<path d="M433.384 43.5698C433.384 43.5698 432.88 42.9916 432.193 42.7604C431.506 42.5291 430.383 43.1535 430.383 43.1535C430.383 43.1535 431.552 42.7604 432.01 42.9223C432.468 43.0841 432.857 43.4773 432.857 43.4773L433.384 43.5698Z" fill="#141735"/>
<path d="M435.056 43.9399C435.056 43.9399 435.743 43.6161 436.453 43.6855C437.164 43.7549 437.942 44.7725 437.942 44.7725C437.942 44.7725 437.026 43.9399 436.545 43.8937C436.064 43.8705 435.537 44.0787 435.537 44.0787L435.056 43.9399Z" fill="#141735"/>
<path d="M431.483 48.3796C432.949 49.0503 433.384 49.0272 433.934 49.1659C433.064 49.6284 431.918 49.1659 431.483 48.3796Z" fill="#141735"/>
<path d="M432.72 44.518C432.605 44.7492 432.353 44.8649 432.17 44.7724C431.964 44.6799 431.895 44.4024 431.987 44.1711C432.101 43.9398 432.353 43.8242 432.536 43.9167C432.765 44.0323 432.834 44.2867 432.72 44.518Z" fill="#141735"/>
<path d="M431.208 44.2402C432.857 43.1533 433.086 44.4021 433.498 44.6334C433.155 44.5409 432.857 43.9858 432.445 43.9858C432.124 43.9627 431.574 44.1477 431.208 44.2402Z" fill="#42004A"/>
<path d="M436.293 45.4663C436.178 45.6975 435.949 45.8132 435.766 45.7207C435.583 45.6281 435.514 45.3738 435.606 45.1425C435.72 44.9113 435.949 44.7956 436.133 44.8881C436.339 44.9575 436.408 45.235 436.293 45.4663Z" fill="#141735"/>
<path d="M434.758 45.1882C436.293 44.1013 436.522 45.3501 436.889 45.5814C436.568 45.4889 436.293 44.9338 435.904 44.9338C435.606 44.9107 435.102 45.0957 434.758 45.1882Z" fill="#42004A"/>
<path d="M436.224 43.0378C435.331 43.0378 434.575 43.7316 434.392 44.6566L434.071 44.5872C434.094 44.4716 434.094 44.3328 434.094 44.1941C434.094 42.9453 433.178 41.9277 432.056 41.9277C430.933 41.9277 430.017 42.9453 430.017 44.1941C430.017 45.4429 430.933 46.4604 432.056 46.4604C432.926 46.4604 433.659 45.8592 433.957 45.0035L434.323 45.0729C434.323 45.096 434.323 45.1191 434.323 45.1422C434.323 46.2985 435.171 47.2467 436.224 47.2467C437.278 47.2467 438.126 46.2985 438.126 45.1422C438.126 43.9859 437.278 43.0378 436.224 43.0378ZM432.056 46.021C431.185 46.021 430.475 45.2116 430.475 44.2172C430.475 43.2228 431.185 42.4134 432.056 42.4134C432.926 42.4134 433.636 43.2228 433.636 44.2172C433.636 45.2116 432.926 46.021 432.056 46.021ZM436.224 46.8536C435.423 46.8536 434.758 46.0904 434.758 45.1654C434.758 44.2403 435.423 43.4772 436.224 43.4772C437.049 43.4772 437.69 44.2403 437.69 45.1654C437.713 46.0904 437.049 46.8536 436.224 46.8536Z" fill="#2B374D"/>
<path d="M426.421 42.2285C426.81 43.3848 427.108 44.9111 427.062 46.0906C426.879 49.8601 422.894 47.8944 421.794 47.9869C421.107 48.01 420.534 48.6575 420.786 49.4901C420.992 50.1839 421.428 50.4151 421.68 50.6926C422.046 51.132 421.84 51.6408 421.428 51.8489C420.603 52.2652 419.595 51.317 419.275 52.4502C419.023 53.2365 419.275 54.1615 419.87 54.7628C419.183 54.254 418.816 53.2827 419.023 52.3808C419.229 51.4558 419.847 51.502 420.718 51.5714C421.267 51.6177 421.451 51.3402 421.405 51.1783C421.359 50.8545 420.626 50.7158 420.305 49.652C420.053 48.8888 420.351 48.0794 421.038 47.6631C422.871 46.5993 426.925 50.4151 426.742 44.7955C426.719 43.9398 426.581 43.0842 426.421 42.2285Z" fill="#141735"/>
<path d="M434.415 36.4929C434.415 36.4929 436.156 36.4929 437.415 37.788C438.698 39.083 439.202 43.4076 438.309 44.1707C437.415 44.9339 439.683 46.3908 437.782 46.3908C435.904 46.3908 432.72 36.6779 434.415 36.4929Z" fill="#141735"/>
<path d="M435.286 36.9094C437.759 37.5338 438.721 39.9621 437.484 41.8584C437.278 42.1822 436.981 42.4828 436.614 42.5059V41.974C436.751 41.9971 437.026 41.6965 437.095 41.604C438.355 40.0083 437.599 37.6957 435.286 36.9094Z" fill="#141735"/>
<path d="M470.079 68.36C470.079 66.9031 468.682 65.7236 466.964 65.7236C465.246 65.7236 463.848 66.9031 463.826 68.3369C463.826 69.7938 465.223 70.9732 466.941 70.9732C467.009 70.9732 467.078 70.9732 467.124 70.9732C467.857 73.3321 468.704 77.4717 468.178 79.368C467.88 80.478 467.193 81.5187 466.231 82.1662L466.368 82.3975C467.468 81.7962 468.338 80.7787 468.796 79.553C469.552 77.5873 469.185 73.2858 468.613 70.5801C469.506 70.0945 470.079 69.285 470.079 68.36Z" fill="#12113F"/>
<path d="M468.177 81.1486L460.527 81.1255C459.931 81.1255 459.427 81.6111 459.427 82.2355V82.4668L469.277 82.4899V82.2587C469.277 81.6574 468.796 81.1486 468.177 81.1486Z" fill="#12113F"/>
<path d="M450.472 69.5166V44.7024L476.148 46.1825L476.95 68.5453L450.472 69.5166Z" fill="#615697"/>
<path d="M476.148 46.1821L476.95 68.545L450.472 69.5163L472.3 64.3823L476.148 46.1821Z" fill="#494171"/>
<path d="M513.278 67.7362C516.829 61.654 519.417 59.804 519.417 59.804C519.417 59.804 521.135 69.4012 517.653 72.107C514.172 74.8127 512.935 80.8486 512.935 80.8486C512.935 80.8486 515.042 82.398 514.699 83.855C514.676 83.9244 513.645 85.2888 512.568 84.8956C511.744 84.595 510.828 83.7393 509.659 81.8199C509.659 81.8199 509.728 73.8183 513.278 67.7362Z" fill="#E8A573"/>
<path d="M520.219 60.359L519.417 59.804C519.417 59.804 514.218 63.0416 512.523 66.9268C510.805 70.8119 511.332 72.1301 511.332 72.1301L515.065 75.2521C515.065 75.2521 519.761 72.1764 520.7 70.465C521.662 68.7537 520.219 60.359 520.219 60.359Z" fill="#1E403D"/>
<path d="M521.364 103.535C521.936 103.535 531.671 106.264 531.121 100.344C530.595 94.4237 530.297 87.6941 533.481 86.4915C540.352 83.9014 545.002 86.8153 545.002 86.8153L540.765 104.345L534.534 114.058L525.555 113.295L507.689 115.422C507.689 115.422 509.338 103.466 521.364 103.535Z" fill="#E6C29E"/>
<path d="M533.32 112.762L536.023 112.786L539.711 149.348H539.207L533.32 112.762Z" fill="#18287D"/>
<path d="M516.073 112.67L513.393 112.646L509.27 149.162H509.774L516.073 112.67Z" fill="#18287D"/>
<path d="M545.666 87.2313C545.644 89.4746 541.314 110.519 540.1 113.132C537.054 119.677 526.54 117.226 521.02 117.11C517.607 117.041 511.056 119.122 507.964 117.364C504.872 115.584 508.468 110.727 515.821 110.774C523.173 110.82 528.716 114.497 533.114 109.779C537.512 105.061 536.917 95.6492 539.482 90.0296C542.024 84.3868 545.666 87.2313 545.666 87.2313Z" fill="#D79C5F"/>
<path d="M509.613 101.083L495.664 105.292C494.427 105.662 493.603 106.865 493.694 108.183C493.9 111.166 494.496 116.531 495.985 120.347C498.138 125.874 502.467 137.206 502.536 140.259C502.604 143.311 501.642 148.283 501.642 148.283L506.407 148.168C506.407 148.168 505.971 145.092 505.926 142.872C505.857 140.652 505.559 137.83 505.513 136.073C505.468 134.477 502.925 117.688 503.177 110.704C503.2 110.01 512.522 106.564 512.522 106.564L509.613 101.083Z" fill="#E8A573"/>
<path d="M502.077 145.74L501.665 148.284C501.665 148.284 501.573 149.325 502.558 150.319C503.543 151.314 506.429 149.14 506.429 148.146C506.429 147.151 506.132 145.555 506.132 145.555C506.132 145.555 504.62 148.701 503.772 147.845C502.925 146.989 502.077 145.74 502.077 145.74Z" fill="#60114D"/>
<path d="M519.532 98.1238L504.117 109.432C502.399 110.889 501.849 115.075 502.696 117.18C504.025 120.44 506.086 125.181 507.988 128.003C511.103 132.628 516.371 140.005 516.371 140.005C516.371 140.005 518.02 145.185 516.944 146.341C515.867 147.498 514.493 148.4 514.493 148.4C514.493 148.4 519.165 148.307 519.944 147.452C520.746 146.619 520.219 143.15 520.173 141.994C520.15 140.814 519.623 139.982 519.623 139.982C519.623 139.982 519.165 138.109 518.387 135.68C517.264 132.165 516.714 126.638 515.249 123.331C512.775 117.735 511.538 117.92 511.538 117.92L526.518 107.906L519.532 98.1238Z" fill="#ECB58C"/>
<path d="M531.488 73.3323C530.228 64.9838 532.107 60.6593 529.014 59.4336C525.899 58.2079 522.074 58.9711 522.074 58.9711C522.074 58.9711 519.005 59.0636 517.355 61.8618C512.522 70.0484 515.912 83.5077 516.279 90.4687L532.152 89.6824C533.504 89.613 533.733 88.4336 533.55 87.0923C532.885 81.6808 531.946 76.4543 531.488 73.3323Z" fill="#162A4D"/>
<path d="M532.153 89.6829L516.279 90.4692C516.371 92.4349 516.233 93.8918 515.615 94.5624C512.339 98.0776 495.504 103.05 494.175 106.38C494.175 106.38 501.986 105.085 506.109 109.016C510.232 112.948 511.584 117.897 511.584 117.897C511.584 117.897 527.755 108.6 531.878 106.935C534.878 105.709 535.359 98.6789 532.153 89.6829Z" fill="#390763"/>
<path d="M521.799 57.1214C521.799 57.1214 519.601 58.8328 516.692 57.584C513.783 56.312 512.019 52.4731 514.241 47.6629C516.485 42.8527 518.638 41.1414 518.638 41.1414L521.799 57.1214Z" fill="black"/>
<path d="M520.333 41.1412C520.333 41.1412 519.073 41.0949 518.661 41.1412C514.767 41.5112 511.996 47.6627 513.714 50.3684C515.409 53.0511 517.035 51.6172 517.058 51.6172C514.79 55.4562 518.89 59.7345 521.272 57.3525C522.692 55.8956 520.333 41.1412 520.333 41.1412Z" fill="#141735"/>
<path d="M520.333 53.5368C520.333 53.5368 521.066 57.5376 520.288 60.0583C519.875 61.4227 520.081 66.973 521.524 67.2042C522.738 67.4124 525.144 62.5328 525.647 61.3071C526.701 58.6707 524.708 52.4961 524.708 52.4961L520.333 53.5368Z" fill="#ECB58C"/>
<path d="M524.685 52.519L520.31 53.5597C520.31 53.5597 520.494 54.5772 520.585 55.9186C520.7 55.9648 520.814 55.9879 520.929 56.0111C522.441 56.3579 524.09 55.6179 525.212 54.4616C524.96 53.3053 524.685 52.519 524.685 52.519Z" fill="#E8A573"/>
<path d="M518.661 41.1414C518.661 41.1414 516.783 43.1302 517.126 45.6047C517.47 48.0792 517.058 49.4898 517.058 50.3686C517.058 51.2474 518.363 53.9532 520.975 54.5082C523.586 55.0632 526.632 52.6581 526.632 50.4843C526.655 48.3104 526.289 44.5178 524.639 42.8296C522.99 41.1414 518.661 41.1414 518.661 41.1414Z" fill="#ECB58C"/>
<path d="M518.661 41.1407C518.661 41.1407 524.388 45.3496 525.716 47.8935C527.045 50.4142 523.838 54.045 524.113 55.4557C524.388 56.8664 529.037 60.0115 530.824 58.2308C532.611 56.4501 531.259 53.6519 531.259 53.6519C531.259 53.6519 534.626 53.675 534.42 50.8536C534.214 48.0323 531.9 44.2165 528.762 42.4126C522.074 38.5968 518.661 41.1407 518.661 41.1407Z" fill="#141735"/>
<path d="M534.397 49.1197C531.946 41.3494 522.624 38.4817 518.661 41.1412C522.738 39.0368 531.419 42.1357 533.779 49.3047C534.076 50.2991 534.328 51.4092 533.847 52.2186C533.366 53.0511 532.244 53.398 531.259 53.4674L530.961 53.4905C530.984 53.6293 532.542 56.2888 530.824 58.2545C532.038 57.1907 532.084 55.3637 531.534 53.8605C532.565 53.7912 533.664 53.4905 534.306 52.5192C534.97 51.5479 534.695 50.2298 534.397 49.1197Z" fill="#34173A"/>
<path d="M524.731 47.2002C524.731 47.2002 524.799 45.8357 526.151 46.2289C527.502 46.622 526.907 48.8883 526.036 49.1427C525.143 49.3971 524.731 47.2002 524.731 47.2002Z" fill="#ECB58C"/>
<path d="M521.524 51.2933C522.555 51.0621 522.99 50.5995 522.853 50.692C522.945 50.6227 523.059 50.7383 522.967 50.8077C522.83 50.8539 522.372 51.5477 520.081 51.6402C519.967 51.6402 519.967 51.4783 520.081 51.4552C520.058 51.4783 520.952 51.4321 521.524 51.2933Z" fill="#18287D"/>
<path d="M521.341 52.103C521.296 52.103 521.25 52.0799 521.25 52.0337C521.25 51.9874 521.273 51.9412 521.318 51.9412C521.502 51.918 522.028 51.8255 522.212 51.6636C522.349 51.5018 522.716 51.9412 521.341 52.103C521.364 52.103 521.364 52.103 521.341 52.103Z" fill="#18287D"/>
<path d="M520.219 49.5593C520.265 49.2818 520.471 48.773 520.768 48.8424C521.066 48.9349 521.341 49.0274 521.593 49.2124C521.295 49.1893 521.02 49.0505 520.746 49.0042C520.608 48.9117 520.471 49.2124 520.219 49.5593Z" fill="#18287D"/>
<path d="M518.844 48.1487C518.844 48.3568 518.684 48.5187 518.455 48.5187C518.226 48.5187 518.042 48.3568 518.042 48.1718C518.042 47.9636 518.203 47.8018 518.432 47.8018C518.638 47.7786 518.821 47.9405 518.844 48.1487Z" fill="#18287D"/>
<path d="M522.12 47.6397C522.166 47.8478 522.372 47.9635 522.601 47.9172C522.83 47.871 522.967 47.6628 522.922 47.4778C522.876 47.2697 522.67 47.1541 522.441 47.2003C522.212 47.2466 522.074 47.4316 522.12 47.6397Z" fill="#18287D"/>
<path d="M517.745 46.3677C517.149 46.4834 517.241 46.8765 517.241 46.8765C517.241 46.8765 517.493 46.784 517.814 46.599L519.28 46.5527C519.142 46.5065 518.295 46.2521 517.745 46.3677Z" fill="#542360"/>
<path d="M522.372 45.6508C522.967 45.5814 523.013 45.9746 523.013 45.9746C523.013 45.9746 522.738 45.9746 522.372 45.882L520.952 46.2752C521.089 46.2058 521.822 45.7202 522.372 45.6508Z" fill="#542360"/>
<path d="M521.547 48.0557C521.547 48.0557 522.051 47.5007 522.486 47.3157C522.922 47.1307 524.021 47.3157 524.021 47.3157C524.021 47.3157 523.334 47.0613 522.67 47.0613C521.983 47.0613 521.547 48.0557 521.547 48.0557Z" fill="#542360"/>
<path d="M519.623 48.6573C519.623 48.6573 519.119 48.1022 518.684 47.9172C518.249 47.7322 517.149 47.9172 517.149 47.9172C517.149 47.9172 517.836 47.6628 518.501 47.6628C519.165 47.6628 519.623 48.6573 519.623 48.6573Z" fill="#542360"/>
<path d="M524.983 47.663C524.983 47.663 525.968 46.0442 526.334 46.8767C526.701 47.7092 526.266 48.6343 525.67 48.4493C525.052 48.2411 524.983 47.663 524.983 47.663Z" fill="#E8A573"/>
<path d="M519.303 49.9523C519.303 50.2761 518.867 50.5536 518.341 50.5536C517.814 50.5536 517.379 50.2761 517.379 49.9523C517.379 49.6286 517.814 49.3511 518.341 49.3511C518.867 49.3511 519.303 49.6286 519.303 49.9523Z" fill="#E8A573"/>
<path d="M524.754 48.565C524.823 48.8887 524.456 49.2356 523.952 49.3512C523.448 49.4669 522.967 49.2819 522.899 48.9581C522.83 48.6343 523.196 48.2874 523.7 48.1718C524.227 48.0793 524.708 48.2412 524.754 48.565Z" fill="#E8A573"/>
<path d="M510.804 89.8908H511.583C511.583 86.0288 513.347 82.8836 515.5 82.8836C517.653 82.8836 519.417 86.0288 519.417 89.8908H520.196C520.196 85.52 518.134 82.0742 515.5 82.0742C512.889 82.0742 510.804 85.52 510.804 89.8908Z" fill="#5B6D7E"/>
<path d="M523.311 88.4797L508.812 88.5029L507.461 101.153H525.922L523.311 88.4797Z" fill="#75B8BF"/>
<path d="M521.41 88.4797L520.883 101.153H525.922L523.311 88.4797H521.41Z" fill="#5B6D7E"/>
<path d="M519.44 89.8906L518.249 99.5804L508.056 99.8348L516.691 98.5166L519.44 89.8906Z" fill="#5B6D7E"/>
<path d="M529.678 59.804C529.678 59.804 533.458 60.8446 538.291 67.158C541.91 71.8988 545.575 78.7904 545.666 81.9818C545.758 85.1732 530.114 87.0232 524.845 84.8956C524.845 84.8956 522.509 87.0695 520.218 87.1389C517.928 87.2082 518.386 86.5376 517.768 84.78C517.149 83.0456 519.211 81.8661 520.906 81.3805C521.41 81.2417 521.341 81.1724 523.631 81.5886C525.922 82.0049 536.046 82.6293 537.649 80.918C539.253 79.2066 533.183 72.3614 531.923 71.1357C530.663 69.9331 526.998 64.7298 529.678 59.804Z" fill="#ECB58C"/>
<path d="M528.991 59.4337C528.991 59.4337 526.678 64.7989 528.029 67.7359C529.381 70.6729 533.092 74.0493 534.947 74.6043C534.947 74.6043 539.62 71.4592 540.124 69.7247C540.627 68.0134 535.245 57.8611 528.991 59.4337Z" fill="#3B8079"/>
<path d="M513.737 81.2415C513.737 81.2415 515.271 81.4265 515.775 82.0971C516.142 82.5596 516.485 83.7159 516.096 84.4328C515.706 85.1498 514.744 84.8954 514.424 85.2423C514.103 85.566 513.92 85.6816 513.324 85.7973C512.729 85.9129 512.523 86.2135 512.179 86.2135C511.835 86.2135 511.492 85.4041 511.354 84.4328C511.217 83.4616 511.606 82.6753 511.606 82.6753C511.606 82.6753 512.362 81.2415 513.737 81.2415Z" fill="#ECB58C"/>
<path d="M517.035 146.226C517.035 146.226 513.485 148.562 514.424 148.562C515.363 148.562 519.738 148.747 520.196 147.059C520.654 145.37 520.539 142.757 520.7 142.133C521.02 140.791 519.852 140.329 519.852 140.329C519.852 140.329 518.913 143.081 519.211 144.445C519.509 145.81 517.951 146.758 517.058 146.758C516.187 146.758 517.035 146.226 517.035 146.226Z" fill="#60114D"/>
<path d="M503.841 114.358C503.452 114.867 503.612 115.722 504.368 116.485C505.124 117.249 508.857 117.48 508.056 115.375C507.231 113.294 504.414 113.595 503.841 114.358Z" fill="#E8A573"/>
<path d="M386.975 83.7253L509.061 83.7253V82.4303L386.975 82.4303V83.7253Z" fill="#487065"/>
<path d="M386.975 83.7253L509.061 83.7253V82.4303L386.975 82.4303V83.7253Z" fill="#487065"/>
<path d="M473.066 83.7253H509.073V82.4303H473.066V83.7253Z" fill="#7CAD98"/>
<path d="M389.299 88.5208L504.376 88.5208V83.7337L389.299 83.7337V88.5208Z" fill="#3C4959"/>
<path d="M479.045 88.5208H504.379V83.7337H479.045V88.5208Z" fill="#935E9F"/>
<path d="M449.601 72.916L441.172 75.483L438.401 76.1074C438.401 76.1074 436.981 77.3562 436.477 78.4894C435.95 79.7151 435.56 82.0508 435.56 82.0508C435.721 81.9814 437.347 79.6688 437.462 79.5069C437.003 80.5013 436.912 82.3745 438.149 80.5707C437.897 80.8251 437.645 81.1489 438.034 81.2182C438.698 81.3108 440.096 80.5938 440.874 80.2007C441.653 79.8076 442.409 78.0731 442.409 78.0731C444.745 78.3275 445.639 78.1887 447.7 78.05C452.717 77.7031 449.601 72.916 449.601 72.916Z" fill="#ECB58C"/>
<path d="M441.47 74.6509L443.577 79.3686C443.577 79.3686 449.441 78.6979 450.38 77.7266C451.525 76.5703 451.8 75.5297 449.601 72.8933L441.47 74.6509Z" fill="#B3C7FF"/>
<path d="M414.763 44.7255C414.74 44.7255 414.74 44.7255 414.717 44.7255C414.648 44.7024 414.602 44.6099 414.625 44.5405C416.71 38.4815 420.191 34.9201 422.734 32.9775C425.505 30.8731 427.796 30.2024 427.819 30.2024C427.911 30.1793 427.979 30.2256 428.002 30.3181C428.025 30.3874 427.979 30.4799 427.888 30.5031C427.865 30.5031 425.597 31.1737 422.894 33.2319C420.398 35.1283 416.962 38.6665 414.9 44.633C414.877 44.7024 414.809 44.7255 414.763 44.7255Z" fill="#1B2B80"/>
<path d="M537.626 54.8545C537.604 54.8545 537.604 54.8545 537.581 54.8545C537.489 54.8314 537.443 54.762 537.466 54.6695C538.886 48.888 536.527 44.656 534.305 42.1583C531.877 39.4295 529.083 38.0419 529.06 38.0188C528.991 37.9725 528.945 37.88 528.991 37.8107C529.037 37.7413 529.106 37.695 529.197 37.7413C529.22 37.7644 532.083 39.152 534.534 41.9271C536.825 44.4941 539.23 48.7955 537.764 54.7389C537.764 54.8083 537.695 54.8545 537.626 54.8545Z" fill="#1B2B80"/>
<path d="M453.747 81.4961H429.193V82.4211H453.747V81.4961Z" fill="#3E3D4D"/>
</g>
<path d="M32.7217 101.271C32.7217 102.795 32.2964 103.965 31.4458 104.781C30.5952 105.594 29.3701 106 27.7705 106H25.2251V102.046H24.2983V100.776H25.2251V96.72H28.0562C29.5246 96.72 30.6693 97.1199 31.4902 97.9197C32.3112 98.7153 32.7217 99.8324 32.7217 101.271ZM31.1221 101.322C31.1221 100.222 30.8576 99.3923 30.3286 98.8337C29.8039 98.2709 29.0252 97.9895 27.9927 97.9895H26.7422V100.776H28.6909V102.046H26.7422V104.724H27.7578C30.0007 104.724 31.1221 103.59 31.1221 101.322ZM38.8898 106L38.5914 105.023H38.5407C38.2021 105.45 37.8615 105.742 37.5187 105.899C37.1759 106.051 36.7358 106.127 36.1984 106.127C35.5086 106.127 34.969 105.941 34.5797 105.569C34.1946 105.196 34.0021 104.669 34.0021 103.988C34.0021 103.264 34.2708 102.719 34.8082 102.35C35.3457 101.982 36.1645 101.781 37.2648 101.747L38.4772 101.709V101.335C38.4772 100.886 38.3714 100.552 38.1598 100.332C37.9524 100.108 37.6287 99.9954 37.1886 99.9954C36.8289 99.9954 36.484 100.048 36.1539 100.154C35.8239 100.26 35.5065 100.385 35.2018 100.529L34.7194 99.4622C35.1002 99.2633 35.5171 99.113 35.9699 99.0115C36.4227 98.9057 36.8501 98.8528 37.2521 98.8528C38.145 98.8528 38.8178 99.0474 39.2706 99.4368C39.7277 99.8261 39.9562 100.438 39.9562 101.271V106H38.8898ZM36.6681 104.985C37.2098 104.985 37.6435 104.834 37.9694 104.534C38.2994 104.229 38.4645 103.804 38.4645 103.258V102.649L37.5631 102.687C36.8606 102.712 36.3486 102.831 36.027 103.042C35.7096 103.25 35.5509 103.569 35.5509 104.001C35.5509 104.314 35.644 104.557 35.8302 104.731C36.0164 104.9 36.2957 104.985 36.6681 104.985ZM37.1378 98.1228C36.4734 98.1228 35.9487 97.9556 35.5636 97.6213C35.1827 97.2828 34.9754 96.8088 34.9415 96.1995H35.8112C35.8323 96.4026 35.8894 96.5655 35.9825 96.6882C36.0756 96.8067 36.2068 96.8914 36.3761 96.9421C36.5496 96.9929 36.812 97.0183 37.1632 97.0183C37.6075 97.0183 37.9355 96.9485 38.1471 96.8088C38.3629 96.6692 38.4856 96.4661 38.5153 96.1995H39.4039C39.3532 96.7961 39.1246 97.2659 38.7184 97.6086C38.3121 97.9514 37.7853 98.1228 37.1378 98.1228ZM36.1349 107.663C36.1349 107.397 36.2068 107.191 36.3507 107.048C36.4988 106.904 36.7083 106.832 36.9791 106.832C37.25 106.832 37.4552 106.904 37.5949 107.048C37.7387 107.196 37.8107 107.401 37.8107 107.663C37.8107 107.913 37.7387 108.112 37.5949 108.26C37.451 108.408 37.2457 108.482 36.9791 108.482C36.7083 108.482 36.4988 108.408 36.3507 108.26C36.2068 108.116 36.1349 107.917 36.1349 107.663ZM44.5754 104.921C44.9394 104.921 45.3033 104.864 45.6672 104.75V105.873C45.5022 105.945 45.2885 106.004 45.0261 106.051C44.768 106.102 44.4993 106.127 44.22 106.127C42.8066 106.127 42.0999 105.382 42.0999 103.893V100.11H41.1414V99.4495L42.1697 98.9036L42.6775 97.4182H43.5979V98.9797H45.5974V100.11H43.5979V103.867C43.5979 104.227 43.6868 104.494 43.8645 104.667C44.0465 104.837 44.2835 104.921 44.5754 104.921ZM51.7891 106H50.2974V96.1233H51.7891V106ZM55.3419 106H53.8502V98.9797H55.3419V106ZM53.7614 97.1199C53.7614 96.8533 53.8333 96.648 53.9772 96.5042C54.1253 96.3603 54.3348 96.2883 54.6056 96.2883C54.868 96.2883 55.0711 96.3603 55.215 96.5042C55.3631 96.648 55.4371 96.8533 55.4371 97.1199C55.4371 97.3738 55.3631 97.5748 55.215 97.7229C55.0711 97.8668 54.868 97.9387 54.6056 97.9387C54.3348 97.9387 54.1253 97.8668 53.9772 97.7229C53.8333 97.5748 53.7614 97.3738 53.7614 97.1199ZM53.7423 107.663C53.7423 107.397 53.8143 107.191 53.9581 107.048C54.1063 106.904 54.3157 106.832 54.5866 106.832C54.8574 106.832 55.0626 106.904 55.2023 107.048C55.3462 107.196 55.4181 107.401 55.4181 107.663C55.4181 107.913 55.3462 108.112 55.2023 108.26C55.0584 108.408 54.8532 108.482 54.5866 108.482C54.3157 108.482 54.1063 108.408 53.9581 108.26C53.8143 108.116 53.7423 107.917 53.7423 107.663ZM60.2341 106.127C59.172 106.127 58.3637 105.818 57.8093 105.2C57.2592 104.578 56.9841 103.688 56.9841 102.528C56.9841 101.347 57.2719 100.44 57.8474 99.8049C58.4272 99.1702 59.263 98.8528 60.3548 98.8528C61.0953 98.8528 61.7618 98.9903 62.3543 99.2654L61.9036 100.465C61.273 100.22 60.7525 100.097 60.3421 100.097C59.1275 100.097 58.5203 100.903 58.5203 102.515C58.5203 103.302 58.6705 103.895 58.971 104.293C59.2757 104.686 59.72 104.883 60.304 104.883C60.9684 104.883 61.5968 104.718 62.1892 104.388V105.689C61.9226 105.846 61.637 105.958 61.3323 106.026C61.0318 106.093 60.6658 106.127 60.2341 106.127ZM69.9379 106H68.4398V101.684C68.4398 101.142 68.3298 100.738 68.1098 100.471C67.8939 100.205 67.5491 100.072 67.0751 100.072C66.4488 100.072 65.9875 100.26 65.6913 100.636C65.3993 101.009 65.2533 101.635 65.2533 102.515V106H63.7616V96.1233H65.2533V98.6306C65.2533 99.0326 65.2279 99.4622 65.1771 99.9192H65.2724C65.4755 99.5806 65.7569 99.3183 66.1166 99.1321C66.4805 98.9459 66.9037 98.8528 67.3861 98.8528C69.0873 98.8528 69.9379 99.7097 69.9379 101.424V106ZM76.6754 102.293L77.5197 101.24L79.6398 98.9797H81.36L78.5353 101.995L81.5377 106H79.7858L77.5324 102.922L76.7135 103.594V106H75.2345V96.1233H76.7135V100.941L76.6374 102.293H76.6754ZM88.7722 106H87.2742V101.684C87.2742 101.142 87.1642 100.738 86.9441 100.471C86.7283 100.205 86.3834 100.072 85.9095 100.072C85.2832 100.072 84.8219 100.26 84.5257 100.636C84.2337 101.009 84.0877 101.635 84.0877 102.515V106H82.596V96.1233H84.0877V98.6306C84.0877 99.0326 84.0623 99.4622 84.0115 99.9192H84.1067C84.3098 99.5806 84.5913 99.3183 84.951 99.1321C85.3149 98.9459 85.7381 98.8528 86.2205 98.8528C87.9217 98.8528 88.7722 99.7097 88.7722 101.424V106ZM95.1625 106L94.8642 105.023H94.8134C94.4748 105.45 94.1342 105.742 93.7914 105.899C93.4486 106.051 93.0085 106.127 92.4711 106.127C91.7813 106.127 91.2418 105.941 90.8524 105.569C90.4674 105.196 90.2748 104.669 90.2748 103.988C90.2748 103.264 90.5435 102.719 91.081 102.35C91.6184 101.982 92.4372 101.781 93.5375 101.747L94.7499 101.709V101.335C94.7499 100.886 94.6441 100.552 94.4325 100.332C94.2252 100.108 93.9014 99.9954 93.4613 99.9954C93.1016 99.9954 92.7567 100.048 92.4267 100.154C92.0966 100.26 91.7792 100.385 91.4745 100.529L90.9921 99.4622C91.373 99.2633 91.7898 99.113 92.2426 99.0115C92.6954 98.9057 93.1228 98.8528 93.5248 98.8528C94.4177 98.8528 95.0906 99.0474 95.5434 99.4368C96.0004 99.8261 96.2289 100.438 96.2289 101.271V106H95.1625ZM92.9408 104.985C93.4825 104.985 93.9162 104.834 94.2421 104.534C94.5722 104.229 94.7372 103.804 94.7372 103.258V102.649L93.8358 102.687C93.1334 102.712 92.6213 102.831 92.2997 103.042C91.9823 103.25 91.8236 103.569 91.8236 104.001C91.8236 104.314 91.9167 104.557 92.1029 104.731C92.2891 104.9 92.5684 104.985 92.9408 104.985ZM92.4838 98.1228V97.9641C92.725 97.6679 92.9726 97.3378 93.2265 96.9739C93.4846 96.6099 93.6877 96.2989 93.8358 96.0408H95.5688V96.1741C95.3487 96.4322 95.0186 96.7665 94.5785 97.177C94.1426 97.5833 93.7745 97.8985 93.474 98.1228H92.4838ZM104.149 106H102.651V101.671C102.651 101.134 102.549 100.734 102.346 100.471C102.143 100.205 101.826 100.072 101.394 100.072C100.819 100.072 100.395 100.26 100.125 100.636C99.8579 101.009 99.7246 101.631 99.7246 102.503V106H98.2329V98.9797H99.4009L99.6104 99.9001H99.6866C99.8812 99.5658 100.163 99.3077 100.531 99.1257C100.903 98.9438 101.312 98.8528 101.756 98.8528C102.835 98.8528 103.55 99.2209 103.901 99.9573H104.003C104.21 99.6103 104.502 99.3394 104.879 99.1448C105.256 98.9501 105.687 98.8528 106.174 98.8528C107.012 98.8528 107.621 99.0644 108.002 99.4875C108.387 99.9107 108.58 100.556 108.58 101.424V106H107.088V101.671C107.088 101.134 106.984 100.734 106.777 100.471C106.574 100.205 106.256 100.072 105.825 100.072C105.245 100.072 104.82 100.253 104.549 100.617C104.282 100.977 104.149 101.531 104.149 102.281V106ZM119.811 98.9797V99.7986L118.612 100.021C118.722 100.169 118.813 100.351 118.885 100.567C118.956 100.782 118.992 101.011 118.992 101.252C118.992 101.976 118.743 102.545 118.243 102.96C117.744 103.374 117.056 103.582 116.18 103.582C115.956 103.582 115.753 103.565 115.571 103.531C115.249 103.73 115.089 103.963 115.089 104.229C115.089 104.39 115.163 104.511 115.311 104.591C115.463 104.671 115.74 104.712 116.142 104.712H117.367C118.142 104.712 118.73 104.877 119.132 105.207C119.534 105.537 119.735 106.013 119.735 106.635C119.735 107.431 119.407 108.044 118.751 108.476C118.095 108.907 117.147 109.123 115.908 109.123C114.951 109.123 114.221 108.954 113.718 108.615C113.214 108.277 112.962 107.795 112.962 107.168C112.962 106.737 113.098 106.373 113.368 106.076C113.644 105.784 114.026 105.581 114.517 105.467C114.318 105.382 114.153 105.247 114.022 105.061C113.895 104.87 113.832 104.671 113.832 104.464C113.832 104.202 113.906 103.98 114.054 103.798C114.202 103.616 114.422 103.436 114.714 103.258C114.35 103.101 114.054 102.848 113.825 102.496C113.601 102.141 113.489 101.726 113.489 101.252C113.489 100.49 113.728 99.9001 114.206 99.4812C114.689 99.0623 115.374 98.8528 116.263 98.8528C116.462 98.8528 116.669 98.8676 116.885 98.8972C117.105 98.9226 117.27 98.9501 117.38 98.9797H119.811ZM114.295 107.092C114.295 107.414 114.439 107.661 114.727 107.835C115.019 108.008 115.427 108.095 115.952 108.095C116.764 108.095 117.37 107.979 117.767 107.746C118.165 107.513 118.364 107.204 118.364 106.819C118.364 106.514 118.254 106.296 118.034 106.165C117.818 106.038 117.414 105.975 116.822 105.975H115.692C115.264 105.975 114.924 106.074 114.67 106.273C114.42 106.476 114.295 106.749 114.295 107.092ZM114.936 101.252C114.936 101.692 115.048 102.031 115.273 102.268C115.501 102.505 115.827 102.623 116.25 102.623C117.114 102.623 117.545 102.162 117.545 101.24C117.545 100.782 117.437 100.431 117.221 100.186C117.01 99.9361 116.686 99.8113 116.25 99.8113C115.819 99.8113 115.491 99.934 115.266 100.179C115.046 100.425 114.936 100.782 114.936 101.252ZM122.533 106H121.041V98.9797H122.533V106ZM120.952 97.1199C120.952 96.8533 121.024 96.648 121.168 96.5042C121.316 96.3603 121.525 96.2883 121.796 96.2883C122.059 96.2883 122.262 96.3603 122.406 96.5042C122.554 96.648 122.628 96.8533 122.628 97.1199C122.628 97.3738 122.554 97.5748 122.406 97.7229C122.262 97.8668 122.059 97.9387 121.796 97.9387C121.525 97.9387 121.316 97.8668 121.168 97.7229C121.024 97.5748 120.952 97.3738 120.952 97.1199ZM129.545 106L129.335 105.08H129.247C129.039 105.406 128.747 105.662 128.371 105.848C127.998 106.034 127.567 106.127 127.076 106.127C126.221 106.127 125.582 105.916 125.159 105.492C124.74 105.069 124.53 104.428 124.53 103.569V98.9797H126.035V103.309C126.035 103.846 126.145 104.25 126.365 104.521C126.585 104.788 126.93 104.921 127.399 104.921C128.026 104.921 128.485 104.735 128.777 104.363C129.073 103.986 129.221 103.358 129.221 102.477V98.9797H130.719V99.7351C131.054 99.6589 131.299 99.4727 131.456 99.1765C131.612 98.8761 131.69 98.4508 131.69 97.9006H133.214L133.303 98.0466C133.184 98.6602 133.021 99.1384 132.814 99.4812C132.607 99.8197 132.329 100.095 131.982 100.306C131.64 100.514 131.219 100.647 130.719 100.706V106H129.545ZM128.612 98.1228C128.434 98.1228 128.259 98.0868 128.085 98.0149C127.916 97.9387 127.749 97.8562 127.584 97.7673C127.419 97.6742 127.258 97.5917 127.101 97.5198C126.945 97.4436 126.794 97.4055 126.65 97.4055C126.308 97.4055 126.077 97.6488 125.959 98.1355H125.184C125.235 97.5473 125.398 97.0987 125.673 96.7898C125.952 96.4809 126.308 96.3264 126.739 96.3264C126.921 96.3264 127.099 96.3645 127.273 96.4407C127.446 96.5126 127.615 96.5951 127.78 96.6882C127.945 96.7771 128.104 96.8596 128.256 96.9358C128.413 97.0077 128.563 97.0437 128.707 97.0437C129.041 97.0437 129.266 96.8004 129.38 96.3137H130.173C130.123 96.8808 129.96 97.3251 129.685 97.6467C129.41 97.9641 129.052 98.1228 128.612 98.1228ZM139.901 106.127C138.839 106.127 138.03 105.818 137.476 105.2C136.926 104.578 136.651 103.688 136.651 102.528C136.651 101.347 136.938 100.44 137.514 99.8049C138.094 99.1702 138.929 98.8528 140.021 98.8528C140.762 98.8528 141.428 98.9903 142.021 99.2654L141.57 100.465C140.94 100.22 140.419 100.097 140.009 100.097C138.794 100.097 138.187 100.903 138.187 102.515C138.187 103.302 138.337 103.895 138.638 104.293C138.942 104.686 139.387 104.883 139.971 104.883C140.635 104.883 141.263 104.718 141.856 104.388V105.689C141.589 105.846 141.304 105.958 140.999 106.026C140.698 106.093 140.332 106.127 139.901 106.127ZM149.604 106H148.106V101.684C148.106 101.142 147.996 100.738 147.776 100.471C147.56 100.205 147.216 100.072 146.742 100.072C146.115 100.072 145.654 100.26 145.358 100.636C145.066 101.009 144.92 101.635 144.92 102.515V106H143.428V96.1233H144.92V98.6306C144.92 99.0326 144.894 99.4622 144.844 99.9192H144.939C145.142 99.5806 145.423 99.3183 145.783 99.1321C146.147 98.9459 146.57 98.8528 147.053 98.8528C148.754 98.8528 149.604 99.7097 149.604 101.424V106ZM157.829 102.477C157.829 103.624 157.535 104.519 156.947 105.162C156.359 105.806 155.54 106.127 154.49 106.127C153.834 106.127 153.255 105.979 152.751 105.683C152.247 105.387 151.86 104.961 151.589 104.407C151.319 103.853 151.183 103.209 151.183 102.477C151.183 101.339 151.475 100.45 152.059 99.8113C152.643 99.1723 153.466 98.8528 154.528 98.8528C155.544 98.8528 156.348 99.1807 156.94 99.8367C157.533 100.488 157.829 101.369 157.829 102.477ZM152.719 102.477C152.719 104.098 153.318 104.908 154.516 104.908C155.701 104.908 156.293 104.098 156.293 102.477C156.293 100.873 155.696 100.072 154.503 100.072C153.877 100.072 153.422 100.279 153.138 100.694C152.859 101.108 152.719 101.703 152.719 102.477ZM155.398 95.99C155.246 95.99 155.091 95.9625 154.935 95.9075C154.782 95.8482 154.632 95.7847 154.484 95.717C154.34 95.6451 154.198 95.5795 154.059 95.5203C153.919 95.461 153.79 95.4314 153.671 95.4314C153.502 95.4314 153.373 95.4758 153.284 95.5647C153.195 95.6493 153.121 95.7953 153.062 96.0027H152.421C152.455 95.5668 152.58 95.2135 152.795 94.9426C153.016 94.6718 153.299 94.5364 153.646 94.5364C153.803 94.5364 153.959 94.566 154.116 94.6252C154.277 94.6845 154.431 94.7501 154.579 94.822C154.727 94.894 154.869 94.9596 155.004 95.0188C155.14 95.078 155.263 95.1077 155.373 95.1077C155.542 95.1077 155.671 95.0632 155.76 94.9744C155.849 94.8813 155.923 94.731 155.982 94.5237H156.623C156.577 94.9807 156.443 95.3404 156.223 95.6028C156.007 95.8609 155.732 95.99 155.398 95.99ZM156.661 98.1228H155.919C155.402 97.8308 154.935 97.4965 154.516 97.1199C154.131 97.4626 153.663 97.797 153.113 98.1228H152.357V97.9641C153.073 97.2236 153.553 96.6734 153.798 96.3137H155.233C155.516 96.72 155.993 97.2701 156.661 97.9641V98.1228ZM165.386 104.921C165.749 104.921 166.113 104.864 166.477 104.75V105.873C166.312 105.945 166.099 106.004 165.836 106.051C165.578 106.102 165.309 106.127 165.03 106.127C163.617 106.127 162.91 105.382 162.91 103.893V100.11H161.951V99.4495L162.98 98.9036L163.488 97.4182H164.408V98.9797H166.408V100.11H164.408V103.867C164.408 104.227 164.497 104.494 164.675 104.667C164.857 104.837 165.094 104.921 165.386 104.921ZM171.37 98.8528C171.67 98.8528 171.918 98.8739 172.112 98.9163L171.966 100.306C171.755 100.256 171.535 100.23 171.306 100.23C170.709 100.23 170.225 100.425 169.852 100.814C169.484 101.204 169.3 101.709 169.3 102.331V106H167.809V98.9797H168.977L169.173 100.218H169.249C169.482 99.7986 169.785 99.4664 170.157 99.2209C170.534 98.9755 170.938 98.8528 171.37 98.8528ZM178.293 106L178.084 105.08H177.995C177.787 105.406 177.495 105.662 177.119 105.848C176.746 106.034 176.315 106.127 175.824 106.127C174.969 106.127 174.33 105.916 173.907 105.492C173.488 105.069 173.278 104.428 173.278 103.569V98.9797H174.783V103.309C174.783 103.846 174.893 104.25 175.113 104.521C175.333 104.788 175.678 104.921 176.148 104.921C176.774 104.921 177.233 104.735 177.525 104.363C177.821 103.986 177.969 103.358 177.969 102.477V98.9797H179.467V99.7351C179.802 99.6589 180.047 99.4727 180.204 99.1765C180.36 98.8761 180.439 98.4508 180.439 97.9006H181.962L182.051 98.0466C181.932 98.6602 181.769 99.1384 181.562 99.4812C181.355 99.8197 181.078 100.095 180.731 100.306C180.388 100.514 179.967 100.647 179.467 100.706V106H178.293ZM188.746 102.477C188.746 103.624 188.452 104.519 187.863 105.162C187.275 105.806 186.456 106.127 185.407 106.127C184.751 106.127 184.171 105.979 183.668 105.683C183.164 105.387 182.777 104.961 182.506 104.407C182.235 103.853 182.1 103.209 182.1 102.477C182.1 101.339 182.392 100.45 182.976 99.8113C183.56 99.1723 184.383 98.8528 185.445 98.8528C185.906 98.8528 186.338 98.929 186.74 99.0813C187.142 99.2294 187.489 99.4473 187.781 99.7351C188.081 99.6462 188.306 99.4643 188.454 99.1892C188.606 98.9099 188.682 98.4846 188.682 97.9133H190.212L190.307 98.0593C190.151 98.8168 189.918 99.386 189.609 99.7668C189.304 100.143 188.885 100.41 188.352 100.567C188.615 101.138 188.746 101.775 188.746 102.477ZM183.636 102.477C183.636 103.277 183.778 103.882 184.061 104.293C184.345 104.703 184.802 104.908 185.432 104.908C186.054 104.908 186.505 104.703 186.784 104.293C187.068 103.882 187.21 103.277 187.21 102.477C187.21 101.686 187.068 101.087 186.784 100.681C186.501 100.275 186.046 100.072 185.42 100.072C184.793 100.072 184.338 100.275 184.055 100.681C183.776 101.087 183.636 101.686 183.636 102.477ZM184.493 98.1228V97.9641C184.734 97.6679 184.982 97.3378 185.236 96.9739C185.494 96.6099 185.697 96.2989 185.845 96.0408H187.578V96.1741C187.358 96.4322 187.028 96.7665 186.588 97.177C186.152 97.5833 185.784 97.8985 185.483 98.1228H184.493ZM193.651 106.127C192.589 106.127 191.78 105.818 191.226 105.2C190.676 104.578 190.401 103.688 190.401 102.528C190.401 101.347 190.688 100.44 191.264 99.8049C191.844 99.1702 192.68 98.8528 193.771 98.8528C194.512 98.8528 195.178 98.9903 195.771 99.2654L195.32 100.465C194.69 100.22 194.169 100.097 193.759 100.097C192.544 100.097 191.937 100.903 191.937 102.515C191.937 103.302 192.087 103.895 192.388 104.293C192.692 104.686 193.137 104.883 193.721 104.883C194.385 104.883 195.013 104.718 195.606 104.388V105.689C195.339 105.846 195.054 105.958 194.749 106.026C194.448 106.093 194.082 106.127 193.651 106.127ZM201.918 102.293L202.762 101.24L204.882 98.9797H206.603L203.778 101.995L206.78 106H205.028L202.775 102.922L201.956 103.594V106H200.477V96.1233H201.956V100.941L201.88 102.293H201.918ZM214.015 106H212.517V101.684C212.517 101.142 212.407 100.738 212.187 100.471C211.971 100.205 211.626 100.072 211.152 100.072C210.526 100.072 210.065 100.26 209.768 100.636C209.476 101.009 209.33 101.635 209.33 102.515V106H207.839V96.1233H209.33V98.6306C209.33 99.0326 209.305 99.4622 209.254 99.9192H209.349C209.552 99.5806 209.834 99.3183 210.194 99.1321C210.558 98.9459 210.981 98.8528 211.463 98.8528C213.164 98.8528 214.015 99.7097 214.015 101.424V106ZM217.504 106H216.013V98.9797H217.504V106ZM215.924 97.1199C215.924 96.8533 215.996 96.648 216.139 96.5042C216.288 96.3603 216.497 96.2883 216.768 96.2883C217.03 96.2883 217.233 96.3603 217.377 96.5042C217.525 96.648 217.599 96.8533 217.599 97.1199C217.599 97.3738 217.525 97.5748 217.377 97.7229C217.233 97.8668 217.03 97.9387 216.768 97.9387C216.497 97.9387 216.288 97.8668 216.139 97.7229C215.996 97.5748 215.924 97.3738 215.924 97.1199ZM27.4087 124.127C26.5369 124.127 25.8577 123.816 25.3711 123.194C24.8887 122.568 24.6475 121.705 24.6475 120.604C24.6475 119.432 24.8802 118.545 25.3457 117.945C25.8154 117.344 26.5116 117.043 27.4341 117.043C28.3735 117.043 29.0845 117.386 29.5669 118.072H29.6431C29.6304 118.029 29.6092 117.862 29.5796 117.57C29.55 117.278 29.5352 117.039 29.5352 116.853V116.262H27.104V115.228H29.5352V114.123H31.0332V115.228H32.0234V116.262H31.0332V124H29.8081L29.5352 123.08H29.4717C29.0146 123.778 28.327 124.127 27.4087 124.127ZM27.8721 122.921C28.473 122.921 28.911 122.754 29.186 122.42C29.4653 122.081 29.605 121.546 29.605 120.814V120.604C29.605 119.741 29.4674 119.136 29.1924 118.789C28.9215 118.442 28.4645 118.268 27.8213 118.268C27.2923 118.268 26.8966 118.457 26.6343 118.833C26.3761 119.206 26.2471 119.802 26.2471 120.623C26.2471 122.155 26.7887 122.921 27.8721 122.921ZM36.2555 124.127C35.1637 124.127 34.3089 123.81 33.691 123.175C33.0774 122.536 32.7706 121.658 32.7706 120.541C32.7706 119.394 33.0563 118.493 33.6276 117.837C34.1989 117.181 34.9838 116.853 35.9825 116.853C36.9093 116.853 37.6414 117.134 38.1788 117.697C38.7163 118.26 38.985 119.034 38.985 120.02V120.826H34.3068C34.3279 121.508 34.512 122.032 34.859 122.401C35.206 122.765 35.6948 122.947 36.3253 122.947C36.74 122.947 37.1251 122.908 37.4806 122.832C37.8403 122.752 38.2254 122.621 38.6359 122.439V123.651C38.2719 123.825 37.9038 123.947 37.5314 124.019C37.159 124.091 36.7337 124.127 36.2555 124.127ZM35.9825 117.983C35.5086 117.983 35.1277 118.133 34.84 118.433C34.5564 118.734 34.3872 119.172 34.3322 119.747H37.5187C37.5102 119.168 37.3706 118.73 37.0997 118.433C36.8289 118.133 36.4565 117.983 35.9825 117.983ZM38.1154 116.123H37.3092C36.8352 115.805 36.3888 115.454 35.9699 115.069C35.4874 115.497 35.041 115.848 34.6305 116.123H33.8116V115.964C34.4718 115.198 34.931 114.627 35.1891 114.25H36.7506C37.123 114.792 37.5779 115.363 38.1154 115.964V116.123ZM37.5822 114.733C37.9334 114.314 38.2148 113.884 38.4264 113.444H39.7404V113.577C39.4484 113.967 38.9935 114.403 38.3756 114.885H37.5822V114.733ZM46.7781 124H45.28V119.684C45.28 119.142 45.17 118.738 44.95 118.471C44.7341 118.205 44.3892 118.072 43.9153 118.072C43.2848 118.072 42.8235 118.258 42.5315 118.63C42.2395 119.003 42.0935 119.627 42.0935 120.503V124H40.6018V116.98H41.7698L41.9793 117.9H42.0554C42.267 117.566 42.5675 117.308 42.9568 117.126C43.3461 116.944 43.7778 116.853 44.2517 116.853C45.936 116.853 46.7781 117.71 46.7781 119.424V124ZM53.5156 120.293L54.3599 119.24L56.48 116.98H58.2002L55.3755 119.995L58.3779 124H56.626L54.3726 120.922L53.5537 121.594V124H52.0747V114.123H53.5537V118.941L53.4776 120.293H53.5156ZM65.6124 124H64.1144V119.684C64.1144 119.142 64.0044 118.738 63.7843 118.471C63.5685 118.205 63.2236 118.072 62.7496 118.072C62.1233 118.072 61.6621 118.26 61.3659 118.636C61.0739 119.009 60.9279 119.635 60.9279 120.515V124H59.4362V114.123H60.9279V116.631C60.9279 117.033 60.9025 117.462 60.8517 117.919H60.9469C61.15 117.581 61.4315 117.318 61.7912 117.132C62.1551 116.946 62.5783 116.853 63.0607 116.853C64.7619 116.853 65.6124 117.71 65.6124 119.424V124ZM72.0027 124L71.7044 123.023H71.6536C71.315 123.45 70.9744 123.742 70.6316 123.899C70.2888 124.051 69.8487 124.127 69.3113 124.127C68.6215 124.127 68.082 123.941 67.6926 123.569C67.3076 123.196 67.115 122.669 67.115 121.988C67.115 121.264 67.3837 120.719 67.9212 120.35C68.4586 119.982 69.2774 119.781 70.3777 119.747L71.5901 119.709V119.335C71.5901 118.886 71.4843 118.552 71.2727 118.332C71.0654 118.108 70.7416 117.995 70.3015 117.995C69.9418 117.995 69.5969 118.048 69.2669 118.154C68.9368 118.26 68.6194 118.385 68.3147 118.529L67.8323 117.462C68.2132 117.263 68.63 117.113 69.0828 117.011C69.5356 116.906 69.963 116.853 70.365 116.853C71.2579 116.853 71.9308 117.047 72.3836 117.437C72.8406 117.826 73.0691 118.438 73.0691 119.271V124H72.0027ZM69.781 122.985C70.3227 122.985 70.7564 122.834 71.0823 122.534C71.4124 122.229 71.5774 121.804 71.5774 121.258V120.649L70.676 120.687C69.9736 120.712 69.4615 120.831 69.1399 121.042C68.8225 121.25 68.6638 121.569 68.6638 122.001C68.6638 122.314 68.7569 122.557 68.9431 122.731C69.1293 122.9 69.4086 122.985 69.781 122.985ZM69.324 116.123V115.964C69.5652 115.668 69.8128 115.338 70.0667 114.974C70.3248 114.61 70.5279 114.299 70.676 114.041H72.409V114.174C72.1889 114.432 71.8588 114.767 71.4187 115.177C70.9828 115.583 70.6147 115.899 70.3142 116.123H69.324ZM80.9892 124H79.4911V119.671C79.4911 119.134 79.3895 118.734 79.1864 118.471C78.9833 118.205 78.6659 118.072 78.2343 118.072C77.6588 118.072 77.2356 118.26 76.9647 118.636C76.6981 119.009 76.5648 119.631 76.5648 120.503V124H75.0731V116.98H76.2411L76.4506 117.9H76.5268C76.7214 117.566 77.0028 117.308 77.371 117.126C77.7434 116.944 78.1518 116.853 78.5961 116.853C79.6752 116.853 80.3904 117.221 80.7416 117.957H80.8432C81.0505 117.61 81.3425 117.339 81.7191 117.145C82.0958 116.95 82.5274 116.853 83.0141 116.853C83.8519 116.853 84.4613 117.064 84.8422 117.488C85.2273 117.911 85.4198 118.556 85.4198 119.424V124H83.9281V119.671C83.9281 119.134 83.8244 118.734 83.6171 118.471C83.414 118.205 83.0966 118.072 82.6649 118.072C82.0852 118.072 81.6599 118.253 81.3891 118.617C81.1225 118.977 80.9892 119.531 80.9892 120.281V124ZM93.338 122.921C93.702 122.921 94.0659 122.864 94.4298 122.75V123.873C94.2648 123.945 94.0511 124.004 93.7887 124.051C93.5306 124.102 93.2619 124.127 92.9826 124.127C91.5692 124.127 90.8624 123.382 90.8624 121.893V118.11H89.904V117.449L90.9323 116.904L91.4401 115.418H92.3605V116.98H94.36V118.11H92.3605V121.867C92.3605 122.227 92.4494 122.494 92.6271 122.667C92.8091 122.837 93.046 122.921 93.338 122.921ZM100.154 124L99.8553 123.023H99.8045C99.4659 123.45 99.1253 123.742 98.7825 123.899C98.4397 124.051 97.9996 124.127 97.4622 124.127C96.7724 124.127 96.2329 123.941 95.8435 123.569C95.4584 123.196 95.2659 122.669 95.2659 121.988C95.2659 121.264 95.5346 120.719 96.0721 120.35C96.6095 119.982 97.4283 119.781 98.5286 119.747L99.741 119.709V119.335C99.741 118.886 99.6352 118.552 99.4236 118.332C99.2163 118.108 98.8925 117.995 98.4524 117.995C98.0927 117.995 97.7478 118.048 97.4178 118.154C97.0877 118.26 96.7703 118.385 96.4656 118.529L95.9832 117.462C96.364 117.263 96.7809 117.113 97.2337 117.011C97.6865 116.906 98.1139 116.853 98.5159 116.853C99.4088 116.853 100.082 117.047 100.534 117.437C100.991 117.826 101.22 118.438 101.22 119.271V124H100.154ZM97.9319 122.985C98.4736 122.985 98.9073 122.834 99.2332 122.534C99.5633 122.229 99.7283 121.804 99.7283 121.258V120.649L98.8269 120.687C98.1245 120.712 97.6124 120.831 97.2908 121.042C96.9734 121.25 96.8147 121.569 96.8147 122.001C96.8147 122.314 96.9078 122.557 97.094 122.731C97.2802 122.9 97.5595 122.985 97.9319 122.985ZM97.3987 125.663C97.3987 125.397 97.4707 125.191 97.6145 125.048C97.7626 124.904 97.9721 124.832 98.243 124.832C98.5138 124.832 98.719 124.904 98.8587 125.048C99.0026 125.196 99.0745 125.401 99.0745 125.663C99.0745 125.913 99.0026 126.112 98.8587 126.26C98.7148 126.408 98.5096 126.482 98.243 126.482C97.9721 126.482 97.7626 126.408 97.6145 126.26C97.4707 126.116 97.3987 125.917 97.3987 125.663ZM104.716 124H103.224V116.98H104.716V124ZM103.135 115.12C103.135 114.853 103.207 114.648 103.351 114.504C103.499 114.36 103.709 114.288 103.979 114.288C104.242 114.288 104.445 114.36 104.589 114.504C104.737 114.648 104.811 114.853 104.811 115.12C104.811 115.374 104.737 115.575 104.589 115.723C104.445 115.867 104.242 115.939 103.979 115.939C103.709 115.939 103.499 115.867 103.351 115.723C103.207 115.575 103.135 115.374 103.135 115.12ZM114.183 115.888C113.311 115.888 112.625 116.197 112.126 116.815C111.627 117.433 111.377 118.285 111.377 119.373C111.377 120.511 111.616 121.372 112.094 121.956C112.577 122.54 113.273 122.832 114.183 122.832C114.576 122.832 114.957 122.794 115.325 122.718C115.694 122.638 116.076 122.536 116.474 122.413V123.715C115.746 123.99 114.921 124.127 113.999 124.127C112.64 124.127 111.597 123.717 110.869 122.896C110.141 122.071 109.778 120.892 109.778 119.36C109.778 118.395 109.953 117.551 110.304 116.827C110.66 116.104 111.172 115.549 111.84 115.164C112.509 114.779 113.294 114.587 114.195 114.587C115.143 114.587 116.019 114.786 116.823 115.183L116.278 116.447C115.964 116.298 115.632 116.169 115.281 116.059C114.934 115.945 114.568 115.888 114.183 115.888ZM123.747 121.48C123.747 122.305 123.449 122.953 122.852 123.423C122.255 123.892 121.432 124.127 120.383 124.127C119.333 124.127 118.474 123.964 117.805 123.638V122.204C118.229 122.403 118.677 122.559 119.151 122.674C119.629 122.788 120.074 122.845 120.484 122.845C121.085 122.845 121.527 122.731 121.811 122.502C122.099 122.274 122.242 121.967 122.242 121.582C122.242 121.235 122.111 120.941 121.849 120.699C121.587 120.458 121.045 120.173 120.224 119.843C119.378 119.5 118.781 119.108 118.434 118.668C118.087 118.228 117.913 117.699 117.913 117.081C117.913 116.307 118.188 115.698 118.739 115.253C119.289 114.809 120.027 114.587 120.954 114.587C121.843 114.587 122.727 114.781 123.607 115.171L123.125 116.408C122.3 116.061 121.563 115.888 120.916 115.888C120.425 115.888 120.053 115.996 119.799 116.212C119.545 116.423 119.418 116.705 119.418 117.056C119.418 117.297 119.469 117.504 119.57 117.678C119.672 117.847 119.839 118.008 120.072 118.16C120.304 118.313 120.723 118.514 121.328 118.763C122.01 119.047 122.509 119.311 122.826 119.557C123.144 119.802 123.377 120.08 123.525 120.388C123.673 120.697 123.747 121.061 123.747 121.48ZM128.087 118.954L130.283 114.72H131.934L128.842 120.401V124H127.319V120.452L124.24 114.72H125.891L128.087 118.954ZM136.286 124H134.769V116.021H132.04V114.72H139.016V116.021H136.286V124Z" fill="white"/>
<path d="M24.459 62.6995H25.7969V56.7229H30.2793C32.61 56.7229 34.4199 57.3381 35.709 58.5686C36.998 59.7991 37.6426 61.5178 37.6426 63.7249C37.6426 66.0751 36.972 67.8752 35.6309 69.1252C34.2962 70.3752 32.3659 71.0002 29.8398 71.0002H25.7969V65.1799H24.459V62.6995ZM34.498 63.803C34.498 62.2926 34.1595 61.15 33.4824 60.3752C32.8053 59.594 31.7832 59.2034 30.416 59.2034H28.8242V62.6995H31.1387V65.1799H28.8242V68.5002H30.1035C33.0332 68.5002 34.498 66.9345 34.498 63.803ZM49.3418 71.0002L48.3066 67.6018H43.1016L42.0664 71.0002H38.8047L43.8438 56.6643H47.5449L52.6035 71.0002H49.3418ZM47.584 65.0627C46.627 61.9833 46.0866 60.2418 45.9629 59.8381C45.8457 59.4345 45.7611 59.1155 45.709 58.8811C45.4941 59.7144 44.8789 61.775 43.8633 65.0627H47.584ZM49.5469 52.2795C49.4688 53.2821 49.0716 54.0829 48.3555 54.6819C47.6393 55.2808 46.7409 55.5803 45.6602 55.5803C44.5273 55.5803 43.6224 55.2841 42.9453 54.6917C42.2747 54.0992 41.9134 53.2952 41.8613 52.2795H43.5215C43.5475 52.5855 43.6354 52.8264 43.7852 53.0022C43.9414 53.178 44.1562 53.3049 44.4297 53.3831C44.7096 53.4612 45.1263 53.5002 45.6797 53.5002C47.0208 53.5002 47.7435 53.0933 47.8477 52.2795H49.5469ZM44.0879 73.7444C44.0879 72.7678 44.6283 72.2795 45.709 72.2795C46.7897 72.2795 47.3301 72.7678 47.3301 73.7444C47.3301 74.2066 47.1934 74.5647 46.9199 74.8186C46.6465 75.0725 46.2428 75.1995 45.709 75.1995C44.6283 75.1995 44.0879 74.7144 44.0879 73.7444ZM59.918 71.0002H56.8906V59.2424H53.0137V56.7229H63.7949V59.2424H59.918V71.0002ZM71.1875 71.0002V56.7229H74.2148V68.5002H80.0059V71.0002H71.1875ZM82.4961 71.0002V56.7229H85.5234V71.0002H82.4961ZM82.3789 73.7444C82.3789 72.7678 82.9193 72.2795 84 72.2795C85.0807 72.2795 85.6211 72.7678 85.6211 73.7444C85.6211 74.2066 85.4844 74.5647 85.2109 74.8186C84.9375 75.0725 84.5339 75.1995 84 75.1995C82.9193 75.1995 82.3789 74.7144 82.3789 73.7444ZM95.1816 59.0374C94.0423 59.0374 93.1602 59.467 92.5352 60.3264C91.9102 61.1793 91.5977 62.3707 91.5977 63.9006C91.5977 67.0842 92.7923 68.676 95.1816 68.676C96.1842 68.676 97.3984 68.4254 98.8242 67.9241V70.4631C97.6523 70.9514 96.3438 71.1956 94.8984 71.1956C92.8216 71.1956 91.2331 70.5673 90.1328 69.3108C89.0326 68.0478 88.4824 66.2379 88.4824 63.8811C88.4824 62.3967 88.7526 61.0979 89.293 59.9846C89.8333 58.8648 90.6081 58.0087 91.6172 57.4163C92.6328 56.8173 93.821 56.5178 95.1816 56.5178C96.5684 56.5178 97.9616 56.8531 99.3613 57.5237L98.3848 59.9846C97.8509 59.7307 97.3138 59.5094 96.7734 59.3206C96.2331 59.1318 95.7025 59.0374 95.1816 59.0374ZM113.57 71.0002H110.553V64.8381H104.898V71.0002H101.871V56.7229H104.898V62.3186H110.553V56.7229H113.57V71.0002ZM133.863 71.0002H130.426L126.686 64.9846L125.406 65.9026V71.0002H122.379V56.7229H125.406V63.2561L126.598 61.5764L130.465 56.7229H133.824L128.844 63.0413L133.863 71.0002ZM147.359 71.0002H144.342V64.8381H138.688V71.0002H135.66V56.7229H138.688V62.3186H144.342V56.7229H147.359V71.0002ZM159.713 71.0002L158.678 67.6018H153.473L152.438 71.0002H149.176L154.215 56.6643H157.916L162.975 71.0002H159.713ZM157.955 65.0627C156.998 61.9833 156.458 60.2418 156.334 59.8381C156.217 59.4345 156.132 59.1155 156.08 58.8811C155.865 59.7144 155.25 61.775 154.234 65.0627H157.955ZM154.459 55.5803V55.3167C155.579 54.0146 156.344 53.0347 156.754 52.3772H160.094V52.5823C159.755 52.9208 159.176 53.4254 158.355 54.0959C157.542 54.76 156.904 55.2548 156.441 55.5803H154.459ZM170.826 71.0002L167.389 59.7991H167.301C167.424 62.0777 167.486 63.5979 167.486 64.3596V71.0002H164.781V56.7229H168.902L172.281 67.6409H172.34L175.924 56.7229H180.045V71.0002H177.223V64.2424C177.223 63.9234 177.226 63.5556 177.232 63.1389C177.245 62.7222 177.291 61.6155 177.369 59.8186H177.281L173.6 71.0002H170.826ZM194.352 71.0002H191.324V59.2424H187.447V56.7229H198.229V59.2424H194.352V71.0002ZM209.166 71.0002L208.131 67.6018H202.926L201.891 71.0002H198.629L203.668 56.6643H207.369L212.428 71.0002H209.166ZM207.408 65.0627C206.451 61.9833 205.911 60.2418 205.787 59.8381C205.67 59.4345 205.585 59.1155 205.533 58.8811C205.318 59.7144 204.703 61.775 203.688 65.0627H207.408ZM203.912 73.7444C203.912 72.7678 204.452 72.2795 205.533 72.2795C206.614 72.2795 207.154 72.7678 207.154 73.7444C207.154 74.2066 207.018 74.5647 206.744 74.8186C206.471 75.0725 206.067 75.1995 205.533 75.1995C204.452 75.1995 203.912 74.7144 203.912 73.7444ZM214.234 71.0002V56.7229H217.262V71.0002H214.234ZM232.115 59.0374C230.976 59.0374 230.094 59.467 229.469 60.3264C228.844 61.1793 228.531 62.3707 228.531 63.9006C228.531 67.0842 229.726 68.676 232.115 68.676C233.118 68.676 234.332 68.4254 235.758 67.9241V70.4631C234.586 70.9514 233.277 71.1956 231.832 71.1956C229.755 71.1956 228.167 70.5673 227.066 69.3108C225.966 68.0478 225.416 66.2379 225.416 63.8811C225.416 62.3967 225.686 61.0979 226.227 59.9846C226.767 58.8648 227.542 58.0087 228.551 57.4163C229.566 56.8173 230.755 56.5178 232.115 56.5178C233.502 56.5178 234.895 56.8531 236.295 57.5237L235.318 59.9846C234.785 59.7307 234.247 59.5094 233.707 59.3206C233.167 59.1318 232.636 59.0374 232.115 59.0374ZM247.232 67.0354C247.232 68.3245 246.767 69.3401 245.836 70.0823C244.911 70.8245 243.622 71.1956 241.969 71.1956C240.445 71.1956 239.098 70.9091 237.926 70.3362V67.5237C238.889 67.9534 239.703 68.2561 240.367 68.4319C241.038 68.6077 241.65 68.6956 242.203 68.6956C242.867 68.6956 243.375 68.5686 243.727 68.3147C244.085 68.0608 244.264 67.6832 244.264 67.1819C244.264 66.9019 244.186 66.6545 244.029 66.4397C243.873 66.2183 243.642 66.0068 243.336 65.8049C243.036 65.6031 242.421 65.2808 241.49 64.8381C240.618 64.428 239.964 64.0341 239.527 63.6565C239.091 63.2789 238.743 62.8394 238.482 62.3381C238.222 61.8368 238.092 61.2509 238.092 60.5803C238.092 59.3173 238.518 58.3245 239.371 57.6018C240.23 56.8792 241.415 56.5178 242.926 56.5178C243.668 56.5178 244.374 56.6057 245.045 56.7815C245.722 56.9573 246.428 57.2047 247.164 57.5237L246.188 59.8772C245.426 59.5647 244.794 59.3466 244.293 59.2229C243.798 59.0992 243.31 59.0374 242.828 59.0374C242.255 59.0374 241.816 59.1708 241.51 59.4377C241.204 59.7047 241.051 60.053 241.051 60.4827C241.051 60.7496 241.113 60.984 241.236 61.1858C241.36 61.3811 241.555 61.5732 241.822 61.762C242.096 61.9443 242.737 62.2763 243.746 62.7581C245.081 63.3961 245.995 64.0374 246.49 64.6819C246.985 65.3199 247.232 66.1044 247.232 67.0354ZM255.328 71.0002H252.301V59.2424H248.424V56.7229H259.205V59.2424H255.328V71.0002ZM265.846 62.6018L268.824 56.7229H272.086L267.35 65.4436V71.0002H264.342V65.5413L259.605 56.7229H262.887L265.846 62.6018Z" fill="white"/>
<defs>
<clipPath id="clip0">
<rect width="202.667" height="154.667" fill="white" transform="translate(343)"/>
</clipPath>
</defs>
</svg>
