<svg width="571" height="176" viewBox="0 0 571 176" fill="none" xmlns="http://www.w3.org/2000/svg">
<rect y="11" width="571" height="165" rx="10.6667" fill="#EDD272"/>
<g clip-path="url(#clip0)">
<path d="M425.117 63.927C436.466 55.7009 438.911 42.8366 442.229 30.0599C446.157 14.8765 453.665 2.84362 470.515 1.83723C502.25 -0.000520349 527.611 26.2093 528.004 57.4074C528.048 61.4767 527.742 65.5897 527.131 69.7028C523.202 95.6064 506.484 121.116 485.88 135.862C469.642 147.457 448.995 151.614 429.351 151.045C414.903 150.651 401.021 149.032 388.886 140.281C378.497 132.799 369.505 120.153 368.239 107.202C364.921 73.3783 405.779 77.9289 425.117 63.927Z" fill="#F8E8D5"/>
<path d="M438.125 27.216C437.339 34.567 434.24 41.6117 429.176 47.0375C425.728 50.7567 418.656 55.5699 413.636 51.7194C408.049 47.475 415.382 35.7484 415.295 30.2789C415.208 23.3655 409.795 17.4584 410.974 10.3699C411.934 4.59412 417.216 0.131008 423.021 0.0872518C435.244 0.0434957 438.649 15.3581 438.256 24.9844C438.256 25.7283 438.212 26.4721 438.125 27.216Z" fill="#F8E8D5"/>
<path d="M482.3 165.485H497.971C497.229 165.485 496.138 156.209 496.007 155.246C495.614 151.614 495.526 147.983 495.657 144.307C495.788 138.75 497.054 133.237 499.673 128.292C500.983 125.842 502.598 123.26 504.65 121.379C506.876 119.366 509.582 117.922 511.678 115.734C514.34 112.934 515.868 108.909 515.17 105.102C514.166 99.5885 509.582 97.3569 504.475 97.3132C498.582 97.2694 493.824 99.3697 490.419 104.314C483.871 113.722 482.911 126.673 482.911 137.744C482.824 146.976 482.475 156.384 482.3 165.485Z" fill="#ECB47A"/>
<path d="M487.975 136.169C489.022 129.036 491.117 121.948 494.697 115.691C496.618 112.278 499.018 109.127 501.812 106.414C502.161 106.064 502.729 106.633 502.38 106.983C497.36 111.84 493.824 118.01 491.554 124.529C489.022 131.837 488.062 139.538 487.756 147.239C487.582 151.877 487.669 156.471 487.756 161.109C487.756 161.635 486.971 161.635 486.971 161.109C486.84 152.752 486.796 144.395 487.975 136.169Z" fill="#ECB47A"/>
<path d="M469.903 165.485H485.967C485.618 157.215 485.181 148.989 484.832 140.763C484.745 138.75 484.657 136.738 484.439 134.725C483.872 128.993 482.344 123.348 479.987 118.098C478.634 115.122 476.975 112.191 474.487 110.134C471.999 108.077 468.768 106.984 465.582 107.115C462.395 107.246 459.252 108.559 456.939 110.747C455.978 111.665 455.149 112.759 454.625 113.985C454.101 115.21 453.883 116.566 453.883 117.923C453.839 121.467 455.062 124.924 456.764 128.074C458.466 131.181 460.605 134.025 462.613 136.956C465.494 141.157 468.114 145.62 469.685 150.433C471.3 155.334 471.344 160.628 469.903 165.485Z" fill="#D79C5F"/>
<path d="M463.88 112.453C468.463 117.66 472.174 123.567 474.967 129.912C477.761 136.213 479.594 142.908 480.424 149.777C480.904 153.672 481.035 157.61 480.817 161.504C480.773 162.029 479.987 162.029 480.031 161.504C480.424 154.678 479.725 147.808 478.067 141.157C476.408 134.506 473.745 128.162 470.209 122.298C468.201 119.017 465.931 115.866 463.4 112.978C463.007 112.628 463.574 112.06 463.88 112.453Z" fill="#ECB47A"/>
<path d="M413.592 165.486H399.056C399.013 165.486 398.969 165.486 398.969 165.486C397.965 163.429 399.449 160.716 400.628 158.791C401.85 156.866 403.334 154.897 403.203 152.534C403.16 151.659 402.898 150.784 402.636 149.952C402.199 148.596 401.719 147.239 401.632 145.752C401.501 144.308 401.806 142.733 402.723 141.726C403.596 140.72 404.906 140.457 406.084 140.238C408.136 139.845 410.319 139.363 411.89 137.744C413.811 135.732 414.335 132.537 414.946 129.606C415.557 126.674 416.561 123.48 418.874 122.167C420.097 121.511 421.537 121.467 422.628 120.592C423.676 119.761 424.243 118.317 424.898 117.004C425.553 115.604 426.382 114.247 427.648 113.591C428.871 112.935 430.573 113.285 431.184 114.685C431.839 116.173 431.053 117.967 430.136 119.236C429.22 120.504 428.085 121.773 427.954 123.436C427.779 125.58 429.263 127.33 430.005 129.299C430.835 131.487 430.66 134.156 429.525 136.169C428.478 138.094 426.688 139.276 425.16 140.632C423.589 141.989 422.105 143.826 421.974 146.102C421.886 148.115 422.847 149.909 423.72 151.659C423.938 152.14 424.2 152.665 424.2 153.234C424.2 153.978 423.851 154.634 423.458 155.203C420.795 159.054 415.819 161.373 413.592 165.486Z" fill="#ECB47A"/>
<path d="M408.835 162.029C410.755 159.316 409.271 155.684 410.013 152.621C410.45 150.959 411.585 149.821 412.894 148.815C414.247 147.808 416.037 146.627 416.081 144.745C416.124 143.695 415.644 142.689 415.426 141.682C415.251 140.895 415.164 140.063 415.251 139.276C415.426 137.701 416.081 136.169 417.128 134.944C418.351 133.5 420.097 132.887 421.668 131.969C422.41 131.531 423.152 130.962 423.633 130.175C424.156 129.299 424.156 128.293 424.113 127.33C424.025 126.28 423.938 125.23 424.069 124.18C424.2 123.217 424.418 122.298 424.767 121.423C425.466 119.629 426.601 118.01 428.085 116.741C428.478 116.435 429.045 116.96 428.652 117.31C427.299 118.448 426.208 119.892 425.553 121.555C424.855 123.261 424.724 125.011 424.855 126.805C424.942 127.768 425.029 128.731 424.724 129.649C424.506 130.437 424.025 131.093 423.414 131.619C422.061 132.887 420.184 133.413 418.7 134.506C417.347 135.513 416.474 137 416.124 138.619C415.95 139.451 415.95 140.282 416.081 141.114C416.255 142.076 416.648 142.995 416.779 143.958C416.997 145.795 415.993 147.239 414.684 148.333C413.374 149.427 411.716 150.302 410.974 151.965C410.231 153.628 410.45 155.553 410.493 157.303C410.537 159.054 410.45 160.891 409.402 162.379C409.227 162.86 408.573 162.466 408.835 162.029Z" fill="#ECB47A"/>
<path d="M397.136 165.354H380.635C379.719 162.947 379.413 160.191 380.242 157.74C380.592 156.646 381.159 155.552 381.115 154.415C381.072 152.358 379.326 150.827 377.667 149.645C375.964 148.508 374.087 147.326 373.389 145.401C372.778 143.695 373.258 141.682 372.429 140.063C371.337 137.919 368.5 137.437 366.143 136.869C364.353 136.431 362.607 135.775 360.992 134.943C359.246 134.068 357.5 132.712 357.194 130.787C356.976 129.255 357.762 127.68 357.5 126.148C356.976 122.692 351.912 121.116 351.956 117.66C351.956 117.266 352.043 116.872 352.349 116.61C352.742 116.303 353.266 116.347 353.746 116.478C356.714 117.266 358.591 120.066 360.555 122.429C360.992 122.954 361.472 123.479 362.083 123.786C363.655 124.573 365.532 123.786 367.278 123.742C369.286 123.698 371.294 124.792 372.385 126.542C373.607 128.511 373.651 131.224 375.353 132.799C376.925 134.243 379.326 134.243 381.377 134.768C385.35 135.818 388.536 139.406 389.104 143.476C389.278 144.832 389.235 146.232 389.889 147.414C390.806 149.12 392.814 149.82 394.429 150.871C399.056 153.89 399.667 160.497 397.136 165.354Z" fill="#ECB47A"/>
<path d="M356.932 119.76C357.15 121.773 358.198 123.61 359.639 125.01C361.21 126.498 363.174 127.242 365.313 127.33C366.448 127.373 367.627 127.417 368.631 127.986C369.548 128.467 370.115 129.299 370.29 130.305C370.464 131.355 370.333 132.449 370.77 133.455C371.163 134.33 371.861 134.987 372.647 135.468C375.746 137.393 380.984 137.393 381.814 141.769C382.032 142.95 381.945 144.132 382.032 145.313C382.119 146.363 382.425 147.282 383.036 148.114C384.127 149.601 385.786 150.608 387.183 151.702C388.885 153.058 390.282 154.677 390.719 156.909C391.199 159.14 390.762 161.547 389.409 163.384C389.104 163.778 388.449 163.384 388.711 162.991C389.933 161.284 390.369 159.14 389.933 157.127C389.496 155.115 388.274 153.627 386.703 152.358C385.262 151.22 383.647 150.258 382.512 148.77C381.945 148.07 381.552 147.282 381.334 146.407C381.072 145.27 381.159 144.088 381.115 142.95C381.072 141.857 380.81 140.806 380.024 139.975C379.369 139.275 378.54 138.794 377.71 138.4C375.921 137.612 374 137.262 372.298 136.256C371.512 135.774 370.813 135.206 370.333 134.462C369.766 133.63 369.635 132.668 369.548 131.705C369.46 130.567 369.373 129.43 368.282 128.773C367.19 128.161 365.881 128.248 364.659 128.117C360.25 127.767 356.583 124.179 356.059 119.803C356.059 119.278 356.845 119.278 356.932 119.76Z" fill="#ECB47A"/>
<path d="M394.953 165.354H412.239C412.501 163.166 412.326 160.716 411.148 158.834C409.925 156.865 408.005 155.334 407.175 153.146C405.953 149.821 407.655 145.97 406.39 142.688C404.905 138.925 400.409 137.657 397.266 135.162C395.389 133.675 393.949 131.662 393.163 129.387C391.854 125.711 392.203 121.379 389.889 118.229C387.314 114.641 382.032 113.591 379.849 109.784C379.107 108.515 378.758 106.984 378.016 105.715C377.274 104.446 375.79 103.352 374.349 103.746C373.607 103.964 372.996 104.533 372.559 105.146C371.774 106.283 371.381 107.64 371.468 109.04C371.599 111.14 372.778 113.022 373.083 115.078C373.432 117.31 372.734 119.585 372.254 121.817C371.774 124.048 371.555 126.499 372.734 128.468C374.393 131.181 378.147 131.968 379.893 134.594C381.77 137.438 380.81 141.77 383.341 144.089C384.826 145.445 387.139 145.664 388.536 147.064C389.715 148.289 390.02 150.083 389.933 151.79C389.846 153.496 389.409 155.159 389.409 156.822C389.409 160.366 391.417 165.354 394.953 165.354Z" fill="#D79C5F"/>
<path d="M375.659 108.602C375.79 108.121 376.532 108.34 376.401 108.821C375.833 111.053 377.405 113.066 378.889 114.509C380.242 115.822 381.813 117.047 382.687 118.754C383.691 120.679 383.385 122.692 383.079 124.748C382.905 125.799 382.73 126.936 382.905 128.03C383.079 128.993 383.472 129.868 384.083 130.655C386.702 134.112 391.417 134.856 394.298 138.006C395.695 139.538 396.437 141.376 396.219 143.432C396.088 144.57 395.826 145.664 395.913 146.801C396 147.852 396.437 148.858 397.004 149.733C398.314 151.833 400.365 153.277 401.893 155.203C403.29 156.997 404.294 159.359 403.508 161.635C403.334 162.116 402.592 161.897 402.766 161.416C403.508 159.228 402.417 156.997 401.02 155.334C399.667 153.715 397.965 152.358 396.699 150.652C396.088 149.821 395.607 148.902 395.302 147.895C394.996 146.845 395.084 145.795 395.215 144.701C395.389 143.563 395.607 142.47 395.302 141.332C395.084 140.369 394.56 139.494 393.905 138.75C391.111 135.469 386.441 134.725 383.691 131.443C382.381 129.824 381.857 127.986 382.075 125.93C382.294 123.873 383.036 121.685 382.25 119.673C381.421 117.572 379.456 116.216 377.928 114.685C376.444 113.109 375.047 110.921 375.659 108.602Z" fill="#ECB47A"/>
<path d="M383.779 135.425H444.716C445.939 135.425 446.899 134.462 446.899 133.237V29.1854C446.899 27.9602 445.939 26.9976 444.716 26.9976H383.779C382.556 26.9976 381.596 27.9602 381.596 29.1854V133.237C381.596 134.462 382.556 135.425 383.779 135.425Z" fill="#269285"/>
<path d="M384.39 31.5481V124.836C384.39 125.58 385.001 126.236 385.787 126.236H442.316C443.058 126.236 443.712 125.624 443.712 124.836V31.5481C443.712 30.8043 443.101 30.1479 442.316 30.1479H385.743C385.001 30.1479 384.39 30.7605 384.39 31.5481Z" fill="#3BCCBB"/>
<path d="M398.315 92.1943V126.455H410.887L414.553 92.1943H398.315Z" fill="#269285"/>
<path d="M426.295 94.1196V126.455H413.942L410.45 94.1196H426.295Z" fill="#269285"/>
<path d="M397.878 92.8509C397.878 92.8509 418.438 99.1956 426.295 94.1199C426.295 94.1199 425.073 55.2645 424.855 54.1269C423.895 49.3575 417.827 46.9946 412.982 46.9946C411.628 46.9946 403.291 46.9946 400.454 53.208C399.013 56.2271 397.878 92.8509 397.878 92.8509Z" fill="white"/>
<path d="M420.927 32.1176C421.32 31.4613 421.32 30.6737 421.32 29.9298C421.32 28.5734 421.276 27.1732 420.839 25.9043C420.708 25.5542 420.577 25.2479 420.359 24.9854C420.141 24.7229 419.792 24.5478 419.443 24.5916C420.097 23.8477 419.879 22.6663 419.355 21.835C418.831 21.0036 417.871 20.5223 416.911 20.391C415.95 20.2598 414.946 20.4348 414.03 20.7411C411.105 21.7037 408.617 23.804 407.176 26.5606C406.347 26.5606 405.518 26.8669 404.95 27.4795C404.383 28.0921 404.077 28.9234 404.121 29.7548C404.164 30.3236 404.383 30.8925 404.557 31.4613C405.299 33.4303 406.085 35.3993 407.482 36.9745C407.7 37.2371 407.918 37.4559 408.224 37.5871C408.748 37.8059 409.359 37.6746 409.926 37.4996C412.72 36.6683 415.47 35.6181 417.827 33.9116C418.744 33.2115 419.879 32.4677 420.927 32.1176Z" fill="#141735"/>
<path d="M406.739 32.9932C407.7 38.769 409.009 49.0517 409.009 49.0517C410.886 50.9332 415.601 49.3142 415.252 48.6141C415.077 48.2203 414.99 47.4327 415.033 46.6888C415.077 46.12 415.252 45.5512 415.513 45.2011C415.644 45.0699 415.906 44.9386 416.212 44.8511C416.256 44.8511 416.299 44.8073 416.299 44.8073C417.871 44.3698 421.101 44.151 421.887 41.8319C422.891 38.9878 421.232 32.3369 420.184 29.1864C419.573 27.3924 417.303 25.2484 413.986 25.5984C410.013 26.036 405.779 27.2174 406.739 32.9932Z" fill="#ECB58C"/>
<path d="M419.355 26.4292C419.355 26.4292 416.649 30.1484 409.49 30.1922C409.49 30.1922 409.446 35.8805 407.787 36.4055C406.085 36.8869 405.386 29.0983 406.129 27.7419C406.914 26.3854 414.99 23.235 419.355 26.4292Z" fill="#141735"/>
<path d="M419.616 35.6178C419.66 35.9679 420.14 36.1866 420.664 36.1429C421.232 36.0991 421.624 35.7491 421.581 35.399C421.537 35.049 421.057 34.8302 420.533 34.874C420.009 34.9615 419.573 35.2678 419.616 35.6178Z" fill="#E7998A"/>
<path d="M414.597 36.1867C414.64 36.5367 415.12 36.7555 415.644 36.7117C416.212 36.668 416.604 36.3179 416.561 35.9679C416.517 35.6178 416.037 35.399 415.513 35.4428C414.989 35.5303 414.597 35.8366 414.597 36.1867Z" fill="#E7998A"/>
<path d="M418.132 36.4491C418.263 36.4053 418.394 36.3616 418.525 36.4053C418.656 36.4491 418.744 36.5804 418.787 36.6679C418.831 36.7991 418.787 36.9304 418.744 37.0617C418.656 37.1929 418.569 37.2804 418.482 37.368C418.438 37.4117 418.307 37.4117 418.307 37.3242C418.263 37.2367 418.263 37.1929 418.351 37.1492L418.394 37.1054C418.394 37.1054 418.394 37.1054 418.438 37.0617C418.394 37.0617 418.438 37.0617 418.438 37.0617C418.482 37.0179 418.482 36.9742 418.525 36.9304C418.525 36.9304 418.525 36.9304 418.525 36.8866V36.8429C418.525 36.7991 418.525 36.7991 418.525 36.7554C418.525 36.7554 418.525 36.7554 418.525 36.7116C418.525 36.7116 418.525 36.7116 418.525 36.6679C418.525 36.6679 418.525 36.6679 418.525 36.6241H418.482C418.525 36.6241 418.482 36.6241 418.482 36.6241C418.482 36.6241 418.482 36.6241 418.438 36.6241H418.394C418.394 36.6241 418.394 36.6241 418.351 36.6241C418.307 36.6241 418.307 36.6241 418.263 36.6679C418.176 36.7116 418.089 36.6679 418.089 36.5804C418.001 36.5366 418.045 36.4928 418.132 36.4491Z" fill="#C89978"/>
<path d="M415.775 32.3358C416.037 31.942 416.517 31.7232 416.997 31.767C417.128 31.767 417.128 31.9858 416.997 31.9858C416.604 31.942 416.211 32.117 415.993 32.4671C415.949 32.5108 415.906 32.5546 415.862 32.5109C415.731 32.4671 415.731 32.3796 415.775 32.3358Z" fill="#141735"/>
<path d="M418.613 31.5047C419.093 31.2422 419.66 31.3297 420.097 31.6797C420.184 31.7672 420.053 31.9423 419.966 31.8548C419.617 31.5485 419.136 31.5047 418.7 31.7235C418.656 31.7672 418.569 31.7235 418.569 31.6797C418.525 31.5922 418.569 31.5047 418.613 31.5047Z" fill="#141735"/>
<path d="M418.263 39.5561C417.478 39.6436 416.736 39.3811 416.125 38.8998C415.906 38.7247 415.601 39.0748 415.819 39.2498C416.517 39.8186 417.434 40.0812 418.307 39.9937C418.613 39.9937 418.569 39.5123 418.263 39.5561Z" fill="#CC7667"/>
<path d="M417.39 34.043C417.303 33.868 417.216 33.7367 417.085 33.6055C416.954 33.5179 416.779 33.4304 416.605 33.5179C416.474 33.5617 416.343 33.693 416.255 33.8242C416.168 33.9993 416.168 34.1743 416.124 34.3931C416.124 34.4368 416.168 34.4806 416.212 34.4806C416.255 34.4806 416.299 34.4368 416.299 34.3931C416.299 34.1743 416.343 33.8242 416.605 33.693C416.91 33.6055 417.085 33.9555 417.172 34.1305C417.303 34.2618 417.478 34.1743 417.39 34.043Z" fill="#362A14"/>
<path d="M420.096 33.6927C420.009 33.5176 419.922 33.3864 419.791 33.2551C419.66 33.1676 419.485 33.0801 419.311 33.1676C419.18 33.2114 419.049 33.3426 418.961 33.4739C418.874 33.6489 418.874 33.8239 418.831 34.0427C418.831 34.0865 418.874 34.1302 418.918 34.1302C418.961 34.1302 419.005 34.0865 419.005 34.0427C419.005 33.8239 419.049 33.4739 419.311 33.3426C419.616 33.2551 419.791 33.6052 419.878 33.7802C420.009 33.9114 420.184 33.8239 420.096 33.6927Z" fill="#362A14"/>
<path d="M408.049 35.5307C407.437 35.1369 406.652 34.8744 405.953 35.1369C405.255 35.3995 404.818 36.0558 404.818 36.7997C404.818 37.3247 404.993 37.806 405.211 38.2436C405.43 38.7249 405.735 39.1625 406.084 39.5563C406.783 40.3001 407.961 40.7815 408.878 40.1689C410.1 39.3375 409.751 37.631 409.096 36.5371C408.834 36.1871 408.485 35.7933 408.049 35.5307Z" fill="#ECB58C"/>
<path d="M406.259 36.3616C406.914 36.2741 407.481 36.6679 407.874 37.1055C408.267 37.5868 408.572 38.1556 408.747 38.7682C408.791 38.9433 408.529 39.0308 408.485 38.8557C408.354 38.3744 408.136 37.9369 407.83 37.4993C407.481 37.4118 407.088 37.4993 406.739 37.6306C406.695 37.6743 406.608 37.6743 406.565 37.5868C406.521 37.5431 406.521 37.4556 406.608 37.4118C406.914 37.2368 407.263 37.193 407.612 37.193C407.263 36.7992 406.783 36.4929 406.259 36.5804C406.084 36.6242 406.084 36.3616 406.259 36.3616Z" fill="#C89978"/>
<path d="M413.986 45.1129C412.894 45.2004 411.759 45.0692 410.668 44.8504C410.537 44.8066 410.406 44.9379 410.406 45.0692C410.406 45.2004 410.494 45.2879 410.624 45.3317C411.759 45.5942 412.894 45.6818 414.073 45.5942C414.379 45.5505 414.291 45.0692 413.986 45.1129Z" fill="#F8E8D3"/>
<path d="M453.272 53.3393C453.272 53.3393 456.808 50.3639 456.633 49.5762C456.502 48.8324 454.625 45.857 454.625 45.857C454.625 45.857 457.768 40.6063 457.026 39.9937C456.066 39.2498 451.526 46.0758 451.526 46.032C451.57 45.9883 451.264 42.9253 450.522 42.9253C449.474 42.9691 448.077 50.8889 448.077 50.8889L453.272 53.3393Z" fill="#ECB58C"/>
<path d="M422.716 50.4952C427.124 54.7395 434.764 63.2282 435.375 63.2282C435.898 63.2282 448.077 48.4824 448.077 48.4824C448.077 48.4824 453.185 50.889 453.752 53.9519C453.752 53.9519 440.875 74.4735 436.815 74.9548C433.541 75.3924 422.279 69.2228 422.279 69.2228L422.716 50.4952Z" fill="#EEF6F9"/>
<path d="M411.715 49.97L410.1 51.1076L411.715 52.7266L413.243 51.0201L411.715 49.97Z" fill="#E38165"/>
<path d="M411.104 51.5012L409.533 71.6727L412.152 75.0857L414.64 71.5415L412.196 51.5012H411.104Z" fill="#E38165"/>
<path d="M408.573 47.4758L411.715 72.023L410.668 111.972C410.668 111.972 400.279 112.147 396.437 110.178L397.878 74.2545L401.108 51.5014C401.064 51.5014 403.509 48.526 408.573 47.4758Z" fill="#EEF6F9"/>
<path d="M415.033 47.1692L412.414 72.0226L414.248 111.928C414.248 111.928 421.887 112.191 427.605 109.04L424.811 52.6387C424.811 52.6387 421.014 47.4755 415.033 47.1692Z" fill="#EEF6F9"/>
<path d="M407.569 47.6509L408.703 46.6882L411.715 49.9699L408.703 52.7266L407.569 47.6509Z" fill="#A1B8BF"/>
<path d="M415.077 46.5574L411.716 49.9703L414.641 52.8582L416.125 47.345L415.077 46.5574Z" fill="#A1B8BF"/>
<path d="M402.112 50.5828C402.112 50.5828 390.021 60.7342 389.715 68.8728C389.497 74.2985 400.628 87.8191 400.628 87.8191L405.997 85.2375C405.997 85.2375 398.576 68.2164 398.576 67.6914C398.576 67.5163 401.676 63.272 401.676 63.272C402.461 58.5901 402.112 50.5828 402.112 50.5828Z" fill="#EEF6F9"/>
<path d="M407.001 84.3187C405.08 86.3752 402.374 87.2941 399.798 88.1692C399.536 88.2567 399.667 88.6505 399.886 88.563C402.548 87.6879 405.299 86.7253 407.263 84.625C407.481 84.4062 407.176 84.0999 407.001 84.3187Z" fill="#EEF6F9"/>
<path d="M403.509 78.8934L400.628 72.155C400.541 71.9362 400.192 72.1113 400.279 72.3738C401.239 74.6053 402.2 76.8369 403.16 79.1122C403.247 79.331 403.596 79.156 403.509 78.8934Z" fill="#EEF6F9"/>
<path d="M435.549 63.5345C435.506 63.4907 435.462 63.4469 435.418 63.4469C435.287 63.4032 435.2 63.4907 435.156 63.5782C435.156 63.5345 435.156 63.5782 435.156 63.5782V63.622C435.156 63.6657 435.113 63.6657 435.113 63.7095C435.069 63.7532 435.069 63.797 435.025 63.8407C435.025 63.8845 434.982 63.8845 434.982 63.8845C434.982 63.8845 434.982 63.8845 434.938 63.9283C434.894 63.972 434.851 64.0158 434.807 64.0595C434.763 64.1033 434.72 64.147 434.676 64.147L434.633 64.1908C434.633 64.1908 434.589 64.1908 434.589 64.2346C434.502 64.2783 434.414 64.3658 434.283 64.4096C434.196 64.4533 434.152 64.5846 434.196 64.6721C434.24 64.7596 434.371 64.8034 434.458 64.7596C434.938 64.5408 435.287 64.147 435.462 63.6657C435.593 63.622 435.593 63.5782 435.549 63.5345Z" fill="#EEF6F9"/>
<path d="M436.073 63.5345C436.073 63.447 435.942 63.3595 435.811 63.4032C435.68 63.447 435.637 63.5345 435.68 63.6658C435.811 64.2346 435.637 64.8472 435.244 65.2847C435.069 65.4598 435.375 65.7661 435.506 65.5473C435.986 64.9785 436.204 64.2346 436.073 63.5345Z" fill="#EEF6F9"/>
<path d="M424.418 87.3818C421.668 87.0317 418.962 86.0691 416.605 84.6251C416.386 84.4939 416.168 84.8439 416.386 84.9752C418.831 86.4629 421.581 87.4255 424.418 87.7756C424.68 87.8194 424.68 87.4255 424.418 87.3818Z" fill="#EEF6F9"/>
<path d="M409.097 61.6084L408.354 58.1516C408.224 57.5828 408.093 57.014 408.005 56.4452C407.874 55.8326 407.612 54.9574 406.783 54.8699C406.477 54.8262 406.128 54.9137 405.823 55.0012C405.735 55.0012 405.692 55.045 405.604 55.045L404.6 55.2637C404.12 53.1634 403.596 50.8444 404.382 48.6566C404.426 48.5691 404.382 48.4378 404.251 48.4378C404.164 48.394 404.033 48.4378 403.989 48.5691C403.16 50.8444 403.727 53.251 404.208 55.395L404.077 55.4388C403.422 55.6138 402.723 55.7451 402.156 56.1826C401.545 56.6202 401.239 57.2328 401.283 58.0204C401.283 58.4142 401.37 58.808 401.458 59.2018C401.545 59.5956 401.632 59.9894 401.719 60.427C401.938 61.3021 402.2 62.1772 402.549 63.0523C402.592 63.1398 402.592 63.1836 402.636 63.2711C402.723 63.5774 402.854 63.9274 403.073 64.19C403.204 64.3212 403.422 64.4087 403.596 64.4525C403.684 64.4525 403.771 64.4087 403.858 64.365C403.902 64.4087 403.946 64.4525 403.989 64.4963C404.033 64.4963 404.033 64.4963 404.077 64.4963C404.12 64.4963 404.164 64.4963 404.208 64.4525C404.251 64.4087 404.295 64.365 404.339 64.3212C404.339 64.2775 404.339 64.19 404.339 64.1462L404.077 63.6211C403.989 63.4899 403.858 63.4461 403.727 63.5336C403.596 63.6211 403.553 63.7524 403.64 63.8837L403.727 64.0149C403.684 64.0587 403.64 64.0587 403.596 64.0587C403.465 64.0149 403.291 63.8399 403.204 63.6649C403.073 63.4024 402.985 63.1398 402.898 62.8335L402.854 62.6585C402.636 62.0022 402.418 61.3021 402.243 60.6457C402.069 60.0331 401.894 59.2893 401.763 58.5892C401.632 57.8016 401.763 57.2328 402.2 56.7952C402.68 56.3576 403.291 56.1389 403.946 56.0076C404.426 55.8763 404.95 55.7451 405.43 55.6575L406.128 55.4825C406.434 55.395 406.783 55.3075 407.045 55.4825C407.263 55.6138 407.438 55.8763 407.525 56.2264C407.612 56.4889 407.656 56.7514 407.7 56.9702C407.7 57.0577 407.743 57.1452 407.743 57.2328L408.485 60.8208C408.529 60.952 408.529 61.0833 408.573 61.2146C408.616 61.4771 408.704 61.7396 408.747 62.0459C408.791 62.2209 408.791 62.4397 408.747 62.6148C408.704 62.7023 408.616 62.8335 408.485 62.8335L408.442 62.6585C408.398 62.5272 408.267 62.4397 408.136 62.4835C408.093 62.4835 408.005 62.5272 408.005 62.6148C407.962 62.6585 407.962 62.746 408.005 62.7898L408.18 63.3586C408.224 63.4899 408.311 63.5336 408.442 63.5336C408.485 63.5336 408.485 63.5336 408.529 63.5336C408.573 63.5336 408.66 63.4899 408.66 63.4024C408.704 63.3586 408.704 63.2711 408.704 63.2273C408.922 63.1836 409.097 63.0086 409.184 62.8335C409.271 62.3085 409.184 61.9147 409.097 61.6084Z" fill="#1C1A38"/>
<path d="M418.612 47.5193C418.481 47.3005 418.132 47.4755 418.263 47.738C419.441 49.8821 420.052 52.2887 420.052 54.739C420.052 55.0015 420.445 55.0015 420.445 54.739C420.489 52.2012 419.834 49.7508 418.612 47.5193Z" fill="#1C1A38"/>
<path d="M421.013 55.2203C421.013 55.7892 420.62 56.2267 420.097 56.2267C419.573 56.2267 419.18 55.7892 419.18 55.2203C419.18 54.6515 419.573 54.2139 420.097 54.2139C420.62 54.1702 421.013 54.6515 421.013 55.2203Z" fill="#1C1A38"/>
<path d="M420.882 55.2203C420.882 55.7891 420.489 56.2266 420.053 56.2266C419.616 56.2266 419.224 55.7891 419.224 55.2203C419.224 54.6514 419.616 54.2139 420.053 54.2139C420.489 54.2139 420.882 54.6514 420.882 55.2203Z" fill="#262353"/>
<path d="M420.446 55.2202C420.446 55.5265 420.227 55.789 419.965 55.789C419.704 55.789 419.485 55.5265 419.485 55.2202C419.485 54.9139 419.704 54.6514 419.965 54.6514C420.227 54.6514 420.446 54.9139 420.446 55.2202Z" fill="#262353"/>
<path d="M384.39 115.517V124.837C384.39 125.58 385.001 126.237 385.787 126.237H442.316C443.058 126.237 443.712 125.624 443.712 124.837V115.517H384.39Z" fill="#3BCCBB"/>
<path d="M411.541 120.854C411.541 122.429 412.807 123.698 414.378 123.698C415.95 123.698 417.216 122.429 417.216 120.854C417.216 119.279 415.95 118.01 414.378 118.01C412.807 118.01 411.541 119.279 411.541 120.854Z" fill="#E38165"/>
<path d="M415.339 121.598C415.295 121.598 415.252 121.554 415.252 121.511C415.252 121.336 415.252 120.592 414.335 120.592C413.462 120.592 413.418 121.292 413.418 121.511C413.418 121.554 413.374 121.598 413.331 121.598H412.24C412.196 121.598 412.152 121.554 412.152 121.511V121.336C412.152 121.16 412.196 121.029 412.24 120.854C412.632 120.11 413.811 120.11 414.335 120.11C414.859 120.11 416.081 120.154 416.386 120.942C416.43 121.073 416.474 121.204 416.474 121.336V121.511C416.474 121.554 416.43 121.598 416.386 121.598H415.339Z" fill="#ECF7F9"/>
<path d="M405.255 123.698C403.688 123.698 402.417 122.425 402.417 120.854C402.417 119.283 403.688 118.01 405.255 118.01C406.822 118.01 408.092 119.283 408.092 120.854C408.092 122.425 406.822 123.698 405.255 123.698Z" fill="white"/>
<path d="M404.818 120.854C404.818 121.116 405.037 121.335 405.298 121.335C405.56 121.335 405.779 121.116 405.779 120.854C405.779 120.591 405.56 120.373 405.298 120.373C404.993 120.373 404.818 120.591 404.818 120.854Z" fill="black"/>
<path d="M403.639 119.847H404.643V119.76C404.643 119.672 404.731 119.585 404.818 119.585H405.735C405.822 119.585 405.909 119.672 405.909 119.76V119.847H406.913C407.001 119.847 407.088 119.935 407.088 120.023V121.641C407.088 121.729 407.001 121.816 406.913 121.816H403.639C403.552 121.816 403.465 121.729 403.465 121.641V120.023C403.465 119.935 403.508 119.847 403.639 119.847ZM405.254 121.598C405.647 121.598 405.997 121.248 405.997 120.854C405.997 120.46 405.647 120.11 405.254 120.11C404.862 120.11 404.512 120.46 404.512 120.854C404.512 121.248 404.862 121.598 405.254 121.598Z" fill="black"/>
<path d="M423.414 123.698C421.847 123.698 420.577 122.425 420.577 120.854C420.577 119.283 421.847 118.01 423.414 118.01C424.981 118.01 426.252 119.283 426.252 120.854C426.252 122.425 424.981 123.698 423.414 123.698Z" fill="white"/>
<path d="M423.371 121.292C423.109 121.292 422.891 121.073 422.891 120.811V119.673C422.891 119.41 423.109 119.192 423.371 119.192C423.633 119.192 423.851 119.41 423.851 119.673V120.811C423.851 121.073 423.633 121.292 423.371 121.292Z" fill="black"/>
<path d="M422.411 120.723C422.411 120.679 422.454 120.636 422.498 120.636C422.542 120.636 422.585 120.679 422.585 120.723C422.585 121.117 422.935 121.467 423.327 121.467C423.72 121.467 424.07 121.117 424.07 120.723C424.07 120.679 424.113 120.636 424.157 120.636C424.201 120.636 424.244 120.679 424.244 120.723C424.244 121.205 423.895 121.598 423.415 121.686V122.255H423.851C423.895 122.255 423.939 122.298 423.939 122.342C423.939 122.386 423.895 122.43 423.851 122.43H422.76C422.716 122.43 422.673 122.386 422.673 122.342C422.673 122.298 422.716 122.255 422.76 122.255H423.197V121.686C422.804 121.642 422.411 121.205 422.411 120.723Z" fill="black"/>
<path d="M422.498 122.648C422.541 122.648 422.585 122.649 422.585 122.605L424.593 119.279C424.637 119.236 424.593 119.148 424.549 119.148C424.506 119.104 424.418 119.148 424.418 119.192L422.41 122.517C422.367 122.561 422.41 122.648 422.454 122.648C422.454 122.648 422.454 122.648 422.498 122.648Z" fill="white"/>
<path d="M422.498 122.648C422.541 122.648 422.585 122.649 422.585 122.605L424.593 119.279C424.637 119.236 424.593 119.148 424.549 119.148C424.506 119.104 424.418 119.148 424.418 119.192L422.41 122.517C422.367 122.561 422.41 122.648 422.454 122.648H422.498Z" fill="white"/>
<path d="M422.41 122.605C422.454 122.605 422.497 122.605 422.497 122.561L424.505 119.236C424.549 119.192 424.505 119.104 424.462 119.104C424.418 119.061 424.331 119.104 424.331 119.148L422.323 122.474C422.279 122.517 422.323 122.605 422.366 122.605C422.41 122.605 422.41 122.605 422.41 122.605Z" fill="black"/>
<path d="M440.656 34.1726C440.656 34.1289 440.613 34.0414 440.569 33.9976L439.522 32.9475C439.434 32.86 439.26 32.86 439.172 32.9475C439.085 33.035 439.085 33.21 439.172 33.2975L440.045 34.1726L439.172 35.0478C439.085 35.1353 439.085 35.3103 439.172 35.3978C439.26 35.4853 439.434 35.4853 439.522 35.3978L440.569 34.3477C440.656 34.3039 440.656 34.2601 440.656 34.1726Z" fill="white"/>
<path d="M387.707 33.4734C387.532 33.4734 387.401 33.3422 387.401 33.1671C387.401 32.9921 387.532 32.8608 387.707 32.8608C387.881 32.8608 388.012 32.9921 388.012 33.1671C387.969 33.3422 387.881 33.4734 387.707 33.4734Z" fill="white"/>
<path d="M387.707 34.4798C387.538 34.4798 387.401 34.3426 387.401 34.1735C387.401 34.0043 387.538 33.8672 387.707 33.8672C387.876 33.8672 388.012 34.0043 388.012 34.1735C388.012 34.3426 387.876 34.4798 387.707 34.4798Z" fill="white"/>
<path d="M387.707 34.9172C387.881 34.9172 388.012 35.0485 388.012 35.2235C388.012 35.3986 387.881 35.5298 387.707 35.5298C387.532 35.5298 387.401 35.3986 387.401 35.2235C387.401 35.0485 387.532 34.9172 387.707 34.9172Z" fill="white"/>
<path d="M406.521 133.019H421.974C423.065 133.019 423.982 132.144 423.982 131.006C423.982 129.912 423.109 128.993 421.974 128.993H406.521C405.43 128.993 404.513 129.868 404.513 131.006C404.513 132.144 405.43 133.019 406.521 133.019Z" fill="#9EADD1"/>
<path d="M491.467 27.829C491.336 26.4289 491.685 24.7224 493.039 24.3723C493.781 24.1973 494.523 24.5036 495.265 24.5036C496.4 24.5473 497.316 23.891 498.364 23.541C499.935 22.9721 501.638 23.0159 503.253 23.2347C505.348 23.541 507.444 24.1973 508.84 25.9038C510.063 27.3477 510.761 29.1417 511.59 30.7607C512.333 32.2047 513.206 33.6486 514.602 34.5237C515.737 35.2676 517.134 35.6176 518.4 36.1427C519.928 36.799 521.238 37.8929 522.285 39.1619C523.027 40.0807 523.595 41.2621 523.376 42.4436C523.289 42.8811 523.071 43.3187 522.984 43.7562C522.765 44.6314 522.94 45.5502 523.464 46.2941C524.119 47.2567 525.253 47.7818 525.996 48.6569C527.13 49.9696 527.349 51.8949 526.825 53.5576C526.301 55.2203 525.166 56.5767 523.857 57.7144C519.099 61.915 512.114 63.0964 505.959 61.6087C502.424 60.7773 498.975 59.0271 496.618 56.2705C494.217 53.5138 492.995 49.6195 493.824 46.0753C494.086 44.9376 494.566 43.8437 494.435 42.7061C494.217 40.9121 492.602 39.5557 492.427 37.7617C492.253 36.0989 493.431 34.4362 493.082 32.7735C492.908 31.9859 492.384 31.242 492.122 30.4544C491.773 29.623 491.554 28.7479 491.467 27.829Z" fill="#141735"/>
<path d="M501.289 160.891C501.289 160.891 503.166 162.423 501.944 165.529H485.094C485.094 165.529 484.658 164.26 485.749 163.56C486.884 162.904 494.436 160.891 494.436 160.891H501.289Z" fill="#141735"/>
<path d="M494.217 91.8879C494.217 91.8879 491.161 125.93 491.161 128.424C491.161 129.693 494.479 160.891 494.479 160.891C494.479 160.891 497.884 161.941 501.158 160.891C501.158 160.891 502.816 129.868 502.991 128.774C503.122 127.812 512.594 92.5005 512.594 92.5005L494.217 91.8879Z" fill="#269285"/>
<path d="M518.836 160.891C518.836 160.891 520.713 162.423 519.491 165.529H502.641C502.641 165.529 502.205 164.26 503.296 163.56C504.431 162.904 511.982 160.891 511.982 160.891H518.836Z" fill="#141735"/>
<path d="M522.678 92.3691C525.166 107.64 518.618 128.162 518.618 128.162L518.837 160.891C518.837 160.891 515.825 161.722 512.027 160.891L507.575 128.555L503.951 92.8067L522.678 92.3691Z" fill="#269285"/>
<path d="M503.777 98.8014C503.908 98.7139 504.039 98.7576 504.126 98.8889C504.257 99.1077 504.388 99.2827 504.563 99.5015C504.607 99.414 504.607 99.2827 504.65 99.1952C504.694 99.0639 504.825 98.9764 504.956 99.0202C505.087 99.0639 505.174 99.1952 505.13 99.3265C505.043 99.589 504.999 99.8515 504.912 100.114C505.48 104.665 506.003 109.215 506.658 113.766C506.702 114.116 506.222 114.247 506.134 113.897C505.48 109.347 504.956 104.752 504.388 100.202C504.388 100.202 504.388 100.202 504.345 100.158C504.126 99.8078 503.865 99.4577 503.646 99.1077C503.603 99.0639 503.646 98.8889 503.777 98.8014Z" fill="#269285"/>
<path d="M481.078 56.9706H475.491C475.36 56.9706 475.185 56.8393 475.142 56.708L470.078 47.038C469.816 46.5566 470.253 46.5566 470.384 46.5566H476.015C476.146 46.5566 476.32 46.6879 476.364 46.8192L481.253 56.708C481.297 56.8831 481.253 56.9706 481.078 56.9706Z" fill="#141735"/>
<path d="M480.773 56.9705H475.142C475.011 56.9705 474.836 56.8392 474.793 56.708L470.035 47.0816C469.947 46.9504 470.035 46.8191 470.166 46.8191H475.797C475.928 46.8191 476.102 46.9504 476.146 47.0816L480.904 56.708C480.948 56.883 480.904 56.9705 480.773 56.9705Z" fill="#269285"/>
<path d="M475.054 50.5388C475.316 51.1514 475.229 51.7639 474.792 51.9827C474.399 52.1578 473.832 51.8515 473.57 51.2389C473.308 50.6263 473.395 50.0137 473.832 49.7949C474.225 49.6199 474.749 49.9262 475.054 50.5388Z" fill="#269285"/>
<path d="M473.831 60.4711C473.831 60.4711 470.339 57.5832 470.164 56.4017C469.946 55.2203 471.954 49.8821 474.311 50.0134C476.712 50.1884 477.716 58.2395 477.716 58.2395L473.831 60.4711Z" fill="#ECB58C"/>
<path d="M496.05 51.4133C496.05 51.4133 488.193 67.428 487.887 67.428C487.538 67.428 478.066 57.1891 478.066 57.1891C478.066 57.1891 474.05 58.5456 473.395 60.7771C473.395 60.7771 485.094 75.5229 488.018 75.5229C490.943 75.5229 498.495 69.0908 498.495 69.0908L496.05 51.4133Z" fill="#E38165"/>
<path d="M522.679 92.3689C522.679 92.3689 502.817 100.157 493.563 92.3689L498.932 70.7097C496.095 62.8336 495.003 54.1262 495.265 53.0322C496.444 48.3504 505.174 46.3813 507.444 46.4689C508.797 46.5126 515.563 46.2938 519.361 51.8946C520.234 53.1635 519.579 62.1773 519.885 71.541C520.234 82.2175 522.679 92.3689 522.679 92.3689Z" fill="#E38165"/>
<path d="M508.142 83.8364C508.142 83.8364 505.304 87.5119 504.562 87.8182C503.82 88.1245 499.586 85.9804 499.935 84.0989C500.241 82.2174 505.959 81.5173 505.959 81.5173L508.142 83.8364Z" fill="#ECB58C"/>
<path d="M505.959 81.5607C505.959 81.5607 502.293 80.3356 501.943 80.8169C501.638 81.2982 503.078 82.5234 503.078 82.5234L505.959 81.5607Z" fill="#ECB58C"/>
<path d="M519.36 51.7629C521.805 54.9134 526.126 68.5215 525.122 72.5471C524.031 76.9227 507.88 85.105 507.88 85.105C506.09 84.0111 504.955 80.4669 504.955 80.4669L517.571 70.053L519.36 51.7629Z" fill="#E38165"/>
<path d="M506.439 79.5921C508.665 78.1919 510.804 76.6167 512.856 74.9102C513.86 74.0788 514.82 73.2037 515.737 72.2848C516.173 71.8473 516.741 71.4097 516.959 70.8409C517.221 70.2283 517.221 69.572 517.265 68.9156C517.439 67.2967 517.57 65.6777 517.745 64.0587C517.789 63.7962 518.181 63.7962 518.138 64.0587C518.007 65.5464 517.832 67.0341 517.701 68.5218C517.658 69.1782 517.614 69.8783 517.483 70.5346C517.352 71.1472 516.959 71.6285 516.523 72.0661C514.646 73.9476 512.594 75.6978 510.455 77.3168C509.233 78.2357 507.967 79.1108 506.657 79.9421C506.439 80.0734 506.221 79.7234 506.439 79.5921Z" fill="#E38165"/>
<path d="M507.792 31.3733C508.316 37.1929 509.625 47.4755 509.625 47.4755C508.272 49.7946 503.339 49.4008 503.47 48.6132C503.558 48.1756 503.47 47.388 503.208 46.7317C503.034 46.2066 502.728 45.6815 502.379 45.419C502.204 45.2877 501.943 45.2877 501.593 45.244C501.55 45.244 501.506 45.244 501.506 45.244C499.891 45.244 496.704 45.8128 495.351 43.8C493.692 41.3059 493.605 34.4362 493.823 31.1545C493.954 29.273 495.613 26.6477 498.887 26.1226C502.903 25.51 507.268 25.5538 507.792 31.3733Z" fill="#ECB58C"/>
<path d="M502.554 32.2921C503.908 32.7734 505.304 33.2547 506.658 33.6923C507.312 33.911 507.967 34.1298 508.666 34.2173C509.102 34.2611 509.582 34.2611 509.931 33.9985C510.499 33.6047 510.543 32.8171 510.412 32.1608C510.15 30.5418 509.364 29.0104 508.229 27.7852C507.094 26.6038 505.654 25.7287 504.082 25.1598C503.384 24.8973 502.685 24.7223 501.987 24.6348C499.761 24.3285 497.403 25.0286 495.657 26.4288C495.395 26.6475 494.479 27.2601 494.435 27.6102C494.391 27.9602 495.395 28.6166 495.614 28.8353C496.574 29.5792 497.622 30.2355 498.713 30.7606C499.935 31.3294 501.245 31.8107 502.554 32.2921Z" fill="#141735"/>
<path d="M495.963 37.1935C496.006 37.5435 495.614 37.8498 495.09 37.9373C494.566 38.0249 494.086 37.8061 493.999 37.456C493.955 37.106 494.348 36.7997 494.872 36.7122C495.439 36.6247 495.919 36.8434 495.963 37.1935Z" fill="#E7998A"/>
<path d="M500.983 36.4496C501.026 36.7996 500.634 37.1059 500.11 37.1934C499.586 37.2809 499.106 37.0621 499.018 36.7121C498.975 36.362 499.368 36.0557 499.891 35.9682C500.415 35.8807 500.895 36.1433 500.983 36.4496Z" fill="#E7998A"/>
<path d="M499.106 33.0363C498.67 32.8613 498.189 32.8613 497.709 33.0363C497.622 33.0801 497.622 33.1676 497.622 33.2113C497.666 33.2988 497.753 33.2988 497.796 33.2988C497.927 33.2551 498.364 33.0801 498.975 33.2988C499.15 33.3426 499.281 33.0801 499.106 33.0363Z" fill="#141735"/>
<path d="M494.697 33.6489C495.09 33.3863 495.57 33.2551 496.05 33.2988C496.138 33.2988 496.181 33.3863 496.181 33.4738C496.181 33.5614 496.094 33.6051 496.007 33.6051C495.876 33.6051 495.439 33.5614 494.872 33.9114C494.697 33.9552 494.566 33.7364 494.697 33.6489Z" fill="#141735"/>
<path d="M497.622 37.5865C497.491 37.5427 497.36 37.5865 497.229 37.6302C497.098 37.7178 497.054 37.849 497.054 37.9803C497.054 38.1116 497.098 38.2428 497.185 38.3303C497.272 38.4179 497.403 38.5054 497.534 38.5491C497.622 38.5929 497.709 38.5491 497.709 38.4616C497.753 38.3741 497.709 38.3303 497.622 38.2866C497.578 38.2866 497.578 38.2866 497.534 38.2428C497.534 38.2428 497.534 38.2428 497.491 38.2428C497.534 38.2428 497.491 38.2428 497.491 38.2428C497.447 38.1991 497.403 38.1991 497.36 38.1553C497.36 38.1553 497.36 38.1553 497.316 38.1116C497.316 38.1116 497.316 38.1116 497.316 38.0678C497.316 38.0678 497.316 38.024 497.272 38.024C497.272 38.024 497.272 38.024 497.272 37.9803C497.272 37.9803 497.272 37.9803 497.272 37.9365C497.272 37.9365 497.272 37.9365 497.272 37.8928C497.272 37.8928 497.272 37.8928 497.316 37.8928H497.36C497.36 37.8928 497.36 37.8928 497.403 37.8928C497.447 37.8928 497.447 37.8928 497.491 37.8928C497.578 37.8928 497.622 37.849 497.665 37.7615C497.753 37.674 497.709 37.6302 497.622 37.5865Z" fill="#C89978"/>
<path d="M498.625 40.5188H498.669C498.974 40.4751 499.28 40.3438 499.498 40.1688C499.76 39.9937 499.935 39.7312 500.022 39.4249C500.066 39.3374 500.022 39.2499 499.935 39.2061C499.847 39.1624 499.76 39.2061 499.716 39.2936C499.629 39.5124 499.498 39.7312 499.28 39.8625C499.105 39.9937 498.843 40.125 498.625 40.125C498.538 40.125 498.45 40.2125 498.494 40.3C498.494 40.4313 498.581 40.5188 498.625 40.5188Z" fill="#CC7667"/>
<path d="M495.439 35.6181C495.439 35.9244 495.657 36.1869 495.919 36.1432C496.181 36.1432 496.356 35.8806 496.356 35.5306C496.356 35.2243 496.137 34.9618 495.875 35.0055C495.613 35.0493 495.395 35.3118 495.439 35.6181Z" fill="#362A14"/>
<path d="M498.146 35.2243C498.146 35.5306 498.364 35.7931 498.626 35.7494C498.888 35.7494 499.062 35.4868 499.062 35.1368C499.062 34.8305 498.844 34.568 498.582 34.6117C498.32 34.6555 498.146 34.918 498.146 35.2243Z" fill="#362A14"/>
<path d="M507.138 34.1737C507.618 33.6048 508.316 33.211 509.102 33.2986C509.844 33.3861 510.455 33.9111 510.63 34.6112C510.761 35.0925 510.717 35.6176 510.586 36.0989C510.499 36.624 510.324 37.1491 510.062 37.5866C509.582 38.4618 508.578 39.2494 507.531 38.8993C506.134 38.418 506.046 36.6678 506.439 35.4426C506.527 35.005 506.789 34.5237 507.138 34.1737Z" fill="#ECB58C"/>
<path d="M509.102 34.5232C508.447 34.6107 508.011 35.1358 507.749 35.6608C507.487 36.2297 507.312 36.8423 507.312 37.4986C507.312 37.6736 507.574 37.6736 507.574 37.4986C507.574 37.0173 507.661 36.4922 507.88 36.0547C508.229 35.8796 508.578 35.8359 508.971 35.8796C509.058 35.8796 509.102 35.8796 509.146 35.7921C509.146 35.7484 509.146 35.6608 509.058 35.6171C508.709 35.5296 508.36 35.5733 508.011 35.6608C508.273 35.2233 508.622 34.7857 509.146 34.742C509.32 34.742 509.277 34.5232 509.102 34.5232Z" fill="#C89978"/>
<path d="M503.34 45.0689C504.344 44.9377 505.305 44.5876 506.134 44.0625C506.309 43.9313 506.483 44.2376 506.309 44.3688C505.436 44.8939 504.432 45.2877 503.428 45.419C503.209 45.419 503.122 45.1127 503.34 45.0689Z" fill="#F8E8D3"/>
<path d="M370.678 98.5114C365.297 96.3152 362.71 90.162 364.901 84.7679C367.092 79.3737 373.231 76.7813 378.612 78.9775C383.993 81.1737 386.58 87.3269 384.389 92.7211C382.198 98.1152 376.059 100.708 370.678 98.5114Z" fill="#E38165"/>
<path d="M368.413 86.637H372.56V82.4802H376.707V86.637H380.897V90.7939H376.707V94.9507H372.56V90.7939H368.413V86.637Z" fill="white"/>
<path d="M538.698 82.4802L543.806 78.7172C545.464 77.492 545.857 75.1292 544.635 73.4227C543.413 71.76 541.056 71.3662 539.353 72.5913L534.246 76.3544L538.698 82.4802Z" fill="#3BCCBB"/>
<path d="M538.699 82.4803L533.592 86.2434C531.933 87.4685 529.532 87.1185 528.31 85.412C527.088 83.7493 527.437 81.3427 529.139 80.1175L534.247 76.3545L538.699 82.4803Z" fill="#269285"/>
<path d="M452.879 0H479.376C480.991 0 482.257 1.31268 482.257 2.8879V14.177C482.257 15.7959 480.947 17.0648 479.376 17.0648H478.546V20.4778L474.749 17.0648H452.923C451.308 17.0648 450.042 15.7522 450.042 14.177V2.8879C449.998 1.31268 451.308 0 452.879 0Z" fill="#E38165"/>
<path d="M456.022 4.55078H476.276C476.669 4.55078 477.018 4.90083 477.018 5.29463C477.018 5.68844 476.669 6.03849 476.276 6.03849H456.022C455.629 6.03849 455.28 5.68844 455.28 5.29463C455.28 4.90083 455.629 4.55078 456.022 4.55078Z" fill="#E38165"/>
<path d="M456.022 7.78906H476.276C476.669 7.78906 477.018 8.13911 477.018 8.53291C477.018 8.92672 476.669 9.27677 476.276 9.27677H456.022C455.629 9.27677 455.28 8.92672 455.28 8.53291C455.28 8.13911 455.629 7.78906 456.022 7.78906Z" fill="#E38165"/>
<path d="M456.022 11.0703H476.276C476.669 11.0703 477.018 11.4204 477.018 11.8142C477.018 12.208 476.669 12.558 476.276 12.558H456.022C455.629 12.558 455.28 12.208 455.28 11.8142C455.28 11.3766 455.629 11.0703 456.022 11.0703Z" fill="#E38165"/>
<path d="M361.691 12.4704L359.596 14.1331L360.818 15.6645L363.83 13.258L376.402 29.0976C377.187 30.0603 377.013 31.4605 376.052 32.2481L373.651 34.1733L378.671 40.518C378.802 40.693 378.802 40.9555 378.584 41.1305C378.41 41.2618 378.148 41.2618 377.973 41.043L372.953 34.6984L370.552 36.6237C369.592 37.4113 368.195 37.2363 367.409 36.2736L354.838 20.4777L357.85 18.0711L356.627 16.5397L354.532 18.2024L353.965 17.5023L361.123 11.7703L361.691 12.4704Z" fill="#269285"/>
<path d="M374.998 28.4765L375.297 28.853L373.043 30.6522L372.744 30.2757L374.998 28.4765Z" fill="#3BCCBB"/>
<path d="M374.096 27.3138L374.395 27.6902L373.269 28.5899L372.969 28.2135L374.096 27.3138Z" fill="#3BCCBB"/>
<path d="M373.172 26.1485L373.471 26.5249L371.218 28.3244L370.919 27.9479L373.172 26.1485Z" fill="#3BCCBB"/>
<path d="M372.2 24.9688L372.499 25.3452L371.372 26.2451L371.073 25.8686L372.2 24.9688Z" fill="#3BCCBB"/>
<path d="M371.289 23.8099L371.588 24.1863L369.335 25.986L369.036 25.6096L371.289 23.8099Z" fill="#3BCCBB"/>
<path d="M370.388 22.6392L370.687 23.0156L369.56 23.9153L369.261 23.5389L370.388 22.6392Z" fill="#3BCCBB"/>
<path d="M369.464 21.4732L369.764 21.8496L367.51 23.6491L367.211 23.2726L369.464 21.4732Z" fill="#3BCCBB"/>
<path d="M368.503 20.2942L368.802 20.6707L367.675 21.5702L367.376 21.1937L368.503 20.2942Z" fill="#3BCCBB"/>
<path d="M367.564 19.1314L367.863 19.5078L365.61 21.3075L365.311 20.9311L367.564 19.1314Z" fill="#3BCCBB"/>
<path d="M366.643 17.9934L366.942 18.3699L365.816 19.2696L365.516 18.8932L366.643 17.9934Z" fill="#3BCCBB"/>
<path d="M365.691 16.7942L365.991 17.1707L363.737 18.9701L363.438 18.5937L365.691 16.7942Z" fill="#3BCCBB"/>
<path d="M457.55 166.666H528.921C529.226 166.666 529.488 166.404 529.488 166.097C529.488 165.791 529.226 165.529 528.921 165.529H457.55C457.245 165.529 456.983 165.791 456.983 166.097C456.983 166.404 457.245 166.666 457.55 166.666Z" fill="#141735"/>
</g>
<path d="M24.459 61.6995H25.7969V55.7229H30.2793C32.61 55.7229 34.4199 56.3381 35.709 57.5686C36.998 58.7991 37.6426 60.5178 37.6426 62.7249C37.6426 65.0751 36.972 66.8752 35.6309 68.1252C34.2962 69.3752 32.3659 70.0002 29.8398 70.0002H25.7969V64.1799H24.459V61.6995ZM34.498 62.803C34.498 61.2926 34.1595 60.15 33.4824 59.3752C32.8053 58.594 31.7832 58.2034 30.416 58.2034H28.8242V61.6995H31.1387V64.1799H28.8242V67.5002H30.1035C33.0332 67.5002 34.498 65.9345 34.498 62.803ZM49.3418 70.0002L48.3066 66.6018H43.1016L42.0664 70.0002H38.8047L43.8438 55.6643H47.5449L52.6035 70.0002H49.3418ZM47.584 64.0627C46.627 60.9833 46.0866 59.2418 45.9629 58.8381C45.8457 58.4345 45.7611 58.1155 45.709 57.8811C45.4941 58.7144 44.8789 60.775 43.8633 64.0627H47.584ZM49.5469 51.2795C49.4688 52.2821 49.0716 53.0829 48.3555 53.6819C47.6393 54.2808 46.7409 54.5803 45.6602 54.5803C44.5273 54.5803 43.6224 54.2841 42.9453 53.6917C42.2747 53.0992 41.9134 52.2952 41.8613 51.2795H43.5215C43.5475 51.5855 43.6354 51.8264 43.7852 52.0022C43.9414 52.178 44.1562 52.3049 44.4297 52.3831C44.7096 52.4612 45.1263 52.5002 45.6797 52.5002C47.0208 52.5002 47.7435 52.0933 47.8477 51.2795H49.5469ZM44.0879 72.7444C44.0879 71.7678 44.6283 71.2795 45.709 71.2795C46.7897 71.2795 47.3301 71.7678 47.3301 72.7444C47.3301 73.2066 47.1934 73.5647 46.9199 73.8186C46.6465 74.0725 46.2428 74.1995 45.709 74.1995C44.6283 74.1995 44.0879 73.7144 44.0879 72.7444ZM59.918 70.0002H56.8906V58.2424H53.0137V55.7229H63.7949V58.2424H59.918V70.0002ZM71.1875 70.0002V55.7229H74.2148V67.5002H80.0059V70.0002H71.1875ZM82.4961 70.0002V55.7229H85.5234V70.0002H82.4961ZM82.3789 72.7444C82.3789 71.7678 82.9193 71.2795 84 71.2795C85.0807 71.2795 85.6211 71.7678 85.6211 72.7444C85.6211 73.2066 85.4844 73.5647 85.2109 73.8186C84.9375 74.0725 84.5339 74.1995 84 74.1995C82.9193 74.1995 82.3789 73.7144 82.3789 72.7444ZM95.1816 58.0374C94.0423 58.0374 93.1602 58.467 92.5352 59.3264C91.9102 60.1793 91.5977 61.3707 91.5977 62.9006C91.5977 66.0842 92.7923 67.676 95.1816 67.676C96.1842 67.676 97.3984 67.4254 98.8242 66.9241V69.4631C97.6523 69.9514 96.3438 70.1956 94.8984 70.1956C92.8216 70.1956 91.2331 69.5673 90.1328 68.3108C89.0326 67.0478 88.4824 65.2379 88.4824 62.8811C88.4824 61.3967 88.7526 60.0979 89.293 58.9846C89.8333 57.8648 90.6081 57.0087 91.6172 56.4163C92.6328 55.8173 93.821 55.5178 95.1816 55.5178C96.5684 55.5178 97.9616 55.8531 99.3613 56.5237L98.3848 58.9846C97.8509 58.7307 97.3138 58.5094 96.7734 58.3206C96.2331 58.1318 95.7025 58.0374 95.1816 58.0374ZM113.57 70.0002H110.553V63.8381H104.898V70.0002H101.871V55.7229H104.898V61.3186H110.553V55.7229H113.57V70.0002ZM133.863 70.0002H130.426L126.686 63.9846L125.406 64.9026V70.0002H122.379V55.7229H125.406V62.2561L126.598 60.5764L130.465 55.7229H133.824L128.844 62.0413L133.863 70.0002ZM147.359 70.0002H144.342V63.8381H138.688V70.0002H135.66V55.7229H138.688V61.3186H144.342V55.7229H147.359V70.0002ZM159.713 70.0002L158.678 66.6018H153.473L152.438 70.0002H149.176L154.215 55.6643H157.916L162.975 70.0002H159.713ZM157.955 64.0627C156.998 60.9833 156.458 59.2418 156.334 58.8381C156.217 58.4345 156.132 58.1155 156.08 57.8811C155.865 58.7144 155.25 60.775 154.234 64.0627H157.955ZM154.459 54.5803V54.3167C155.579 53.0146 156.344 52.0347 156.754 51.3772H160.094V51.5823C159.755 51.9208 159.176 52.4254 158.355 53.0959C157.542 53.76 156.904 54.2548 156.441 54.5803H154.459ZM170.826 70.0002L167.389 58.7991H167.301C167.424 61.0777 167.486 62.5979 167.486 63.3596V70.0002H164.781V55.7229H168.902L172.281 66.6409H172.34L175.924 55.7229H180.045V70.0002H177.223V63.2424C177.223 62.9234 177.226 62.5556 177.232 62.1389C177.245 61.7222 177.291 60.6155 177.369 58.8186H177.281L173.6 70.0002H170.826ZM201.803 62.842C201.803 65.2053 201.217 67.0217 200.045 68.2913C198.873 69.5608 197.193 70.1956 195.006 70.1956C192.818 70.1956 191.139 69.5608 189.967 68.2913C188.795 67.0217 188.209 65.1988 188.209 62.8225C188.209 60.4462 188.795 58.6331 189.967 57.3831C191.145 56.1265 192.831 55.4983 195.025 55.4983C197.219 55.4983 198.896 56.1298 200.055 57.3928C201.22 58.6558 201.803 60.4722 201.803 62.842ZM191.383 62.842C191.383 64.4371 191.686 65.6383 192.291 66.4456C192.896 67.2528 193.801 67.6565 195.006 67.6565C197.421 67.6565 198.629 66.0517 198.629 62.842C198.629 59.6259 197.428 58.0178 195.025 58.0178C193.821 58.0178 192.913 58.4247 192.301 59.2385C191.689 60.0458 191.383 61.247 191.383 62.842ZM217.428 70.0002H213.58L207.369 59.1995H207.281C207.405 61.107 207.467 62.4677 207.467 63.2815V70.0002H204.762V55.7229H208.58L214.781 66.4163H214.85C214.752 64.5608 214.703 63.2489 214.703 62.4807V55.7229H217.428V70.0002ZM221.031 70.0002V55.7229H224.059V67.5002H229.85V70.0002H221.031ZM232.34 70.0002V55.7229H235.367V70.0002H232.34ZM251.627 70.0002H247.779L241.568 59.1995H241.48C241.604 61.107 241.666 62.4677 241.666 63.2815V70.0002H238.961V55.7229H242.779L248.98 66.4163H249.049C248.951 64.5608 248.902 63.2489 248.902 62.4807V55.7229H251.627V70.0002ZM263.453 70.0002H255.23V55.7229H263.453V58.2034H258.258V61.3381H263.092V63.8186H258.258V67.5002H263.453V70.0002Z" fill="white"/>
<path d="M32.7217 102.271C32.7217 103.795 32.2964 104.965 31.4458 105.781C30.5952 106.594 29.3701 107 27.7705 107H25.2251V103.046H24.2983V101.776H25.2251V97.72H28.0562C29.5246 97.72 30.6693 98.1199 31.4902 98.9197C32.3112 99.7153 32.7217 100.832 32.7217 102.271ZM31.1221 102.322C31.1221 101.222 30.8576 100.392 30.3286 99.8337C29.8039 99.2709 29.0252 98.9895 27.9927 98.9895H26.7422V101.776H28.6909V103.046H26.7422V105.724H27.7578C30.0007 105.724 31.1221 104.59 31.1221 102.322ZM38.8898 107L38.5914 106.023H38.5407C38.2021 106.45 37.8615 106.742 37.5187 106.899C37.1759 107.051 36.7358 107.127 36.1984 107.127C35.5086 107.127 34.969 106.941 34.5797 106.569C34.1946 106.196 34.0021 105.669 34.0021 104.988C34.0021 104.264 34.2708 103.719 34.8082 103.35C35.3457 102.982 36.1645 102.781 37.2648 102.747L38.4772 102.709V102.335C38.4772 101.886 38.3714 101.552 38.1598 101.332C37.9524 101.108 37.6287 100.995 37.1886 100.995C36.8289 100.995 36.484 101.048 36.1539 101.154C35.8239 101.26 35.5065 101.385 35.2018 101.529L34.7194 100.462C35.1002 100.263 35.5171 100.113 35.9699 100.011C36.4227 99.9057 36.8501 99.8528 37.2521 99.8528C38.145 99.8528 38.8178 100.047 39.2706 100.437C39.7277 100.826 39.9562 101.438 39.9562 102.271V107H38.8898ZM36.6681 105.985C37.2098 105.985 37.6435 105.834 37.9694 105.534C38.2994 105.229 38.4645 104.804 38.4645 104.258V103.649L37.5631 103.687C36.8606 103.712 36.3486 103.831 36.027 104.042C35.7096 104.25 35.5509 104.569 35.5509 105.001C35.5509 105.314 35.644 105.557 35.8302 105.731C36.0164 105.9 36.2957 105.985 36.6681 105.985ZM37.1378 99.1228C36.4734 99.1228 35.9487 98.9556 35.5636 98.6213C35.1827 98.2828 34.9754 97.8088 34.9415 97.1995H35.8112C35.8323 97.4026 35.8894 97.5655 35.9825 97.6882C36.0756 97.8067 36.2068 97.8914 36.3761 97.9421C36.5496 97.9929 36.812 98.0183 37.1632 98.0183C37.6075 98.0183 37.9355 97.9485 38.1471 97.8088C38.3629 97.6692 38.4856 97.4661 38.5153 97.1995H39.4039C39.3532 97.7961 39.1246 98.2659 38.7184 98.6086C38.3121 98.9514 37.7853 99.1228 37.1378 99.1228ZM36.1349 108.663C36.1349 108.397 36.2068 108.191 36.3507 108.048C36.4988 107.904 36.7083 107.832 36.9791 107.832C37.25 107.832 37.4552 107.904 37.5949 108.048C37.7387 108.196 37.8107 108.401 37.8107 108.663C37.8107 108.913 37.7387 109.112 37.5949 109.26C37.451 109.408 37.2457 109.482 36.9791 109.482C36.7083 109.482 36.4988 109.408 36.3507 109.26C36.2068 109.116 36.1349 108.917 36.1349 108.663ZM44.5754 105.921C44.9394 105.921 45.3033 105.864 45.6672 105.75V106.873C45.5022 106.945 45.2885 107.004 45.0261 107.051C44.768 107.102 44.4993 107.127 44.22 107.127C42.8066 107.127 42.0999 106.382 42.0999 104.893V101.11H41.1414V100.449L42.1697 99.9036L42.6775 98.4182H43.5979V99.9797H45.5974V101.11H43.5979V104.867C43.5979 105.227 43.6868 105.494 43.8645 105.667C44.0465 105.837 44.2835 105.921 44.5754 105.921ZM51.7891 107H50.2974V97.1233H51.7891V107ZM55.3419 107H53.8502V99.9797H55.3419V107ZM53.7614 98.1199C53.7614 97.8533 53.8333 97.648 53.9772 97.5042C54.1253 97.3603 54.3348 97.2883 54.6056 97.2883C54.868 97.2883 55.0711 97.3603 55.215 97.5042C55.3631 97.648 55.4371 97.8533 55.4371 98.1199C55.4371 98.3738 55.3631 98.5748 55.215 98.7229C55.0711 98.8668 54.868 98.9387 54.6056 98.9387C54.3348 98.9387 54.1253 98.8668 53.9772 98.7229C53.8333 98.5748 53.7614 98.3738 53.7614 98.1199ZM53.7423 108.663C53.7423 108.397 53.8143 108.191 53.9581 108.048C54.1063 107.904 54.3157 107.832 54.5866 107.832C54.8574 107.832 55.0626 107.904 55.2023 108.048C55.3462 108.196 55.4181 108.401 55.4181 108.663C55.4181 108.913 55.3462 109.112 55.2023 109.26C55.0584 109.408 54.8532 109.482 54.5866 109.482C54.3157 109.482 54.1063 109.408 53.9581 109.26C53.8143 109.116 53.7423 108.917 53.7423 108.663ZM60.2341 107.127C59.172 107.127 58.3637 106.818 57.8093 106.2C57.2592 105.578 56.9841 104.688 56.9841 103.528C56.9841 102.347 57.2719 101.44 57.8474 100.805C58.4272 100.17 59.263 99.8528 60.3548 99.8528C61.0953 99.8528 61.7618 99.9903 62.3543 100.265L61.9036 101.465C61.273 101.22 60.7525 101.097 60.3421 101.097C59.1275 101.097 58.5203 101.903 58.5203 103.515C58.5203 104.302 58.6705 104.895 58.971 105.293C59.2757 105.686 59.72 105.883 60.304 105.883C60.9684 105.883 61.5968 105.718 62.1892 105.388V106.689C61.9226 106.846 61.637 106.958 61.3323 107.026C61.0318 107.093 60.6658 107.127 60.2341 107.127ZM69.9379 107H68.4398V102.684C68.4398 102.142 68.3298 101.738 68.1098 101.471C67.8939 101.205 67.5491 101.072 67.0751 101.072C66.4488 101.072 65.9875 101.26 65.6913 101.636C65.3993 102.009 65.2533 102.635 65.2533 103.515V107H63.7616V97.1233H65.2533V99.6306C65.2533 100.033 65.2279 100.462 65.1771 100.919H65.2724C65.4755 100.581 65.7569 100.318 66.1166 100.132C66.4805 99.9459 66.9037 99.8528 67.3861 99.8528C69.0873 99.8528 69.9379 100.71 69.9379 102.424V107ZM76.6754 103.293L77.5197 102.24L79.6398 99.9797H81.36L78.5353 102.995L81.5377 107H79.7858L77.5324 103.922L76.7135 104.594V107H75.2345V97.1233H76.7135V101.941L76.6374 103.293H76.6754ZM88.7722 107H87.2742V102.684C87.2742 102.142 87.1642 101.738 86.9441 101.471C86.7283 101.205 86.3834 101.072 85.9095 101.072C85.2832 101.072 84.8219 101.26 84.5257 101.636C84.2337 102.009 84.0877 102.635 84.0877 103.515V107H82.596V97.1233H84.0877V99.6306C84.0877 100.033 84.0623 100.462 84.0115 100.919H84.1067C84.3098 100.581 84.5913 100.318 84.951 100.132C85.3149 99.9459 85.7381 99.8528 86.2205 99.8528C87.9217 99.8528 88.7722 100.71 88.7722 102.424V107ZM95.1625 107L94.8642 106.023H94.8134C94.4748 106.45 94.1342 106.742 93.7914 106.899C93.4486 107.051 93.0085 107.127 92.4711 107.127C91.7813 107.127 91.2418 106.941 90.8524 106.569C90.4674 106.196 90.2748 105.669 90.2748 104.988C90.2748 104.264 90.5435 103.719 91.081 103.35C91.6184 102.982 92.4372 102.781 93.5375 102.747L94.7499 102.709V102.335C94.7499 101.886 94.6441 101.552 94.4325 101.332C94.2252 101.108 93.9014 100.995 93.4613 100.995C93.1016 100.995 92.7567 101.048 92.4267 101.154C92.0966 101.26 91.7792 101.385 91.4745 101.529L90.9921 100.462C91.373 100.263 91.7898 100.113 92.2426 100.011C92.6954 99.9057 93.1228 99.8528 93.5248 99.8528C94.4177 99.8528 95.0906 100.047 95.5434 100.437C96.0004 100.826 96.2289 101.438 96.2289 102.271V107H95.1625ZM92.9408 105.985C93.4825 105.985 93.9162 105.834 94.2421 105.534C94.5722 105.229 94.7372 104.804 94.7372 104.258V103.649L93.8358 103.687C93.1334 103.712 92.6213 103.831 92.2997 104.042C91.9823 104.25 91.8236 104.569 91.8236 105.001C91.8236 105.314 91.9167 105.557 92.1029 105.731C92.2891 105.9 92.5684 105.985 92.9408 105.985ZM92.4838 99.1228V98.9641C92.725 98.6679 92.9726 98.3378 93.2265 97.9739C93.4846 97.6099 93.6877 97.2989 93.8358 97.0408H95.5688V97.1741C95.3487 97.4322 95.0186 97.7665 94.5785 98.177C94.1426 98.5833 93.7745 98.8985 93.474 99.1228H92.4838ZM104.149 107H102.651V102.671C102.651 102.134 102.549 101.734 102.346 101.471C102.143 101.205 101.826 101.072 101.394 101.072C100.819 101.072 100.395 101.26 100.125 101.636C99.8579 102.009 99.7246 102.631 99.7246 103.503V107H98.2329V99.9797H99.4009L99.6104 100.9H99.6866C99.8812 100.566 100.163 100.308 100.531 100.126C100.903 99.9438 101.312 99.8528 101.756 99.8528C102.835 99.8528 103.55 100.221 103.901 100.957H104.003C104.21 100.61 104.502 100.339 104.879 100.145C105.256 99.9501 105.687 99.8528 106.174 99.8528C107.012 99.8528 107.621 100.064 108.002 100.488C108.387 100.911 108.58 101.556 108.58 102.424V107H107.088V102.671C107.088 102.134 106.984 101.734 106.777 101.471C106.574 101.205 106.256 101.072 105.825 101.072C105.245 101.072 104.82 101.253 104.549 101.617C104.282 101.977 104.149 102.531 104.149 103.281V107ZM116.498 105.921C116.862 105.921 117.226 105.864 117.59 105.75V106.873C117.425 106.945 117.211 107.004 116.949 107.051C116.69 107.102 116.422 107.127 116.142 107.127C114.729 107.127 114.022 106.382 114.022 104.893V101.11H113.064V100.449L114.092 99.9036L114.6 98.4182H115.52V99.9797H117.52V101.11H115.52V104.867C115.52 105.227 115.609 105.494 115.787 105.667C115.969 105.837 116.206 105.921 116.498 105.921ZM123.872 107L123.663 106.08H123.574C123.366 106.406 123.074 106.662 122.698 106.848C122.325 107.034 121.894 107.127 121.403 107.127C120.548 107.127 119.909 106.916 119.486 106.492C119.067 106.069 118.857 105.428 118.857 104.569V99.9797H120.362V104.309C120.362 104.846 120.472 105.25 120.692 105.521C120.912 105.788 121.257 105.921 121.726 105.921C122.353 105.921 122.812 105.735 123.104 105.363C123.4 104.986 123.548 104.358 123.548 103.477V99.9797H125.046V100.735C125.381 100.659 125.626 100.473 125.783 100.177C125.939 99.8761 126.018 99.4508 126.018 98.9006H127.541L127.63 99.0466C127.511 99.6602 127.348 100.138 127.141 100.481C126.934 100.82 126.656 101.095 126.309 101.306C125.967 101.514 125.546 101.647 125.046 101.706V107H123.872ZM132.996 107L130.33 99.9797H131.904L133.333 104.061C133.578 104.747 133.726 105.301 133.777 105.724H133.828C133.866 105.42 134.014 104.865 134.272 104.061L135.7 99.9797H137.287L134.609 107H132.996ZM142.668 107L142.37 106.023H142.319C141.981 106.45 141.64 106.742 141.297 106.899C140.954 107.051 140.514 107.127 139.977 107.127C139.287 107.127 138.748 106.941 138.358 106.569C137.973 106.196 137.781 105.669 137.781 104.988C137.781 104.264 138.049 103.719 138.587 103.35C139.124 102.982 139.943 102.781 141.043 102.747L142.256 102.709V102.335C142.256 101.886 142.15 101.552 141.938 101.332C141.731 101.108 141.407 100.995 140.967 100.995C140.607 100.995 140.263 101.048 139.932 101.154C139.602 101.26 139.285 101.385 138.98 101.529L138.498 100.462C138.879 100.263 139.296 100.113 139.748 100.011C140.201 99.9057 140.629 99.8528 141.031 99.8528C141.923 99.8528 142.596 100.047 143.049 100.437C143.506 100.826 143.735 101.438 143.735 102.271V107H142.668ZM140.447 105.985C140.988 105.985 141.422 105.834 141.748 105.534C142.078 105.229 142.243 104.804 142.243 104.258V103.649L141.342 103.687C140.639 103.712 140.127 103.831 139.805 104.042C139.488 104.25 139.329 104.569 139.329 105.001C139.329 105.314 139.422 105.557 139.609 105.731C139.795 105.9 140.074 105.985 140.447 105.985ZM143.1 99.1228H142.294C141.82 98.8054 141.373 98.4542 140.954 98.0691C140.472 98.4965 140.026 98.8477 139.615 99.1228H138.796V98.9641C139.456 98.1982 139.915 97.6269 140.174 97.2502H141.735C142.108 97.7919 142.562 98.3632 143.1 98.9641V99.1228ZM142.567 97.7327C142.918 97.3137 143.199 96.8842 143.411 96.4441H144.725V96.5774C144.433 96.9667 143.978 97.4026 143.36 97.885H142.567V97.7327ZM151.915 107H150.417V102.684C150.417 102.142 150.307 101.738 150.087 101.471C149.871 101.205 149.526 101.072 149.052 101.072C148.422 101.072 147.96 101.258 147.668 101.63C147.376 102.003 147.23 102.627 147.23 103.503V107H145.739V99.9797H146.907L147.116 100.9H147.192C147.404 100.566 147.704 100.308 148.094 100.126C148.483 99.9438 148.915 99.8528 149.389 99.8528C151.073 99.8528 151.915 100.71 151.915 102.424V107ZM159.827 105.921C160.191 105.921 160.555 105.864 160.919 105.75V106.873C160.754 106.945 160.54 107.004 160.278 107.051C160.019 107.102 159.751 107.127 159.471 107.127C158.058 107.127 157.351 106.382 157.351 104.893V101.11H156.393V100.449L157.421 99.9036L157.929 98.4182H158.849V99.9797H160.849V101.11H158.849V104.867C158.849 105.227 158.938 105.494 159.116 105.667C159.298 105.837 159.535 105.921 159.827 105.921ZM165.811 99.8528C166.111 99.8528 166.359 99.8739 166.554 99.9163L166.408 101.306C166.196 101.256 165.976 101.23 165.747 101.23C165.151 101.23 164.666 101.425 164.294 101.814C163.926 102.204 163.742 102.709 163.742 103.331V107H162.25V99.9797H163.418L163.615 101.218H163.691C163.923 100.799 164.226 100.466 164.598 100.221C164.975 99.9755 165.379 99.8528 165.811 99.8528ZM172.734 107L172.525 106.08H172.436C172.229 106.406 171.937 106.662 171.56 106.848C171.188 107.034 170.756 107.127 170.265 107.127C169.41 107.127 168.771 106.916 168.348 106.492C167.929 106.069 167.72 105.428 167.72 104.569V99.9797H169.224V104.309C169.224 104.846 169.334 105.25 169.554 105.521C169.774 105.788 170.119 105.921 170.589 105.921C171.215 105.921 171.674 105.735 171.966 105.363C172.262 104.986 172.411 104.358 172.411 103.477V99.9797H173.909V100.735C174.243 100.659 174.488 100.473 174.645 100.177C174.802 99.8761 174.88 99.4508 174.88 98.9006H176.403L176.492 99.0466C176.374 99.6602 176.211 100.138 176.003 100.481C175.796 100.82 175.519 101.095 175.172 101.306C174.829 101.514 174.408 101.647 173.909 101.706V107H172.734ZM169.846 108.663C169.846 108.397 169.918 108.191 170.062 108.048C170.21 107.904 170.42 107.832 170.69 107.832C170.961 107.832 171.166 107.904 171.306 108.048C171.45 108.196 171.522 108.401 171.522 108.663C171.522 108.913 171.45 109.112 171.306 109.26C171.162 109.408 170.957 109.482 170.69 109.482C170.42 109.482 170.21 109.408 170.062 109.26C169.918 109.116 169.846 108.917 169.846 108.663ZM179.791 107.127C178.729 107.127 177.921 106.818 177.366 106.2C176.816 105.578 176.541 104.688 176.541 103.528C176.541 102.347 176.829 101.44 177.404 100.805C177.984 100.17 178.82 99.8528 179.912 99.8528C180.652 99.8528 181.319 99.9903 181.911 100.265L181.461 101.465C180.83 101.22 180.309 101.097 179.899 101.097C178.684 101.097 178.077 101.903 178.077 103.515C178.077 104.302 178.227 104.895 178.528 105.293C178.833 105.686 179.277 105.883 179.861 105.883C180.525 105.883 181.154 105.718 181.746 105.388V106.689C181.48 106.846 181.194 106.958 180.889 107.026C180.589 107.093 180.223 107.127 179.791 107.127ZM189.233 105.921C189.597 105.921 189.961 105.864 190.325 105.75V106.873C190.16 106.945 189.946 107.004 189.683 107.051C189.425 107.102 189.157 107.127 188.877 107.127C187.464 107.127 186.757 106.382 186.757 104.893V101.11H185.799V100.449L186.827 99.9036L187.335 98.4182H188.255V99.9797H190.255V101.11H188.255V104.867C188.255 105.227 188.344 105.494 188.522 105.667C188.704 105.837 188.941 105.921 189.233 105.921ZM196.607 107L196.397 106.08H196.321C196.114 106.406 195.818 106.662 195.433 106.848C195.052 107.034 194.616 107.127 194.125 107.127C193.274 107.127 192.64 106.916 192.221 106.492C191.802 106.069 191.592 105.428 191.592 104.569V99.9797H193.097V104.309C193.097 104.846 193.207 105.25 193.427 105.521C193.647 105.788 193.992 105.921 194.461 105.921C195.088 105.921 195.547 105.735 195.839 105.363C196.135 104.986 196.283 104.358 196.283 103.477V99.9797H197.781V107H196.607ZM198.763 99.9797H200.388L201.816 103.96C202.032 104.527 202.176 105.06 202.248 105.559H202.299C202.337 105.327 202.407 105.045 202.508 104.715C202.61 104.381 203.147 102.802 204.121 99.9797H205.733L202.731 107.933C202.185 109.393 201.275 110.123 200.001 110.123C199.671 110.123 199.349 110.087 199.036 110.015V108.835C199.26 108.885 199.517 108.911 199.804 108.911C200.524 108.911 201.029 108.494 201.321 107.66L201.582 107L198.763 99.9797ZM209.787 107.127C208.696 107.127 207.841 106.81 207.223 106.175C206.609 105.536 206.302 104.658 206.302 103.541C206.302 102.394 206.588 101.493 207.159 100.837C207.731 100.181 208.516 99.8528 209.514 99.8528C210.441 99.8528 211.173 100.134 211.711 100.697C212.248 101.26 212.517 102.034 212.517 103.02V103.826H207.839C207.86 104.508 208.044 105.032 208.391 105.401C208.738 105.765 209.227 105.947 209.857 105.947C210.272 105.947 210.657 105.908 211.012 105.832C211.372 105.752 211.757 105.621 212.168 105.439V106.651C211.804 106.825 211.436 106.947 211.063 107.019C210.691 107.091 210.266 107.127 209.787 107.127ZM209.514 100.983C209.04 100.983 208.66 101.133 208.372 101.433C208.088 101.734 207.919 102.172 207.864 102.747H211.051C211.042 102.168 210.902 101.73 210.632 101.433C210.361 101.133 209.988 100.983 209.514 100.983ZM211.647 99.1228H210.841C210.367 98.8054 209.921 98.4542 209.502 98.0691C209.019 98.4965 208.573 98.8477 208.162 99.1228H207.343V98.9641C208.004 98.1982 208.463 97.6269 208.721 97.2502H210.282C210.655 97.7919 211.11 98.3632 211.647 98.9641V99.1228ZM211.114 97.7327C211.465 97.3137 211.747 96.8842 211.958 96.4441H213.272V96.5774C212.98 96.9667 212.525 97.4026 211.907 97.885H211.114V97.7327ZM220.31 107H218.812V102.684C218.812 102.142 218.702 101.738 218.482 101.471C218.266 101.205 217.921 101.072 217.447 101.072C216.817 101.072 216.355 101.258 216.063 101.63C215.771 102.003 215.625 102.627 215.625 103.503V107H214.134V99.9797H215.302L215.511 100.9H215.587C215.799 100.566 216.099 100.308 216.489 100.126C216.878 99.9438 217.31 99.8528 217.784 99.8528C219.468 99.8528 220.31 100.71 220.31 102.424V107ZM27.8975 125.127C26.8353 125.127 26.027 124.818 25.4727 124.2C24.9225 123.578 24.6475 122.688 24.6475 121.528C24.6475 120.347 24.9352 119.44 25.5107 118.805C26.0905 118.17 26.9263 117.853 28.0181 117.853C28.7586 117.853 29.4251 117.99 30.0176 118.265L29.5669 119.465C28.9364 119.22 28.4159 119.097 28.0054 119.097C26.7909 119.097 26.1836 119.903 26.1836 121.515C26.1836 122.302 26.3338 122.895 26.6343 123.293C26.939 123.686 27.3833 123.883 27.9673 123.883C28.6317 123.883 29.2601 123.718 29.8525 123.388V124.689C29.5859 124.846 29.3003 124.958 28.9956 125.026C28.6951 125.093 28.3291 125.127 27.8975 125.127ZM36.3761 125L36.1666 124.08H36.0905C35.8831 124.406 35.5869 124.662 35.2018 124.848C34.8209 125.034 34.3851 125.127 33.8942 125.127C33.0436 125.127 32.4088 124.916 31.9899 124.492C31.5709 124.069 31.3615 123.428 31.3615 122.569V117.98H32.8658V122.309C32.8658 122.846 32.9759 123.25 33.1959 123.521C33.416 123.788 33.7609 123.921 34.2306 123.921C34.8569 123.921 35.316 123.735 35.608 123.363C35.9043 122.986 36.0524 122.358 36.0524 121.477V117.98H37.5504V125H36.3761ZM34.275 117.123C33.983 116.903 33.6128 116.585 33.1642 116.171C32.7199 115.752 32.3961 115.42 32.193 115.174V115.041H33.9259C34.0867 115.337 34.3046 115.678 34.5797 116.063C34.859 116.448 35.0918 116.748 35.278 116.964V117.123H34.275ZM45.7752 125H44.2771V120.684C44.2771 120.142 44.1671 119.738 43.947 119.471C43.7312 119.205 43.3863 119.072 42.9124 119.072C42.2818 119.072 41.8206 119.258 41.5286 119.63C41.2366 120.003 41.0906 120.627 41.0906 121.503V125H39.5989V117.98H40.7669L40.9763 118.9H41.0525C41.2641 118.566 41.5645 118.308 41.9539 118.126C42.3432 117.944 42.7748 117.853 43.2488 117.853C44.933 117.853 45.7752 118.71 45.7752 120.424V125ZM53.7015 117.98V118.799L52.5018 119.021C52.6119 119.169 52.7028 119.351 52.7748 119.567C52.8467 119.782 52.8827 120.011 52.8827 120.252C52.8827 120.976 52.633 121.545 52.1337 121.96C51.6343 122.374 50.9467 122.582 50.0707 122.582C49.8464 122.582 49.6433 122.565 49.4613 122.531C49.1397 122.73 48.9789 122.963 48.9789 123.229C48.9789 123.39 49.0529 123.511 49.2011 123.591C49.3534 123.671 49.6306 123.712 50.0326 123.712H51.2577C52.0321 123.712 52.6203 123.877 53.0223 124.207C53.4244 124.537 53.6254 125.013 53.6254 125.635C53.6254 126.431 53.2974 127.044 52.6415 127.476C51.9856 127.907 51.0376 128.123 49.7977 128.123C48.8414 128.123 48.1114 127.954 47.6078 127.615C47.1042 127.277 46.8524 126.795 46.8524 126.168C46.8524 125.737 46.9878 125.373 47.2587 125.076C47.5337 124.784 47.9167 124.581 48.4076 124.467C48.2087 124.382 48.0437 124.247 47.9125 124.061C47.7855 123.87 47.7221 123.671 47.7221 123.464C47.7221 123.202 47.7961 122.98 47.9442 122.798C48.0923 122.616 48.3124 122.436 48.6044 122.258C48.2404 122.101 47.9442 121.848 47.7157 121.496C47.4914 121.141 47.3793 120.726 47.3793 120.252C47.3793 119.49 47.6184 118.9 48.0966 118.481C48.579 118.062 49.2645 117.853 50.1532 117.853C50.3521 117.853 50.5595 117.868 50.7753 117.897C50.9953 117.923 51.1604 117.95 51.2704 117.98H53.7015ZM48.1854 126.092C48.1854 126.414 48.3293 126.661 48.6171 126.835C48.9091 127.008 49.3174 127.095 49.8422 127.095C50.6547 127.095 51.2598 126.979 51.6576 126.746C52.0554 126.513 52.2543 126.204 52.2543 125.819C52.2543 125.514 52.1443 125.296 51.9242 125.165C51.7084 125.038 51.3042 124.975 50.7118 124.975H49.5819C49.1545 124.975 48.8139 125.074 48.5599 125.273C48.3103 125.476 48.1854 125.749 48.1854 126.092ZM48.8265 120.252C48.8265 120.692 48.9387 121.031 49.163 121.268C49.3915 121.505 49.7173 121.623 50.1405 121.623C51.0038 121.623 51.4354 121.162 51.4354 120.24C51.4354 119.782 51.3275 119.431 51.1117 119.186C50.9001 118.936 50.5764 118.811 50.1405 118.811C49.7089 118.811 49.3809 118.934 49.1566 119.179C48.9366 119.425 48.8265 119.782 48.8265 120.252ZM61.8165 117.853C62.6925 117.853 63.3738 118.17 63.8605 118.805C64.3514 119.44 64.5968 120.33 64.5968 121.477C64.5968 122.628 64.3493 123.525 63.8541 124.169C63.359 124.808 62.6714 125.127 61.7912 125.127C60.9025 125.127 60.2127 124.808 59.7218 124.169H59.6203L59.3473 125H58.2301V115.123H59.7218V117.472C59.7218 117.645 59.7134 117.904 59.6964 118.246C59.6795 118.589 59.6668 118.807 59.6583 118.9H59.7218C60.1958 118.202 60.894 117.853 61.8165 117.853ZM61.4293 119.072C60.8284 119.072 60.3947 119.249 60.1281 119.605C59.8657 119.956 59.7303 120.546 59.7218 121.376V121.477C59.7218 122.332 59.8572 122.952 60.1281 123.337C60.3989 123.718 60.8411 123.908 61.4547 123.908C61.9837 123.908 62.3836 123.699 62.6544 123.28C62.9295 122.861 63.067 122.256 63.067 121.465C63.067 119.869 62.5211 119.072 61.4293 119.072ZM70.6443 125L70.346 124.023H70.2952C69.9566 124.45 69.616 124.742 69.2732 124.899C68.9304 125.051 68.4903 125.127 67.9529 125.127C67.2631 125.127 66.7236 124.941 66.3342 124.569C65.9492 124.196 65.7566 123.669 65.7566 122.988C65.7566 122.264 66.0253 121.719 66.5628 121.35C67.1002 120.982 67.919 120.781 69.0193 120.747L70.2317 120.709V120.335C70.2317 119.886 70.1259 119.552 69.9143 119.332C69.707 119.108 69.3832 118.995 68.9431 118.995C68.5834 118.995 68.2385 119.048 67.9085 119.154C67.5784 119.26 67.261 119.385 66.9563 119.529L66.4739 118.462C66.8548 118.263 67.2716 118.113 67.7244 118.011C68.1772 117.906 68.6046 117.853 69.0066 117.853C69.8995 117.853 70.5724 118.047 71.0252 118.437C71.4822 118.826 71.7107 119.438 71.7107 120.271V125H70.6443ZM68.4226 123.985C68.9643 123.985 69.398 123.834 69.7239 123.534C70.054 123.229 70.219 122.804 70.219 122.258V121.649L69.3176 121.687C68.6152 121.712 68.1031 121.831 67.7815 122.042C67.4641 122.25 67.3054 122.569 67.3054 123.001C67.3054 123.314 67.3985 123.557 67.5847 123.731C67.7709 123.9 68.0502 123.985 68.4226 123.985ZM67.9656 117.123V116.964C68.2068 116.668 68.4544 116.338 68.7083 115.974C68.9664 115.61 69.1695 115.299 69.3176 115.041H71.0506V115.174C70.8305 115.432 70.5004 115.767 70.0603 116.177C69.6244 116.583 69.2563 116.899 68.9558 117.123H67.9656ZM76.5458 125.127C75.4836 125.127 74.6754 124.818 74.121 124.2C73.5709 123.578 73.2958 122.688 73.2958 121.528C73.2958 120.347 73.5836 119.44 74.1591 118.805C74.7388 118.17 75.5746 117.853 76.6664 117.853C77.407 117.853 78.0735 117.99 78.6659 118.265L78.2152 119.465C77.5847 119.22 77.0642 119.097 76.6537 119.097C75.4392 119.097 74.8319 119.903 74.8319 121.515C74.8319 122.302 74.9822 122.895 75.2826 123.293C75.5873 123.686 76.0316 123.883 76.6156 123.883C77.28 123.883 77.9084 123.718 78.5009 123.388V124.689C78.2343 124.846 77.9486 124.958 77.6439 125.026C77.3435 125.093 76.9774 125.127 76.5458 125.127ZM88.0885 123.001C88.0885 123.686 87.8389 124.213 87.3395 124.581C86.8402 124.945 86.125 125.127 85.194 125.127C84.2588 125.127 83.5076 124.985 82.9406 124.702V123.413C83.7658 123.794 84.5338 123.985 85.2448 123.985C86.1631 123.985 86.6222 123.707 86.6222 123.153C86.6222 122.975 86.5714 122.827 86.4699 122.709C86.3683 122.59 86.2012 122.468 85.9684 122.341C85.7357 122.214 85.4119 122.07 84.9972 121.909C84.189 121.596 83.6409 121.283 83.3532 120.969C83.0696 120.656 82.9279 120.25 82.9279 119.751C82.9279 119.15 83.1691 118.684 83.6515 118.354C84.1382 118.02 84.7983 117.853 85.632 117.853C86.4572 117.853 87.2379 118.02 87.9743 118.354L87.4918 119.478C86.7344 119.165 86.0975 119.008 85.5812 119.008C84.7941 119.008 84.4005 119.232 84.4005 119.681C84.4005 119.901 84.5021 120.087 84.7052 120.24C84.9126 120.392 85.3612 120.601 86.0509 120.868C86.6307 121.092 87.0517 121.297 87.3141 121.484C87.5765 121.67 87.7711 121.886 87.8981 122.131C88.0251 122.372 88.0885 122.662 88.0885 123.001ZM91.1209 125H89.6292V117.98H91.1209V125ZM91.324 117.123C91.1463 117.123 90.9707 117.087 90.7971 117.015C90.6279 116.939 90.4607 116.856 90.2957 116.767C90.1306 116.674 89.9698 116.592 89.8133 116.52C89.6567 116.444 89.5065 116.406 89.3626 116.406C89.0198 116.406 88.7892 116.649 88.6707 117.135H87.8963C87.9471 116.547 88.1121 116.099 88.3914 115.79C88.6665 115.481 89.0198 115.326 89.4514 115.326C89.6334 115.326 89.8111 115.365 89.9846 115.441C90.1582 115.513 90.3274 115.595 90.4925 115.688C90.6575 115.777 90.8162 115.86 90.9685 115.936C91.1251 116.008 91.2753 116.044 91.4192 116.044C91.7535 116.044 91.9778 115.8 92.0921 115.314H92.8855C92.8347 115.881 92.6718 116.325 92.3968 116.647C92.1217 116.964 91.7641 117.123 91.324 117.123ZM99.312 125.127C98.2499 125.127 97.4416 124.818 96.8872 124.2C96.3371 123.578 96.062 122.688 96.062 121.528C96.062 120.347 96.3498 119.44 96.9253 118.805C97.5051 118.17 98.3409 117.853 99.4327 117.853C100.173 117.853 100.84 117.99 101.432 118.265L100.981 119.465C100.351 119.22 99.8304 119.097 99.42 119.097C98.2054 119.097 97.5982 119.903 97.5982 121.515C97.5982 122.302 97.7484 122.895 98.0489 123.293C98.3536 123.686 98.7979 123.883 99.3819 123.883C100.046 123.883 100.675 123.718 101.267 123.388V124.689C101.001 124.846 100.715 124.958 100.41 125.026C100.11 125.093 99.7437 125.127 99.312 125.127ZM109.016 125H107.518V120.684C107.518 120.142 107.408 119.738 107.188 119.471C106.972 119.205 106.627 119.072 106.153 119.072C105.527 119.072 105.065 119.26 104.769 119.636C104.477 120.009 104.331 120.635 104.331 121.515V125H102.84V115.123H104.331V117.631C104.331 118.033 104.306 118.462 104.255 118.919H104.35C104.553 118.581 104.835 118.318 105.194 118.132C105.558 117.946 105.982 117.853 106.464 117.853C108.165 117.853 109.016 118.71 109.016 120.424V125ZM115.965 125L115.755 124.08H115.679C115.472 124.406 115.175 124.662 114.79 124.848C114.409 125.034 113.974 125.127 113.483 125.127C112.632 125.127 111.997 124.916 111.578 124.492C111.159 124.069 110.95 123.428 110.95 122.569V117.98H112.454V122.309C112.454 122.846 112.564 123.25 112.784 123.521C113.005 123.788 113.349 123.921 113.819 123.921C114.445 123.921 114.905 123.735 115.197 123.363C115.493 122.986 115.641 122.358 115.641 121.477V117.98H117.139V125H115.965ZM118.121 117.98H119.746L121.174 121.96C121.39 122.527 121.534 123.06 121.606 123.559H121.657C121.695 123.327 121.765 123.045 121.866 122.715C121.968 122.381 122.505 120.802 123.478 117.98H125.091L122.088 125.933C121.542 127.393 120.633 128.123 119.359 128.123C119.029 128.123 118.707 128.087 118.394 128.015V126.835C118.618 126.885 118.874 126.911 119.162 126.911C119.881 126.911 120.387 126.494 120.679 125.66L120.939 125L118.121 117.98ZM129.145 125.127C128.053 125.127 127.198 124.81 126.581 124.175C125.967 123.536 125.66 122.658 125.66 121.541C125.66 120.394 125.946 119.493 126.517 118.837C127.088 118.181 127.873 117.853 128.872 117.853C129.799 117.853 130.531 118.134 131.068 118.697C131.606 119.26 131.875 120.034 131.875 121.02V121.826H127.196C127.217 122.508 127.402 123.032 127.749 123.401C128.096 123.765 128.584 123.947 129.215 123.947C129.63 123.947 130.015 123.908 130.37 123.832C130.73 123.752 131.115 123.621 131.525 123.439V124.651C131.162 124.825 130.793 124.947 130.421 125.019C130.049 125.091 129.623 125.127 129.145 125.127ZM128.872 118.983C128.398 118.983 128.017 119.133 127.73 119.433C127.446 119.734 127.277 120.172 127.222 120.747H130.408C130.4 120.168 130.26 119.73 129.989 119.433C129.718 119.133 129.346 118.983 128.872 118.983ZM130.332 117.123C129.812 116.814 129.329 116.433 128.885 115.98C128.449 116.416 127.973 116.797 127.457 117.123H126.454V116.964C127.262 116.126 127.799 115.485 128.066 115.041H129.716C129.983 115.506 130.525 116.147 131.341 116.964V117.123H130.332ZM139.668 125H138.17V120.684C138.17 120.142 138.06 119.738 137.84 119.471C137.624 119.205 137.279 119.072 136.805 119.072C136.174 119.072 135.713 119.258 135.421 119.63C135.129 120.003 134.983 120.627 134.983 121.503V125H133.491V117.98H134.659L134.869 118.9H134.945C135.157 118.566 135.457 118.308 135.846 118.126C136.236 117.944 136.667 117.853 137.141 117.853C138.826 117.853 139.668 118.71 139.668 120.424V125ZM150.88 125H149.382V120.671C149.382 120.134 149.281 119.734 149.078 119.471C148.874 119.205 148.557 119.072 148.125 119.072C147.55 119.072 147.127 119.26 146.856 119.636C146.589 120.009 146.456 120.631 146.456 121.503V125H144.964V117.98H146.132L146.342 118.9H146.418C146.613 118.566 146.894 118.308 147.262 118.126C147.635 117.944 148.043 117.853 148.487 117.853C149.566 117.853 150.282 118.221 150.633 118.957H150.734C150.942 118.61 151.234 118.339 151.61 118.145C151.987 117.95 152.419 117.853 152.905 117.853C153.743 117.853 154.352 118.064 154.733 118.488C155.118 118.911 155.311 119.556 155.311 120.424V125H153.819V120.671C153.819 120.134 153.716 119.734 153.508 119.471C153.305 119.205 152.988 119.072 152.556 119.072C151.976 119.072 151.551 119.253 151.28 119.617C151.014 119.977 150.88 120.531 150.88 121.281V125ZM163.542 121.477C163.542 122.624 163.248 123.519 162.66 124.162C162.072 124.806 161.253 125.127 160.203 125.127C159.547 125.127 158.968 124.979 158.464 124.683C157.96 124.387 157.573 123.961 157.302 123.407C157.031 122.853 156.896 122.209 156.896 121.477C156.896 120.339 157.188 119.45 157.772 118.811C158.356 118.172 159.179 117.853 160.241 117.853C161.257 117.853 162.061 118.181 162.653 118.837C163.246 119.488 163.542 120.369 163.542 121.477ZM158.432 121.477C158.432 123.098 159.031 123.908 160.229 123.908C161.413 123.908 162.006 123.098 162.006 121.477C162.006 119.873 161.409 119.072 160.216 119.072C159.59 119.072 159.135 119.279 158.851 119.694C158.572 120.108 158.432 120.703 158.432 121.477ZM161.644 117.123C161.124 116.814 160.641 116.433 160.197 115.98C159.761 116.416 159.285 116.797 158.769 117.123H157.766V116.964C158.574 116.126 159.111 115.485 159.378 115.041H161.028C161.295 115.506 161.837 116.147 162.653 116.964V117.123H161.644ZM171.361 125H169.862V120.684C169.862 120.142 169.752 119.738 169.532 119.471C169.317 119.205 168.972 119.072 168.498 119.072C167.867 119.072 167.406 119.258 167.114 119.63C166.822 120.003 166.676 120.627 166.676 121.503V125H165.184V117.98H166.352L166.562 118.9H166.638C166.849 118.566 167.15 118.308 167.539 118.126C167.929 117.944 168.36 117.853 168.834 117.853C170.518 117.853 171.361 118.71 171.361 120.424V125Z" fill="white"/>
<defs>
<clipPath id="clip0">
<rect width="193.333" height="166.667" fill="white" transform="matrix(-1 0 0 1 545.333 0)"/>
</clipPath>
</defs>
</svg>
