<svg width="24" height="24" viewBox="0 0 24 24" fill="none" xmlns="http://www.w3.org/2000/svg">
<path fill-rule="evenodd" clip-rule="evenodd" d="M18.8714 4H7.61204C6.47303 4 5.55809 4.91494 5.55809 6.03527L5.4834 16.0249H3.56017C3.24274 16.0249 3 16.2676 3 16.5851V17.9481C3 19.3859 4.13901 20.5623 5.55809 20.6183H15.0623H15.193C16.6681 20.6183 17.8631 19.4233 17.8631 17.9481V9.19088H20.4398C20.7573 9.19088 21 8.94814 21 8.63071V6.12863C21 4.95228 20.0477 4 18.8714 4ZM4.12033 17.9481V17.1452H12.5228V17.9481C12.5228 18.527 12.7096 19.0685 13.027 19.4979H5.67013C4.81121 19.4979 4.12033 18.8071 4.12033 17.9481ZM16.7428 17.9481C16.7428 18.8071 16.0519 19.4979 15.193 19.4979C14.334 19.4979 13.6432 18.8071 13.6432 17.9481V16.5851C13.6432 16.2676 13.4004 16.0249 13.083 16.0249H6.60374L6.67843 6.03527C6.67843 5.53112 7.08922 5.12033 7.61204 5.12033H17.0042C16.8361 5.41909 16.7428 5.75519 16.7428 6.12863V17.9481ZM17.8631 8.07054V6.12863C17.8631 5.56847 18.3112 5.12033 18.8714 5.12033C19.4316 5.12033 19.8797 5.56847 19.8797 6.12863V8.07054H17.8631ZM8.43363 8.23858H11.3278C11.6453 8.23858 11.888 7.99585 11.888 7.67842C11.888 7.36099 11.6453 7.11825 11.3278 7.11825H8.43363C8.11621 7.11825 7.87347 7.36099 7.87347 7.67842C7.87347 7.99585 8.11621 8.23858 8.43363 8.23858ZM8.43363 9.35892H14.6888C15.0063 9.35892 15.249 9.60166 15.249 9.91908C15.249 10.2365 15.0063 10.4793 14.6888 10.4793H8.43363C8.11621 10.4793 7.87347 10.2365 7.87347 9.91908C7.87347 9.60166 8.11621 9.35892 8.43363 9.35892ZM14.6888 11.5996H8.43363C8.11621 11.5996 7.87347 11.8423 7.87347 12.1597C7.87347 12.4772 8.11621 12.7199 8.43363 12.7199H14.6888C15.0063 12.7199 15.249 12.4772 15.249 12.1597C15.249 11.8423 15.0063 11.5996 14.6888 11.5996ZM8.43363 13.8403H14.6888C15.0063 13.8403 15.249 14.083 15.249 14.4004C15.249 14.7178 15.0063 14.9606 14.6888 14.9606H8.43363C8.11621 14.9606 7.87347 14.7178 7.87347 14.4004C7.87347 14.083 8.11621 13.8403 8.43363 13.8403Z" fill="#757575"/>
</svg>