<svg width="24" height="24" viewBox="0 0 24 24" fill="none" xmlns="http://www.w3.org/2000/svg">
<path d="M17.5599 10.4248H16.8045V7.71648C16.8045 5.11873 14.6858 3 12.088 3C9.49028 3 7.37155 5.11873 7.37155 7.71648V10.4248H6.61617C5.17912 10.4248 4 11.6039 4 13.0409V18.3838C4 19.8209 5.17912 21 6.61617 21H17.5599C18.9969 21 20.176 19.8209 20.176 18.3838V13.0409C20.176 11.6039 19.0154 10.4248 17.5599 10.4248ZM8.47697 7.71648C8.47697 5.72671 10.0983 4.10542 12.088 4.10542C14.0778 4.10542 15.6807 5.72671 15.6807 7.69805V10.4063H8.47697V7.71648ZM19.0522 18.3838C19.0522 19.2129 18.3705 19.8762 17.5599 19.8762H6.59775C5.76868 19.8762 5.10542 19.1945 5.10542 18.3838V13.0409C5.10542 12.2119 5.7871 11.5486 6.59775 11.5486H17.5415C18.3705 11.5486 19.0338 12.2303 19.0338 13.0409L19.0522 18.3838Z" fill="#757575"/>
</svg>