<svg width="24" height="24" viewBox="0 0 24 24" fill="none" xmlns="http://www.w3.org/2000/svg">
<path d="M15.308 14.1884L13.167 16.3004C12.0505 15.6272 11.0133 14.8306 10.075 13.9254C9.17126 12.9855 8.37471 11.9482 7.70001 10.8324L9.81001 8.69142C9.93781 8.56164 10.0241 8.39679 10.0579 8.21783C10.0918 8.03887 10.0716 7.85388 10 7.68642L7.80001 2.55842C7.7131 2.35622 7.55644 2.19197 7.35857 2.0956C7.1607 1.99924 6.93479 1.97717 6.72201 2.03342L2.68801 3.10042C2.48656 3.15264 2.3088 3.27169 2.18382 3.4381C2.05884 3.6045 1.99403 3.80839 2.00001 4.01642C2.25669 8.70819 4.20746 13.1474 7.49001 16.5094C10.8527 19.793 15.2931 21.7442 19.986 22.0004C20.1942 22.0074 20.3986 21.9431 20.5654 21.8182C20.7321 21.6933 20.8512 21.5152 20.903 21.3134L21.969 17.2774C22.0255 17.0648 22.0037 16.8389 21.9075 16.641C21.8113 16.443 21.6472 16.2863 21.445 16.1994L16.316 14.0004C16.1484 13.9278 15.9629 13.9069 15.7833 13.9404C15.6037 13.9739 15.4382 14.0602 15.308 14.1884V14.1884Z" stroke="#3BCCBB" stroke-width="1.5" stroke-miterlimit="10" stroke-linecap="square"/>
</svg>