<svg width="134" height="32" viewBox="0 0 134 32" fill="none" xmlns="http://www.w3.org/2000/svg">
<g clip-path="url(#clip0)">
<path fill-rule="evenodd" clip-rule="evenodd" d="M27.5711 32H4.42204C1.97522 32 0 30.0175 0 27.577V4.42299C0 1.97565 1.97522 0 4.42204 0H27.578C30.0179 0 32 1.97565 32 4.42299V27.5839C31.9932 30.0175 30.0111 32 27.5711 32Z" fill="url(#paint0_linear)"/>
<path fill-rule="evenodd" clip-rule="evenodd" d="M13.5859 7.24191H12.8816C12.4714 7.24191 12.1432 6.91371 12.1432 6.50345V5.09491C12.1432 4.68465 12.4714 4.35645 12.8816 4.35645H13.5859C14.3859 4.35645 15.0287 5.00602 15.0287 5.79918C15.0287 6.59918 14.3859 7.24191 13.5859 7.24191Z" fill="white"/>
<path fill-rule="evenodd" clip-rule="evenodd" d="M18.4202 7.24191H19.1244C19.5347 7.24191 19.8629 6.91371 19.8629 6.50345V5.09491C19.8629 4.68465 19.5347 4.35645 19.1244 4.35645H18.4202C17.6202 4.35645 16.9774 5.00602 16.9774 5.79918C16.9774 6.59918 17.6202 7.24191 18.4202 7.24191Z" fill="white"/>
<path d="M21.4562 28.0212H10.5502C9.8528 28.0212 9.28528 27.44 9.28528 26.7152V5.65536C9.28528 5.45023 9.44938 5.28613 9.65451 5.28613H13.4494C13.6545 5.28613 13.8186 5.45023 13.8186 5.65536C13.8186 5.86049 13.6545 6.02459 13.4494 6.02459H10.0237V26.7152C10.0237 27.0229 10.2562 27.2759 10.5434 27.2759H21.4425C21.7297 27.2759 21.9622 27.0229 21.9622 26.7152V6.03143H18.2699C18.0648 6.03143 17.9007 5.86733 17.9007 5.6622C17.9007 5.45707 18.0648 5.29297 18.2699 5.29297H22.3383C22.5434 5.29297 22.7075 5.45707 22.7075 5.6622V26.722C22.7212 27.44 22.1537 28.0212 21.4562 28.0212Z" fill="white"/>
<path d="M22.3518 24.1104H9.66125V27.6522H22.3518V24.1104Z" fill="white"/>
<path d="M4.35556 20.4516C4.17778 20.4516 4.02051 20.3217 3.98633 20.1439L3.00855 15.1798L2.47521 15.8567C2.4 15.9456 2.2906 16.0003 2.17436 16.0003H0V15.2482H1.99658L2.9265 14.0653C3.01538 13.949 3.16581 13.8943 3.31624 13.9285C3.45983 13.9627 3.56923 14.079 3.59658 14.2225L4.34188 18.0174L5.59316 11.0089C5.62735 10.8311 5.77778 10.7012 5.96239 10.6943H5.96923C6.14701 10.6943 6.30427 10.8174 6.33846 10.9952L7.29573 15.5354L7.45983 15.3029C7.52821 15.2003 7.64444 15.1388 7.76752 15.1388H9.66154C9.8735 15.1388 10.0376 15.3097 10.0376 15.5148C10.0376 15.72 9.86667 15.8909 9.66154 15.8909H7.96581L7.4188 16.6772C7.32992 16.8003 7.17949 16.8619 7.0359 16.8345C6.88547 16.8072 6.76923 16.6909 6.74188 16.5405L5.99658 13.0601L4.73162 20.1439C4.69744 20.3217 4.54017 20.4516 4.35556 20.4516Z" fill="white"/>
<path d="M27.6514 20.4516C27.4736 20.4516 27.3163 20.3285 27.2821 20.1507L25.7984 12.9371L25.0394 16.5542C25.0052 16.7114 24.8753 16.8345 24.7112 16.855C24.5471 16.8687 24.3898 16.7798 24.3283 16.6362L24.0069 15.9114H22.6394V15.1525H24.2462C24.3556 15.1525 24.465 15.2003 24.5334 15.2824L25.436 11.002C25.4702 10.8242 25.6274 10.7012 25.8052 10.7012C25.983 10.7012 26.1403 10.8311 26.1744 11.002L27.6445 18.1542L28.4172 14.2225C28.4445 14.0789 28.5539 13.9627 28.6975 13.9285C28.8411 13.8943 28.9915 13.949 29.0873 14.0653L30.0172 15.2482H32.0138V16.0003H29.8326C29.7163 16.0003 29.6069 15.9456 29.5317 15.8567L28.9984 15.1798L28.0206 20.1439C27.9864 20.3285 27.8292 20.4516 27.6514 20.4516Z" fill="white"/>
<path fill-rule="evenodd" clip-rule="evenodd" d="M17.5659 13.4227V10.2363H14.3727V13.4227H11.1864V16.609H14.3727V19.8021H17.5659V16.609H20.7522V13.4227H17.5659Z" fill="url(#paint1_linear)"/>
<path fill-rule="evenodd" clip-rule="evenodd" d="M14.1131 10.237C14.1131 10.0937 14.2293 9.97754 14.3726 9.97754H17.5658C17.7091 9.97754 17.8253 10.0937 17.8253 10.237V13.1639H20.7521C20.8954 13.1639 21.0116 13.28 21.0116 13.4234V16.6097C21.0116 16.753 20.8954 16.8692 20.7521 16.8692H17.8253V19.8029C17.8253 19.9462 17.7091 20.0624 17.5658 20.0624H14.3726C14.2293 20.0624 14.1131 19.9462 14.1131 19.8029V16.8692H11.1863C11.0429 16.8692 10.9268 16.753 10.9268 16.6097V13.4234C10.9268 13.28 11.0429 13.1639 11.1863 13.1639H14.1131V10.237ZM14.6321 10.4966V13.4234C14.6321 13.5667 14.5159 13.6829 14.3726 13.6829H11.4458V16.3502H14.3726C14.5159 16.3502 14.6321 16.4664 14.6321 16.6097V19.5433H17.3062V16.6097C17.3062 16.4664 17.4224 16.3502 17.5658 16.3502H20.4926V13.6829H17.5658C17.4224 13.6829 17.3062 13.5667 17.3062 13.4234V10.4966H14.6321Z" fill="white"/>
</g>
<text xmlns="http://www.w3.org/2000/svg" x="40" y="25" fill="blue" font-size="1.5em">BMC</text>
<defs>
<linearGradient id="paint0_linear" x1="15.9963" y1="-0.276577" x2="15.9963" y2="31.6739" gradientUnits="userSpaceOnUse">
<stop stop-color="#29A7ED"/>
<stop offset="1" stop-color="#0D67B2"/>
</linearGradient>
<linearGradient id="paint1_linear" x1="15.9703" y1="9.98896" x2="15.9703" y2="20.456" gradientUnits="userSpaceOnUse">
<stop offset="0.0904523" stop-color="#FF3506"/>
<stop offset="0.8237" stop-color="#FF0B01"/>
<stop offset="1" stop-color="#FF0000"/>
</linearGradient>
<clipPath id="clip0">
<rect width="32" height="32" fill="white"/>
</clipPath>
</defs>
</svg>
