<svg width="134" height="32" viewBox="0 0 134 32" fill="none" xmlns="http://www.w3.org/2000/svg">
<g clip-path="url(#clip0)">
<path fill-rule="evenodd" clip-rule="evenodd" d="M27.5711 32H4.42204C1.97522 32 0 30.0175 0 27.577V4.42299C0 1.97565 1.97522 0 4.42204 0H27.578C30.0179 0 32 1.97565 32 4.42299V27.5839C31.9932 30.0175 30.0111 32 27.5711 32Z" fill="url(#paint0_linear)"/>
<path fill-rule="evenodd" clip-rule="evenodd" d="M13.5859 7.24191H12.8816C12.4714 7.24191 12.1432 6.91371 12.1432 6.50345V5.09491C12.1432 4.68465 12.4714 4.35645 12.8816 4.35645H13.5859C14.3859 4.35645 15.0287 5.00602 15.0287 5.79918C15.0287 6.59918 14.3859 7.24191 13.5859 7.24191Z" fill="white"/>
<path fill-rule="evenodd" clip-rule="evenodd" d="M18.4202 7.24191H19.1244C19.5347 7.24191 19.8629 6.91371 19.8629 6.50345V5.09491C19.8629 4.68465 19.5347 4.35645 19.1244 4.35645H18.4202C17.6202 4.35645 16.9774 5.00602 16.9774 5.79918C16.9774 6.59918 17.6202 7.24191 18.4202 7.24191Z" fill="white"/>
<path d="M21.4562 28.0212H10.5502C9.8528 28.0212 9.28528 27.44 9.28528 26.7152V5.65536C9.28528 5.45023 9.44938 5.28613 9.65451 5.28613H13.4494C13.6545 5.28613 13.8186 5.45023 13.8186 5.65536C13.8186 5.86049 13.6545 6.02459 13.4494 6.02459H10.0237V26.7152C10.0237 27.0229 10.2562 27.2759 10.5434 27.2759H21.4425C21.7297 27.2759 21.9622 27.0229 21.9622 26.7152V6.03143H18.2699C18.0648 6.03143 17.9007 5.86733 17.9007 5.6622C17.9007 5.45707 18.0648 5.29297 18.2699 5.29297H22.3383C22.5434 5.29297 22.7075 5.45707 22.7075 5.6622V26.722C22.7212 27.44 22.1537 28.0212 21.4562 28.0212Z" fill="white"/>
<path d="M22.3518 24.1104H9.66125V27.6522H22.3518V24.1104Z" fill="white"/>
<path d="M4.35556 20.4516C4.17778 20.4516 4.02051 20.3217 3.98633 20.1439L3.00855 15.1798L2.47521 15.8567C2.4 15.9456 2.2906 16.0003 2.17436 16.0003H0V15.2482H1.99658L2.9265 14.0653C3.01538 13.949 3.16581 13.8943 3.31624 13.9285C3.45983 13.9627 3.56923 14.079 3.59658 14.2225L4.34188 18.0174L5.59316 11.0089C5.62735 10.8311 5.77778 10.7012 5.96239 10.6943H5.96923C6.14701 10.6943 6.30427 10.8174 6.33846 10.9952L7.29573 15.5354L7.45983 15.3029C7.52821 15.2003 7.64444 15.1388 7.76752 15.1388H9.66154C9.8735 15.1388 10.0376 15.3097 10.0376 15.5148C10.0376 15.72 9.86667 15.8909 9.66154 15.8909H7.96581L7.4188 16.6772C7.32992 16.8003 7.17949 16.8619 7.0359 16.8345C6.88547 16.8072 6.76923 16.6909 6.74188 16.5405L5.99658 13.0601L4.73162 20.1439C4.69744 20.3217 4.54017 20.4516 4.35556 20.4516Z" fill="white"/>
<path d="M27.6514 20.4516C27.4736 20.4516 27.3163 20.3285 27.2821 20.1507L25.7984 12.9371L25.0394 16.5542C25.0052 16.7114 24.8753 16.8345 24.7112 16.855C24.5471 16.8687 24.3898 16.7798 24.3283 16.6362L24.0069 15.9114H22.6394V15.1525H24.2462C24.3556 15.1525 24.465 15.2003 24.5334 15.2824L25.436 11.002C25.4702 10.8242 25.6274 10.7012 25.8052 10.7012C25.983 10.7012 26.1403 10.8311 26.1744 11.002L27.6445 18.1542L28.4172 14.2225C28.4445 14.0789 28.5539 13.9627 28.6975 13.9285C28.8411 13.8943 28.9915 13.949 29.0873 14.0653L30.0172 15.2482H32.0138V16.0003H29.8326C29.7163 16.0003 29.6069 15.9456 29.5317 15.8567L28.9984 15.1798L28.0206 20.1439C27.9864 20.3285 27.8292 20.4516 27.6514 20.4516Z" fill="white"/>
<path fill-rule="evenodd" clip-rule="evenodd" d="M17.5659 13.4227V10.2363H14.3727V13.4227H11.1864V16.609H14.3727V19.8021H17.5659V16.609H20.7522V13.4227H17.5659Z" fill="url(#paint1_linear)"/>
<path fill-rule="evenodd" clip-rule="evenodd" d="M14.1131 10.237C14.1131 10.0937 14.2293 9.97754 14.3726 9.97754H17.5658C17.7091 9.97754 17.8253 10.0937 17.8253 10.237V13.1639H20.7521C20.8954 13.1639 21.0116 13.28 21.0116 13.4234V16.6097C21.0116 16.753 20.8954 16.8692 20.7521 16.8692H17.8253V19.8029C17.8253 19.9462 17.7091 20.0624 17.5658 20.0624H14.3726C14.2293 20.0624 14.1131 19.9462 14.1131 19.8029V16.8692H11.1863C11.0429 16.8692 10.9268 16.753 10.9268 16.6097V13.4234C10.9268 13.28 11.0429 13.1639 11.1863 13.1639H14.1131V10.237ZM14.6321 10.4966V13.4234C14.6321 13.5667 14.5159 13.6829 14.3726 13.6829H11.4458V16.3502H14.3726C14.5159 16.3502 14.6321 16.4664 14.6321 16.6097V19.5433H17.3062V16.6097C17.3062 16.4664 17.4224 16.3502 17.5658 16.3502H20.4926V13.6829H17.5658C17.4224 13.6829 17.3062 13.5667 17.3062 13.4234V10.4966H14.6321Z" fill="white"/>
</g>
<path d="M59.792 7.56379C59.9484 7.69339 60.0744 7.85544 60.1609 8.03856C60.2475 8.22168 60.2925 8.42141 60.293 8.6237C60.2846 8.86403 60.2252 9.0999 60.1188 9.31588L53.5844 24.3276C53.4473 24.6389 53.2198 24.9025 52.931 25.0847C52.665 25.2554 52.3547 25.3455 52.038 25.3443C51.7423 25.3229 51.4572 25.226 51.2103 25.0631C50.9703 24.8753 50.7828 24.6295 50.6658 24.3492L44.1315 9.20773C44.0381 9.00433 43.9934 8.78223 44.0008 8.55881C43.994 8.34388 44.0377 8.13034 44.1284 7.9351C44.2191 7.73986 44.3544 7.5683 44.5235 7.43401C44.8756 7.20043 45.3035 7.10771 45.7215 7.17444C46.0245 7.17394 46.3206 7.26442 46.571 7.43401C46.8401 7.62097 47.0453 7.88512 47.159 8.19108L52.4083 20.3692L57.2001 8.10456C57.3291 7.80695 57.5406 7.55189 57.81 7.36912C58.067 7.22106 58.363 7.15323 58.6594 7.17444C59.074 7.15018 59.4813 7.2902 59.792 7.56379Z" fill="#1B86CE"/>
<path d="M73.5795 12.7546C74.3308 14.0696 74.6861 15.5711 74.6032 17.0807V23.7214C74.6122 24.145 74.4561 24.5557 74.1676 24.8678C74.0205 25.017 73.844 25.1343 73.6491 25.2125C73.4542 25.2907 73.2451 25.328 73.035 25.3221C72.8278 25.3304 72.6212 25.2941 72.4295 25.2157C72.2378 25.1373 72.0654 25.0186 71.9242 24.8678C71.7733 24.7177 71.655 24.5386 71.5763 24.3415C71.4977 24.1443 71.4604 23.9333 71.4668 23.7214V17.1024C71.491 16.3394 71.2863 15.5865 70.8787 14.9393C70.6233 14.6514 70.3021 14.4285 69.9421 14.2893C69.582 14.15 69.1937 14.0985 68.8095 14.139C68.3748 14.1103 67.9389 14.1725 67.53 14.3215C67.1211 14.4706 66.7481 14.7031 66.4353 15.0042C66.1495 15.2868 65.9247 15.6245 65.7749 15.9964C65.6251 16.3684 65.5534 16.7668 65.5641 17.1673V23.8079C65.5731 24.2315 65.417 24.6422 65.1285 24.9543C64.829 25.2204 64.4413 25.3675 64.0394 25.3675C63.6376 25.3675 63.2499 25.2204 62.9504 24.9543C62.6618 24.6422 62.5058 24.2315 62.5148 23.8079V13.0358C62.5045 12.6184 62.6611 12.214 62.9504 11.911C63.2499 11.645 63.6376 11.4979 64.0394 11.4979C64.4413 11.4979 64.829 11.645 65.1285 11.911C65.4177 12.214 65.5743 12.6184 65.5641 13.0358V13.4684C66.0711 12.8209 66.6999 12.2773 67.4155 11.8677C68.1639 11.4183 69.024 11.1861 69.8985 11.1972C70.5955 11.116 71.3018 11.2169 71.9474 11.4901C72.593 11.7633 73.1556 12.1991 73.5795 12.7546Z" fill="#1B86CE"/>
<path d="M91.8754 9.33717C91.8644 9.72345 91.7268 10.0956 91.4833 10.3971C91.3658 10.5693 91.2063 10.7092 91.0197 10.8038C90.8331 10.8983 90.6254 10.9445 90.4161 10.9378C90.1039 10.928 89.7983 10.8465 89.523 10.6999C88.655 10.307 87.7108 10.1077 86.7568 10.1159C85.6476 10.0804 84.5492 10.3419 83.5768 10.873C82.646 11.357 81.8862 12.1117 81.3987 13.036C80.8831 14.016 80.6282 15.1105 80.6581 16.2157C80.5999 17.0588 80.7167 17.9047 81.0015 18.701C81.2863 19.4974 81.7329 20.227 82.3135 20.8447C83.2793 21.6721 84.4644 22.2058 85.7274 22.3823C86.9904 22.5587 88.2778 22.3704 89.4359 21.8397C89.7036 21.7173 89.9914 21.644 90.2854 21.6234C90.5104 21.6243 90.7321 21.6775 90.9326 21.779C91.1331 21.8804 91.3068 22.0272 91.4398 22.2075C91.6924 22.5037 91.8312 22.8792 91.8318 23.2674C91.8298 23.5347 91.7545 23.7964 91.614 24.0244C91.4636 24.2507 91.2523 24.4306 91.0041 24.5436C89.6538 25.2207 88.1606 25.5691 86.6479 25.5602C85.0159 25.5717 83.4042 25.2012 81.9432 24.4787C80.5209 23.7649 79.3343 22.6615 78.5236 21.299C77.6332 19.7539 77.1886 17.9952 77.2385 16.2157C77.2148 14.5504 77.6357 12.9084 78.4583 11.457C79.251 10.0758 80.4115 8.93822 81.8125 8.16911C83.2984 7.37857 84.9624 6.9766 86.6479 7.00105C88.1596 6.9787 89.6542 7.32009 91.0041 7.99606C91.2691 8.10556 91.4943 8.29245 91.6499 8.53196C91.8055 8.77146 91.8842 9.05228 91.8754 9.33717Z" fill="#1B86CE"/>
<path d="M106.839 11.6302C106.984 11.7835 107.097 11.9637 107.172 12.1604C107.246 12.3571 107.281 12.5665 107.275 12.7767V23.7434C107.284 24.1671 107.128 24.5778 106.839 24.8899C106.692 25.039 106.515 25.1564 106.321 25.2346C106.126 25.3127 105.917 25.35 105.706 25.3441C105.499 25.3524 105.293 25.3162 105.101 25.2378C104.909 25.1593 104.737 25.0407 104.596 24.8899C104.309 24.592 104.146 24.1983 104.138 23.7867C103.646 24.3292 103.045 24.7639 102.374 25.0629C101.647 25.4119 100.851 25.5966 100.043 25.6037C98.8861 25.6185 97.7499 25.295 96.7762 24.6736C95.79 24.0439 94.9925 23.1622 94.4674 22.1211C93.9101 20.959 93.6208 19.6879 93.6208 18.4007C93.6208 17.1134 93.9101 15.8423 94.4674 14.6802C94.9532 13.647 95.7044 12.7592 96.6455 12.1061C97.6014 11.501 98.7139 11.1853 99.8474 11.1976C100.654 11.1936 101.453 11.348 102.2 11.6519C102.884 11.9146 103.512 12.3036 104.051 12.7983C104.045 12.5896 104.083 12.382 104.161 12.1884C104.24 11.9948 104.358 11.8195 104.508 11.6735C104.65 11.5227 104.822 11.404 105.014 11.3256C105.206 11.2472 105.412 11.2109 105.619 11.2192C105.841 11.1937 106.065 11.2173 106.276 11.2884C106.487 11.3595 106.679 11.4762 106.839 11.6302ZM103.202 21.5155C103.935 20.6451 104.315 19.5346 104.269 18.4007C104.307 17.2679 103.928 16.1603 103.202 15.2858C102.856 14.8986 102.432 14.5887 101.957 14.3764C101.482 14.1641 100.967 14.0543 100.446 14.0543C99.9255 14.0543 99.4105 14.1641 98.9356 14.3764C98.4606 14.5887 98.0364 14.8986 97.691 15.2858C97.0056 16.1816 96.6345 17.2756 96.6345 18.4007C96.6345 19.5257 97.0056 20.6197 97.691 21.5155C98.0384 21.9032 98.4645 22.2135 98.9413 22.4259C99.418 22.6384 99.9347 22.7482 100.457 22.7482C100.98 22.7482 101.496 22.6384 101.973 22.4259C102.45 22.2135 102.876 21.9032 103.223 21.5155H103.202Z" fill="#1B86CE"/>
<path d="M119.254 11.6303C119.419 11.7501 119.554 11.9061 119.648 12.0862C119.743 12.2663 119.794 12.4656 119.798 12.6686C119.816 12.8878 119.788 13.1082 119.717 13.3165C119.646 13.5247 119.533 13.7164 119.385 13.8799C119.115 14.1356 118.755 14.2755 118.383 14.2693C118.077 14.2687 117.773 14.21 117.49 14.0962L117.141 13.9881C116.946 13.9645 116.748 13.9645 116.553 13.9881C116.084 13.9818 115.626 14.1259 115.246 14.399C114.795 14.7159 114.441 15.15 114.223 15.6536C113.929 16.283 113.787 16.9719 113.809 17.6653V23.8084C113.818 24.232 113.662 24.6427 113.373 24.9548C113.226 25.104 113.049 25.2214 112.855 25.2995C112.66 25.3777 112.451 25.415 112.24 25.4091C112.033 25.4174 111.827 25.3811 111.635 25.3027C111.443 25.2243 111.271 25.1056 111.13 24.9548C110.979 24.8047 110.86 24.6256 110.782 24.4285C110.703 24.2314 110.666 24.0204 110.672 23.8084V13.0363C110.666 12.8276 110.704 12.62 110.783 12.4264C110.861 12.2329 110.979 12.0575 111.13 11.9115C111.271 11.7607 111.443 11.642 111.635 11.5636C111.827 11.4852 112.033 11.4489 112.24 11.4573C112.451 11.4513 112.66 11.4886 112.855 11.5668C113.049 11.645 113.226 11.7623 113.373 11.9115C113.662 12.2145 113.819 12.6189 113.809 13.0363V13.3608C114.22 12.6723 114.816 12.1107 115.529 11.7385C116.283 11.3761 117.11 11.191 117.947 11.1977C118.422 11.174 118.888 11.3284 119.254 11.6303Z" fill="#1B86CE"/>
<path d="M133.434 19.0928C133.116 19.3358 132.724 19.4654 132.323 19.4605H123.61C123.779 20.4142 124.29 21.2749 125.048 21.8832C125.779 22.4413 126.674 22.7453 127.596 22.7484C128.162 22.7668 128.727 22.7012 129.274 22.5537C129.604 22.4526 129.919 22.3071 130.21 22.1211L130.711 21.8399C130.976 21.6868 131.276 21.6048 131.582 21.602C131.76 21.5986 131.937 21.6314 132.102 21.6984C132.267 21.7653 132.416 21.865 132.541 21.9913C132.665 22.1085 132.763 22.2494 132.831 22.4056C132.898 22.5618 132.933 22.7299 132.933 22.8998C132.915 23.1543 132.838 23.4014 132.71 23.6224C132.582 23.8435 132.405 24.0327 132.192 24.176C131.608 24.6273 130.943 24.9649 130.232 25.171C129.434 25.4507 128.595 25.5969 127.749 25.6036C126.413 25.6347 125.093 25.3217 123.915 24.6952C122.855 24.1081 121.98 23.2393 121.389 22.186C120.796 21.0822 120.496 19.8463 120.518 18.5953C120.481 17.2315 120.804 15.8819 121.454 14.6801C122.027 13.6055 122.886 12.7076 123.937 12.0844C124.93 11.4931 126.068 11.1861 127.226 11.1976C128.375 11.192 129.502 11.5149 130.471 12.1277C131.489 12.7481 132.335 13.6104 132.933 14.6369C133.578 15.6425 133.946 16.7986 134 17.9896C133.995 18.2039 133.942 18.4144 133.844 18.6054C133.746 18.7963 133.605 18.9629 133.434 19.0928ZM123.741 16.9297H130.58V16.6918C130.541 16.3255 130.425 15.9714 130.242 15.6513C130.058 15.3313 129.81 15.0522 129.513 14.8315C128.901 14.3268 128.13 14.0512 127.335 14.0528C126.493 13.9676 125.651 14.2147 124.991 14.7409C124.33 15.267 123.905 16.0299 123.807 16.8648L123.741 16.9297Z" fill="#1B86CE"/>
<defs>
<linearGradient id="paint0_linear" x1="15.9963" y1="-0.276577" x2="15.9963" y2="31.6739" gradientUnits="userSpaceOnUse">
<stop stop-color="#29A7ED"/>
<stop offset="1" stop-color="#0D67B2"/>
</linearGradient>
<linearGradient id="paint1_linear" x1="15.9703" y1="9.98896" x2="15.9703" y2="20.456" gradientUnits="userSpaceOnUse">
<stop offset="0.0904523" stop-color="#FF3506"/>
<stop offset="0.8237" stop-color="#FF0B01"/>
<stop offset="1" stop-color="#FF0000"/>
</linearGradient>
<clipPath id="clip0">
<rect width="32" height="32" fill="white"/>
</clipPath>
</defs>
</svg>
